{
.appVersion = "1192";
DisplayStrings = (
"Extra Extra!"
);
customParameters = (
{
name = fsType;
value = (
);
},
{
name = licenseURL;
value = "http://scripts.sil.org/OFL";
},
{
name = license;
value = "This Font Software is licensed under the SIL Open Font License, Version 1.1. This license is available with a FAQ at: http://scripts.sil.org/OFL";
},
{
name = trademark;
value = "Public Sans is based on Libre Franklin, which is a trademark of Impallari Type.";
},
{
name = description;
value = "Libre Franklin is a reinterpretation and expansion of the 1912 Morris Fuller Benton￢ﾀﾙs classic.";
},
{
name = vendorID;
value = IMPA;
},
{
name = note;
value = "Based on Libre Franklin\012\012";
},
{
name = vsuffix;
value = "";
},
{
name = Axes;
value = (
{
Name = Weight;
Tag = wght;
}
);
}
);
date = "2018-10-05 14:56:17 +0000";
designer = "Pablo Impallari, Rodrigo Fuenzalida (Modified by Dan O. Williams)";
designerURL = "https://designsystem.digital.gov";
familyName = "Public Sans";
featurePrefixes = (
{
automatic = 1;
code = "languagesystem DFLT dflt;\012languagesystem latn dflt;\012languagesystem latn CAT;\012languagesystem latn ROM;\012languagesystem latn MOL;\012languagesystem latn KAZ;\012languagesystem latn TAT;\012languagesystem latn TRK;\012languagesystem latn CRT;\012languagesystem latn AZE;\012";
name = Languagesystems;
}
);
features = (
{
automatic = 1;
code = "feature locl;\012feature subs;\012feature sinf;\012feature sups;\012feature numr;\012feature dnom;\012feature frac;\012feature ordn;\012feature lnum;\012feature pnum;\012feature tnum;\012feature onum;\012feature salt;\012feature ss01;\012";
name = aalt;
},
{
automatic = 1;

glyphs = (
{
glyphname = A;
lastChange = "2019-04-15 22:07:59 +0000";
layers = (
{
anchors = (
{
name = bottom;
position = "{329, 0}";
},
{
name = ogonek;
position = "{660, 5}";
},
{
name = top;
position = "{439, 723}";
}
);
background = {
anchors = (
{
name = ogonek;
position = "{744, 9}";
},
{
name = top;
position = "{393, 742}";
}
);
paths = (
{
closed = 1;
nodes = (
"193 0 LINE SMOOTH",
"207 0 OFFCURVE",
"214 7 OFFCURVE",
"217 15 CURVE SMOOTH",
"258 133 LINE SMOOTH",
"260 140 OFFCURVE",
"265 144 OFFCURVE",
"273 144 CURVE SMOOTH",
"485 144 LINE SMOOTH",
"495 144 OFFCURVE",
"497 139 OFFCURVE",
"500 132 CURVE SMOOTH",
"539 17 LINE SMOOTH",
"543 4 OFFCURVE",
"551 0 OFFCURVE",
"561 0 CURVE SMOOTH",
"757 0 LINE SMOOTH",
"772 0 OFFCURVE",
"776 20 OFFCURVE",
"771 34 CURVE SMOOTH",
"531 715 LINE SMOOTH",
"525 731 OFFCURVE",
"512 742 OFFCURVE",
"495 742 CURVE SMOOTH",
"298 742 LINE SMOOTH",
"280 742 OFFCURVE",
"274 735 OFFCURVE",
"268 719 CURVE SMOOTH",
"26 37 LINE SMOOTH",
"18 15 OFFCURVE",
"26 0 OFFCURVE",
"41 0 CURVE SMOOTH"
);
},
{
closed = 1;
nodes = (
"309 314 OFFCURVE",
"306 322 OFFCURVE",
"311 335 CURVE SMOOTH",
"372 505 LINE SMOOTH",
"374 512 OFFCURVE",
"381 512 OFFCURVE",
"384 505 CURVE SMOOTH",
"444 334 LINE SMOOTH",
"448 321 OFFCURVE",
"446 314 OFFCURVE",
"435 314 CURVE SMOOTH",
"321 314 LINE SMOOTH"
);
}
);
};
layerId = "258ED206-D907-4350-8EBA-CBDDA1C16BF7";
paths = (
{
closed = 1;
nodes = (
"168 0 LINE",
"238 140 LINE",
"465 140 LINE",
"491 0 LINE",
"682 0 LINE",
"537 723 LINE",
"340 723 LINE",
"-25 0 LINE"
);
},
{
closed = 1;
nodes = (
"411 537 LINE",
"446 306 LINE",
"304 306 LINE"
);
}
);
width = 728;
},
{
anchors = (
{
name = bottom;
position = "{287, 0}";
},
{
name = ogonek;
position = "{556, 12}";
},
{
name = top;
position = "{389, 723}";
}
);
background = {
anchors = (
{
name = ogonek;
position = "{637, 11}";
},
{
name = top;
position = "{348, 742}";
}
);
paths = (
{
closed = 1;
nodes = (
"83 0 LINE SMOOTH",
"89 0 OFFCURVE",
"93 2 OFFCURVE",
"94 7 CURVE SMOOTH",
"177 231 LINE SMOOTH",
"179 236 OFFCURVE",
"181 238 OFFCURVE",
"187 238 CURVE SMOOTH",
"509 238 LINE SMOOTH",
"515 238 OFFCURVE",
"517 236 OFFCURVE",
"519 231 CURVE SMOOTH",
"600 8 LINE SMOOTH",
"602 2 OFFCURVE",
"606 0 OFFCURVE",
"613 0 CURVE SMOOTH",
"637 0 LINE SMOOTH",
"644 0 OFFCURVE",
"647 4 OFFCURVE",
"645 10 CURVE SMOOTH",
"383 732 LINE SMOOTH",
"381 739 OFFCURVE",
"375 742 OFFCURVE",
"365 742 CURVE SMOOTH",
"332 742 LINE SMOOTH",
"323 742 OFFCURVE",
"319 739 OFFCURVE",
"316 731 CURVE SMOOTH",
"51 9 LINE SMOOTH",
"49 3 OFFCURVE",
"52 0 OFFCURVE",
"58 0 CURVE SMOOTH"
);
},
{
closed = 1;
nodes = (
"195 278 OFFCURVE",
"193 279 OFFCURVE",
"196 286 CURVE SMOOTH",
"341 677 LINE SMOOTH",
"346 691 OFFCURVE",
"351 691 OFFCURVE",
"356 678 CURVE SMOOTH",
"499 288 LINE SMOOTH",
"501 282 OFFCURVE",
"500 278 OFFCURVE",
"492 278 CURVE SMOOTH",
"201 278 LINE SMOOTH"
);
}
);
};
guideLines = (
{
angle = 69.4967;
position = "{99, 110}";
},
{
angle = 110.0797;
position = "{473, 110}";
}
);
layerId = "91AB5BCA-6A50-42DA-B2F7-8181BF189245";
paths = (
{
closed = 1;
nodes = (
"57 0 LINE",
"167 228 LINE",
"472 228 LINE",
"516 0 LINE",
"556 0 LINE",
"415 723 LINE",
"364 723 LINE",
"19 0 LINE"
);
},
{
closed = 1;
nodes = (
"384 681 LINE",
"464 271 LINE",
"186 271 LINE"
);
}
);
width = 647;
}
);
leftKerningGroup = A;
rightKerningGroup = A;
unicode = 0041;
},
{
glyphname = Aringacute;
lastChange = "2019-04-15 22:21:43 +0000";
layers = (
{
background = {
paths = (
{
closed = 1;
nodes = (
"214 3 LINE",
"264 147 LINE",
"498 147 LINE",
"547 3 LINE",
"785 3 LINE",
"523 745 LINE",
"278 745 LINE",
"15 3 LINE"
);
},
{
closed = 1;
nodes = (
"380 524 LINE",
"453 317 LINE",
"306 317 LINE"
);
},
{
closed = 1;
nodes = (
"461 693 OFFCURVE",
"510 734 OFFCURVE",
"510 796 CURVE SMOOTH",
"510 856 OFFCURVE",
"461 899 OFFCURVE",
"400 899 CURVE SMOOTH",
"340 899 OFFCURVE",
"290 857 OFFCURVE",
"290 798 CURVE SMOOTH",
"290 735 OFFCURVE",
"339 693 OFFCURVE",
"400 693 CURVE SMOOTH"
);
},
{
closed = 1;
nodes = (
"373 746 OFFCURVE",
"350 769 OFFCURVE",
"350 795 CURVE SMOOTH",
"350 822 OFFCURVE",
"373 842 OFFCURVE",
"399 842 CURVE SMOOTH",
"426 842 OFFCURVE",
"447 822 OFFCURVE",
"447 795 CURVE SMOOTH",
"447 769 OFFCURVE",
"426 746 OFFCURVE",
"399 746 CURVE SMOOTH"
);
},
{
closed = 1;
nodes = (
"443 875 LINE",
"468 935 LINE SMOOTH",
"474 949 OFFCURVE",
"470 964 OFFCURVE",
"454 964 CURVE SMOOTH",
"409 964 LINE SMOOTH",
"390 964 OFFCURVE",
"377 958 OFFCURVE",
"371 933 CURVE SMOOTH",
"357 875 LINE"
);
}
);
};
components = (
{
name = A;
},
{
name = _ringacute;
transform = "{1, 0, 0, 1, 8, 0}";
}
);
layerId = "258ED206-D907-4350-8EBA-CBDDA1C16BF7";
width = 728;
},
{
background = {
paths = (
{
closed = 1;
nodes = (
"438 857 OFFCURVE",
"394 900 OFFCURVE",
"338 900 CURVE SMOOTH",
"283 900 OFFCURVE",
"238 857 OFFCURVE",
"238 804 CURVE SMOOTH",
"238 746 OFFCURVE",
"282 702 OFFCURVE",
"338 702 CURVE SMOOTH",
"394 702 OFFCURVE",
"438 745 OFFCURVE",
"438 802 CURVE SMOOTH"
);
},
{
closed = 1;
nodes = (
"395 770 OFFCURVE",
"370 742 OFFCURVE",
"337 742 CURVE SMOOTH",
"306 742 OFFCURVE",
"278 770 OFFCURVE",
"278 801 CURVE SMOOTH",
"278 836 OFFCURVE",
"306 860 OFFCURVE",
"337 860 CURVE SMOOTH",
"370 860 OFFCURVE",
"395 836 OFFCURVE",
"395 801 CURVE SMOOTH"
);
},
{
closed = 1;
nodes = (
"314 742 OFFCURVE",
"310 739 OFFCURVE",
"307 731 CURVE SMOOTH",
"60 9 LINE",
"58 4 OFFCURVE",
"61 0 OFFCURVE",
"67 0 CURVE SMOOTH",
"89 0 LINE SMOOTH",
"95 0 OFFCURVE",
"98 2 OFFCURVE",
"100 7 CURVE",
"177 231 LINE SMOOTH",
"179 236 OFFCURVE",
"181 238 OFFCURVE",
"187 238 CURVE SMOOTH",
"483 238 LINE SMOOTH",
"489 238 OFFCURVE",
"491 236 OFFCURVE",
"493 231 CURVE SMOOTH",
"569 8 LINE SMOOTH",
"571 2 OFFCURVE",
"574 0 OFFCURVE",
"581 0 CURVE SMOOTH",
"608 0 LINE SMOOTH",
"615 0 OFFCURVE",
"618 4 OFFCURVE",
"616 10 CURVE SMOOTH",
"373 732 LINE",
"371 739 OFFCURVE",
"365 742 OFFCURVE",
"355 742 CURVE SMOOTH",
"323 742 LINE SMOOTH"
);
},
{
closed = 1;
nodes = (
"477 282 OFFCURVE",
"476 278 OFFCURVE",
"468 278 CURVE SMOOTH",
"199 278 LINE SMOOTH",
"193 278 OFFCURVE",
"192 279 OFFCURVE",
"195 286 CURVE SMOOTH",
"328 677 LINE SMOOTH",
"333 691 OFFCURVE",
"339 691 OFFCURVE",
"343 678 CURVE SMOOTH",
"475 288 LINE SMOOTH"
);
},
{
closed = 1;
nodes = (
"348 964 OFFCURVE",
"343 960 OFFCURVE",
"341 951 CURVE SMOOTH",
"323 875 LINE",
"361 875 LINE",
"392 948 LINE SMOOTH",
"396 958 OFFCURVE",
"393 964 OFFCURVE",
"382 964 CURVE SMOOTH",
"359 964 LINE SMOOTH"
);
}
);
};
components = (
{
name = A;
},
{
name = _ringacute;
transform = "{1, 0, 0, 1, -15, 0}";
}
);
layerId = "91AB5BCA-6A50-42DA-B2F7-8181BF189245";
width = 647;
}
);
leftKerningGroup = A;
leftMetricsKey = A;
rightKerningGroup = A;
rightMetricsKey = A;
unicode = 01FA;
},
{
glyphname = AE;
lastChange = "2019-04-15 22:22:15 +0000";
layers = (
{
anchors = (
{
name = top;
position = "{760, 723}";
}
);
background = {
anchors = (
{
name = top;
position = "{713, 742}";
}
);
paths = (
{
closed = 1;
nodes = (
"739 164 LINE SMOOTH",
"730 164 OFFCURVE",
"727 167 OFFCURVE",
"727 178 CURVE SMOOTH",
"727 278 LINE SMOOTH",
"727 286 OFFCURVE",
"733 292 OFFCURVE",
"743 292 CURVE SMOOTH",
"928 292 LINE SMOOTH",
"941 292 OFFCURVE",
"946 300 OFFCURVE",
"946 309 CURVE SMOOTH",
"946 433 LINE SMOOTH",
"946 446 OFFCURVE",
"939 453 OFFCURVE",
"925 453 CURVE SMOOTH",
"745 453 LINE SMOOTH",
"735 453 OFFCURVE",
"727 460 OFFCURVE",
"727 474 CURVE SMOOTH",
"727 559 LINE SMOOTH",
"727 572 OFFCURVE",
"735 578 OFFCURVE",
"750 578 CURVE SMOOTH",
"1050 578 LINE SMOOTH",
"1068 578 OFFCURVE",
"1076 589 OFFCURVE",
"1076 605 CURVE SMOOTH",
"1077 721 LINE SMOOTH",
"1077 734 OFFCURVE",
"1071 742 OFFCURVE",
"1059 742 CURVE SMOOTH",
"410 742 LINE SMOOTH",
"393 742 OFFCURVE",
"385 735 OFFCURVE",
"377 719 CURVE SMOOTH",
"23 37 LINE SMOOTH",
"11 15 OFFCURVE",
"17 0 OFFCURVE",
"32 0 CURVE SMOOTH",
"184 0 LINE SMOOTH",
"198 0 OFFCURVE",
"206 7 OFFCURVE",
"210 15 CURVE SMOOTH",
"269 133 LINE",
"272 140 OFFCURVE",
"278 144 OFFCURVE",
"286 144 CURVE SMOOTH",
"487 144 LINE SMOOTH",
"497 144 OFFCURVE",
"500 139 OFFCURVE",
"500 130 CURVE SMOOTH",
"500 25 LINE SMOOTH",
"500 8 OFFCURVE",
"507 0 OFFCURVE",
"527 0 CURVE SMOOTH",
"1062 0 LINE SMOOTH",
"1079 0 OFFCURVE",
"1086 10 OFFCURVE",
"1086 22 CURVE SMOOTH",
"1086 145 LINE SMOOTH",
"1086 159 OFFCURVE",
"1078 164 OFFCURVE",
"1064 164 CURVE SMOOTH"
);
},
{
closed = 1;
nodes = (
"364 314 LINE SMOOTH",
"352 314 OFFCURVE",
"350 322 OFFCURVE",
"358 335 CURVE",
"460 537 LINE SMOOTH",
"476 567 OFFCURVE",
"500 565 OFFCURVE",
"500 535 CURVE SMOOTH",
"500 334 LINE SMOOTH",
"500 321 OFFCURVE",
"493 314 OFFCURVE",
"481 314 CURVE SMOOTH"
);
}
);
};
layerId = "258ED206-D907-4350-8EBA-CBDDA1C16BF7";
paths = (
{
closed = 1;
nodes = (
"157 0 LINE",
"246 140 LINE",
"465 140 LINE",
"444 0 LINE",
"1012 0 LINE",
"1036 160 LINE",
"689 160 LINE",
"708 285 LINE",
"919 285 LINE",
"943 442 LINE",
"731 442 LINE",
"750 564 LINE",
"1088 564 LINE",
"1113 723 LINE",
"446 723 LINE",
"-36 0 LINE"
);
},
{
closed = 1;
nodes = (
"535 601 LINE",
"490 306 LINE",
"342 306 LINE"
);
}
);
width = 1104;
},
{
anchors = (
{
name = top;
position = "{633, 723}";
}
);
background = {
anchors = (
{
name = top;
position = "{616, 742}";
}
);
paths = (
{
closed = 1;
nodes = (
"485 40 LINE SMOOTH",
"478 40 OFFCURVE",
"476 41 OFFCURVE",
"476 49 CURVE SMOOTH",
"476 346 LINE SMOOTH",
"476 354 OFFCURVE",
"478 355 OFFCURVE",
"485 355 CURVE SMOOTH",
"753 355 LINE SMOOTH",
"759 355 OFFCURVE",
"761 356 OFFCURVE",
"761 362 CURVE SMOOTH",
"761 388 LINE SMOOTH",
"761 393 OFFCURVE",
"759 395 OFFCURVE",
"754 395 CURVE SMOOTH",
"485 395 LINE SMOOTH",
"478 395 OFFCURVE",
"476 396 OFFCURVE",
"476 402 CURVE SMOOTH",
"476 693 LINE SMOOTH",
"476 701 OFFCURVE",
"478 702 OFFCURVE",
"485 702 CURVE SMOOTH",
"823 702 LINE SMOOTH",
"829 702 OFFCURVE",
"831 703 OFFCURVE",
"831 709 CURVE SMOOTH",
"831 735 LINE SMOOTH",
"831 740 OFFCURVE",
"829 742 OFFCURVE",
"824 742 CURVE SMOOTH",
"419 742 LINE SMOOTH",
"410 742 OFFCURVE",
"405 739 OFFCURVE",
"401 731 CURVE",
"-12 9 LINE SMOOTH",
"-15 4 OFFCURVE",
"-13 0 OFFCURVE",
"-7 0 CURVE SMOOTH",
"18 0 LINE SMOOTH",
"24 0 OFFCURVE",
"27 2 OFFCURVE",
"30 7 CURVE SMOOTH",
"159 231 LINE SMOOTH",
"162 236 OFFCURVE",
"165 238 OFFCURVE",
"171 238 CURVE SMOOTH",
"425 238 LINE SMOOTH",
"428 238 OFFCURVE",
"430 236 OFFCURVE",
"430 233 CURVE SMOOTH",
"430 10 LINE SMOOTH",
"430 2 OFFCURVE",
"432 0 OFFCURVE",
"439 0 CURVE SMOOTH",
"839 0 LINE SMOOTH",
"844 0 OFFCURVE",
"846 2 OFFCURVE",
"846 7 CURVE SMOOTH",
"846 33 LINE SMOOTH",
"846 39 OFFCURVE",
"844 40 OFFCURVE",
"838 40 CURVE SMOOTH"
);
},
{
closed = 1;
nodes = (
"190 278 LINE SMOOTH",
"184 278 OFFCURVE",
"183 279 OFFCURVE",
"187 286 CURVE SMOOTH",
"415 677 LINE SMOOTH",
"423 691 OFFCURVE",
"429 691 OFFCURVE",
"430 678 CURVE",
"430 287 LINE SMOOTH",
"430 282 OFFCURVE",
"428 278 OFFCURVE",
"422 278 CURVE SMOOTH"
);
}
);
};
layerId = "91AB5BCA-6A50-42DA-B2F7-8181BF189245";
paths = (
{
closed = 1;
nodes = (
"2 0 LINE",
"157 232 LINE",
"398 232 LINE",
"365 0 LINE",
"738 0 LINE",
"743 39 LINE",
"411 39 LINE",
"454 346 LINE",
"710 346 LINE",
"715 385 LINE",
"460 385 LINE",
"502 684 LINE",
"821 684 LINE",
"826 723 LINE",
"445 723 LINE",
"-36 0 LINE"
);
},
{
closed = 1;
nodes = (
"461 685 LINE",
"403 271 LINE",
"180 271 LINE"
);
}
);
width = 844;
}
);
leftKerningGroup = AE;
rightKerningGroup = E;
rightMetricsKey = E;
unicode = 00C6;
},
{
glyphname = B;
lastChange = "2019-04-15 22:07:59 +0000";
layers = (
{
background = {
paths = (
{
closed = 1;
nodes = (
"407 0 LINE SMOOTH",
"623 0 OFFCURVE",
"726 65 OFFCURVE",
"726 202 CURVE SMOOTH",
"726 287 OFFCURVE",
"687 338 OFFCURVE",
"577 379 CURVE SMOOTH",
"574 380 OFFCURVE",
"574 385 OFFCURVE",
"577 386 CURVE SMOOTH",
"677 432 OFFCURVE",
"708 477 OFFCURVE",
"708 546 CURVE SMOOTH",
"708 675 OFFCURVE",
"598 742 OFFCURVE",
"391 742 CURVE SMOOTH",
"93 742 LINE SMOOTH",
"78 742 OFFCURVE",
"68 731 OFFCURVE",
"68 716 CURVE SMOOTH",
"68 22 LINE SMOOTH",
"68 10 OFFCURVE",
"77 0 OFFCURVE",
"91 0 CURVE SMOOTH"
);
},
{
closed = 1;
nodes = (
"299 150 OFFCURVE",
"295 157 OFFCURVE",
"295 172 CURVE SMOOTH",
"295 277 LINE SMOOTH",
"295 292 OFFCURVE",
"301 298 OFFCURVE",
"318 298 CURVE SMOOTH",
"407 298 LINE SMOOTH",
"457 298 OFFCURVE",
"490 268 OFFCURVE",
"490 227 CURVE SMOOTH",
"490 188 OFFCURVE",
"460 150 OFFCURVE",
"402 150 CURVE SMOOTH",
"312 150 LINE SMOOTH"
);
},
{
closed = 1;
nodes = (
"299 452 OFFCURVE",
"295 459 OFFCURVE",
"295 474 CURVE SMOOTH",
"295 572 LINE SMOOTH",
"295 587 OFFCURVE",
"301 592 OFFCURVE",
"318 592 CURVE SMOOTH",
"400 592 LINE SMOOTH",
"447 592 OFFCURVE",
"484 564 OFFCURVE",
"484 520 CURVE SMOOTH",
"484 481 OFFCURVE",
"454 452 OFFCURVE",
"407 452 CURVE SMOOTH",
"312 452 LINE SMOOTH"
);
}
);
};
layerId = "258ED206-D907-4350-8EBA-CBDDA1C16BF7";
paths = (
{
closed = 1;
nodes = (
"336 0 LINE SMOOTH",
"544 0 OFFCURVE",
"634 62 OFFCURVE",
"655 197 CURVE",
"663 251 OFFCURVE",
"669 334 OFFCURVE",
"548 372 CURVE",
"643 416 OFFCURVE",
"679 465 OFFCURVE",
"689 532 CURVE SMOOTH",
"707 655 OFFCURVE",
"630 723 OFFCURVE",
"430 723 CURVE SMOOTH",
"142 723 LINE",
"33 0 LINE"
);
},
{
closed = 1;
nodes = (
"271 291 LINE",
"392 291 LINE",
"440 291 OFFCURVE",
"468 261 OFFCURVE",
"462 221 CURVE SMOOTH",
"456 183 OFFCURVE",
"421 146 OFFCURVE",
"365 146 CURVE",
"249 146 LINE"
);
},
{
closed = 1;
nodes = (
"314 577 LINE",
"428 577 LINE SMOOTH",
"474 577 OFFCURVE",
"506 550 OFFCURVE",
"499 507 CURVE SMOOTH",
"493 469 OFFCURVE",
"460 441 OFFCURVE",
"415 441 CURVE SMOOTH",
"293 441 LINE"
);
}
);
width = 704;
},
{
background = {
paths = (
{
closed = 1;
nodes = (
"320 0 LINE SMOOTH",
"495 0 OFFCURVE",
"598 65 OFFCURVE",
"598 197 CURVE SMOOTH",
"598 297 OFFCURVE",
"539 356 OFFCURVE",
"449 373 CURVE SMOOTH",
"443 374 OFFCURVE",
"443 380 OFFCURVE",
"449 382 CURVE SMOOTH",
"537 409 OFFCURVE",
"580 467 OFFCURVE",
"580 551 CURVE SMOOTH",
"580 675 OFFCURVE",
"483 742 OFFCURVE",
"317 742 CURVE SMOOTH",
"112 742 LINE SMOOTH",
"105 742 OFFCURVE",
"103 740 OFFCURVE",
"103 732 CURVE SMOOTH",
"103 8 LINE SMOOTH",
"103 3 OFFCURVE",
"106 0 OFFCURVE",
"111 0 CURVE SMOOTH"
);
},
{
closed = 1;
nodes = (
"151 40 OFFCURVE",
"149 43 OFFCURVE",
"149 50 CURVE SMOOTH",
"149 346 LINE SMOOTH",
"149 353 OFFCURVE",
"152 355 OFFCURVE",
"160 355 CURVE SMOOTH",
"329 355 LINE SMOOTH",
"454 355 OFFCURVE",
"550 311 OFFCURVE",
"550 191 CURVE SMOOTH",
"550 82 OFFCURVE",
"473 40 OFFCURVE",
"315 40 CURVE SMOOTH",
"156 40 LINE SMOOTH"
);
},
{
closed = 1;
nodes = (
"151 395 OFFCURVE",
"149 398 OFFCURVE",
"149 405 CURVE SMOOTH",
"149 694 LINE SMOOTH",
"149 700 OFFCURVE",
"152 702 OFFCURVE",
"158 702 CURVE SMOOTH",
"313 702 LINE SMOOTH",
"448 702 OFFCURVE",
"532 654 OFFCURVE",
"532 546 CURVE SMOOTH",
"532 424 OFFCURVE",
"422 395 OFFCURVE",
"329 395 CURVE SMOOTH",
"156 395 LINE SMOOTH"
);
}
);
};
layerId = "91AB5BCA-6A50-42DA-B2F7-8181BF189245";
paths = (
{
closed = 1;
nodes = (
"261 0 LINE",
"418 0 OFFCURVE",
"519 64 OFFCURVE",
"537 193 CURVE",
"551 289 OFFCURVE",
"509 349 OFFCURVE",
"414 367 CURVE",
"513 397 OFFCURVE",
"557 454 OFFCURVE",
"569 536 CURVE SMOOTH",
"586 657 OFFCURVE",
"509 723 OFFCURVE",
"360 723 CURVE SMOOTH",
"173 723 LINE",
"71 0 LINE"
);
},
{
closed = 1;
nodes = (
"156 345 LINE",
"318 345 LINE SMOOTH",
"430 345 OFFCURVE",
"517 304 OFFCURVE",
"501 187 CURVE SMOOTH",
"486 81 OFFCURVE",
"404 41 OFFCURVE",
"262 41 CURVE",
"113 41 LINE"
);
},
{
closed = 1;
nodes = (
"203 683 LINE",
"350 683 LINE SMOOTH",
"472 683 OFFCURVE",
"547 637 OFFCURVE",
"532 531 CURVE SMOOTH",
"516 412 OFFCURVE",
"406 386 OFFCURVE",
"323 386 CURVE SMOOTH",
"161 386 LINE"
);
}
);
width = 613;
}
);
leftKerningGroup = N;
leftMetricsKey = N;
rightKerningGroup = B;
unicode = 0042;
},
{
glyphname = C;
lastChange = "2019-04-15 22:22:15 +0000";
layers = (
{
anchors = (
{
name = bottom;
position = "{349, 0}";
},
{
name = top;
position = "{458, 723}";
}
);
background = {
anchors = (
{
name = bottom;
position = "{401, 0}";
},
{
name = top;
position = "{403, 742}";
}
);
paths = (
{
closed = 1;
nodes = (
"186 752 OFFCURVE",
"48 606 OFFCURVE",
"48 381 CURVE SMOOTH",
"48 155 OFFCURVE",
"186 -10 OFFCURVE",
"401 -10 CURVE SMOOTH",
"632 -10 OFFCURVE",
"718 167 OFFCURVE",
"728 221 CURVE SMOOTH",
"732 247 OFFCURVE",
"721 252 OFFCURVE",
"714 254 CURVE SMOOTH",
"589 279 LINE SMOOTH",
"573 282 OFFCURVE",
"564 279 OFFCURVE",
"561 271 CURVE SMOOTH",
"526 183 OFFCURVE",
"475 154 OFFCURVE",
"408 154 CURVE SMOOTH",
"327 154 OFFCURVE",
"286 212 OFFCURVE",
"286 377 CURVE SMOOTH",
"286 540 OFFCURVE",
"334 598 OFFCURVE",
"409 598 CURVE SMOOTH",
"477 598 OFFCURVE",
"504 544 OFFCURVE",
"516 475 CURVE",
"706 487 LINE",
"721 489 OFFCURVE",
"725 494 OFFCURVE",
"719 522 CURVE SMOOTH",
"693 655 OFFCURVE",
"572 752 OFFCURVE",
"403 752 CURVE SMOOTH"
);
}
);
};
guideLines = (
{
angle = -183.559;
position = "{514, 299}";
}
);
layerId = "258ED206-D907-4350-8EBA-CBDDA1C16BF7";
paths = (
{
closed = 1;
nodes = (
"577 -10 OFFCURVE",
"659 120 OFFCURVE",
"702 270 CURVE",
"500 270 LINE",
"479 203 OFFCURVE",
"430 146 OFFCURVE",
"364 146 CURVE SMOOTH",
"291 146 OFFCURVE",
"248 207 OFFCURVE",
"272 368 CURVE SMOOTH",
"296 527 OFFCURVE",
"357 577 OFFCURVE",
"429 577 CURVE SMOOTH",
"496 577 OFFCURVE",
"529 535 OFFCURVE",
"530 468 CURVE",
"732 468 LINE",
"739 624 OFFCURVE",
"631 733 OFFCURVE",
"460 733 CURVE SMOOTH",
"250 733 OFFCURVE",
"94 591 OFFCURVE",
"61 371 CURVE SMOOTH",
"28 151 OFFCURVE",
"139 -10 OFFCURVE",
"347 -10 CURVE SMOOTH"
);
}
);
width = 743;
},
{
anchors = (
{
name = bottom;
position = "{300, 0}";
},
{
name = top;
position = "{395, 723}";
}
);
background = {
anchors = (
{
name = bottom;
position = "{368, 0}";
},
{
name = top;
position = "{362, 742}";
}
);
guideLines = (
{
angle = 90;
position = "{623, 369}";
}
);
paths = (
{
closed = 1;
nodes = (
"175 752 OFFCURVE",
"65 610 OFFCURVE",
"65 368 CURVE SMOOTH",
"65 127 OFFCURVE",
"175 -10 OFFCURVE",
"368 -10 CURVE SMOOTH",
"489 -10 OFFCURVE",
"589 61 OFFCURVE",
"624 171 CURVE SMOOTH",
"625 175 OFFCURVE",
"624 177 OFFCURVE",
"622 178 CURVE SMOOTH",
"588 188 LINE SMOOTH",
"585 189 OFFCURVE",
"583 188 OFFCURVE",
"582 186 CURVE SMOOTH",
"542 81 OFFCURVE",
"476 32 OFFCURVE",
"372 32 CURVE SMOOTH",
"199 32 OFFCURVE",
"113 153 OFFCURVE",
"113 368 CURVE SMOOTH",
"113 591 OFFCURVE",
"201 710 OFFCURVE",
"364 710 CURVE SMOOTH",
"465 710 OFFCURVE",
"545 647 OFFCURVE",
"568 552 CURVE SMOOTH",
"569 546 OFFCURVE",
"571 544 OFFCURVE",
"575 545 CURVE SMOOTH",
"611 549 LINE SMOOTH",
"616 549 OFFCURVE",
"617 551 OFFCURVE",
"616 556 CURVE SMOOTH",
"604 659 OFFCURVE",
"484 752 OFFCURVE",
"362 752 CURVE SMOOTH"
);
}
);
};
guideLines = (
{
angle = 90;
position = "{624, 342}";
}
);
layerId = "91AB5BCA-6A50-42DA-B2F7-8181BF189245";
paths = (
{
closed = 1;
nodes = (
"408 -10 OFFCURVE",
"525 69 OFFCURVE",
"549 173 CURVE",
"512 184 LINE",
"477 87 OFFCURVE",
"397 31 OFFCURVE",
"306 31 CURVE SMOOTH",
"150 31 OFFCURVE",
"94 149 OFFCURVE",
"124 359 CURVE SMOOTH",
"154 576 OFFCURVE",
"245 692 OFFCURVE",
"391 692 CURVE SMOOTH",
"505 692 OFFCURVE",
"559 623 OFFCURVE",
"563 529 CURVE",
"604 536 LINE",
"608 640 OFFCURVE",
"531 733 OFFCURVE",
"395 733 CURVE SMOOTH",
"228 733 OFFCURVE",
"116 595 OFFCURVE",
"83 359 CURVE SMOOTH",
"50 124 OFFCURVE",
"125 -10 OFFCURVE",
"298 -10 CURVE SMOOTH"
);
}
);
width = 629;
}
);
leftKerningGroup = O;
leftMetricsKey = O;
rightKerningGroup = C;
unicode = 0043;
},
{
glyphname = D;
lastChange = "2019-04-15 22:22:15 +0000";
layers = (
{
anchors = (
{
name = bottom;
position = "{316, 0}";
},
{
name = center;
position = "{390, 362}";
},
{
name = top;
position = "{445, 723}";
}
);
background = {
anchors = (
{
name = center;
position = "{386, 371}";
},
{
name = top;
position = "{386, 742}";
}
);
paths = (
{
closed = 1;
nodes = (
"48 0 LINE",
"340 0 LINE SMOOTH",
"603 0 OFFCURVE",
"736 157 OFFCURVE",
"736 373 CURVE SMOOTH",
"736 584 OFFCURVE",
"609 731 OFFCURVE",
"341 741 CURVE SMOOTH",
"277 743 OFFCURVE",
"69 742 OFFCURVE",
"48 742 CURVE"
);
},
{
closed = 1;
nodes = (
"295 585 LINE SMOOTH",
"447 585 OFFCURVE",
"498 513 OFFCURVE",
"498 376 CURVE SMOOTH",
"498 215 OFFCURVE",
"422 157 OFFCURVE",
"296 157 CURVE SMOOTH",
"275 157 LINE",
"275 585 LINE"
);
}
);
};
layerId = "258ED206-D907-4350-8EBA-CBDDA1C16BF7";
paths = (
{
closed = 1;
nodes = (
"290 0 LINE SMOOTH",
"545 0 OFFCURVE",
"686 153 OFFCURVE",
"718 364 CURVE SMOOTH",
"749 569 OFFCURVE",
"659 713 OFFCURVE",
"401 722 CURVE SMOOTH",
"339 724 OFFCURVE",
"164 723 OFFCURVE",
"143 723 CURVE",
"33 0 LINE"
);
},
{
closed = 1;
nodes = (
"313 570 LINE",
"383 570 LINE SMOOTH",
"481 570 OFFCURVE",
"537 500 OFFCURVE",
"517 367 CURVE SMOOTH",
"493 210 OFFCURVE",
"393 153 OFFCURVE",
"319 153 CURVE SMOOTH",
"250 153 LINE"
);
}
);
width = 743;
},
{
anchors = (
{
name = bottom;
position = "{298, 0}";
},
{
name = center;
position = "{325, 362}";
},
{
name = top;
position = "{370, 723}";
}
);
background = {
anchors = (
{
name = center;
position = "{332, 371}";
},
{
name = top;
position = "{326, 742}";
}
);
paths = (
{
closed = 1;
nodes = (
"104 0 LINE",
"215 0 LINE SMOOTH",
"487 0 OFFCURVE",
"616 115 OFFCURVE",
"616 376 CURVE SMOOTH",
"616 624 OFFCURVE",
"504 739 OFFCURVE",
"229 741 CURVE SMOOTH",
"167 741 OFFCURVE",
"106 742 OFFCURVE",
"104 742 CURVE"
);
},
{
closed = 1;
nodes = (
"152 701 OFFCURVE",
"200 701 OFFCURVE",
"218 701 CURVE SMOOTH",
"462 696 OFFCURVE",
"568 628 OFFCURVE",
"568 372 CURVE SMOOTH",
"568 130 OFFCURVE",
"469 40 OFFCURVE",
"211 40 CURVE SMOOTH",
"150 40 LINE",
"150 701 LINE"
);
}
);
};
layerId = "91AB5BCA-6A50-42DA-B2F7-8181BF189245";
paths = (
{
closed = 1;
nodes = (
"169 0 LINE SMOOTH",
"413 0 OFFCURVE",
"544 112 OFFCURVE",
"580 367 CURVE SMOOTH",
"614 608 OFFCURVE",
"529 721 OFFCURVE",
"283 722 CURVE SMOOTH",
"228 722 OFFCURVE",
"175 723 OFFCURVE",
"173 723 CURVE",
"71 0 LINE"
);
},
{
closed = 1;
nodes = (
"206 682 LINE",
"267 682 LINE SMOOTH",
"471 682 OFFCURVE",
"576 612 OFFCURVE",
"541 363 CURVE SMOOTH",
"508 127 OFFCURVE",
"387 41 OFFCURVE",
"172 41 CURVE SMOOTH",
"116 41 LINE"
);
}
);
width = 630;
}
);
leftKerningGroup = N;
leftMetricsKey = N;
rightKerningGroup = O;
unicode = 0044;
},
{
glyphname = Eth;
lastChange = "2019-04-15 22:22:15 +0000";
layers = (
{
background = {
components = (
{
name = D;
transform = "{1, 0, 0, 1, 72, 0}";
}
);
paths = (
{
closed = 1;
nodes = (
"462 415 OFFCURVE",
"455 423 OFFCURVE",
"444 423 CURVE SMOOTH",
"83 423 LINE SMOOTH",
"71 423 OFFCURVE",
"64 415 OFFCURVE",
"64 401 CURVE SMOOTH",
"64 310 LINE SMOOTH",
"64 293 OFFCURVE",
"70 286 OFFCURVE",
"90 286 CURVE SMOOTH",
"430 286 LINE SMOOTH",
"452 286 OFFCURVE",
"462 293 OFFCURVE",
"462 313 CURVE SMOOTH",
"462 404 LINE SMOOTH"
);
}
);
};
components = (
{
name = D;
transform = "{1, 0, 0, 1, 72, 0}";
}
);
layerId = "258ED206-D907-4350-8EBA-CBDDA1C16BF7";
paths = (
{
closed = 1;
nodes = (
"468 286 LINE",
"488 423 LINE",
"58 423 LINE",
"38 286 LINE"
);
}
);
width = 815;
},
{
background = {
components = (
{
name = D;
transform = "{1, 0, 0, 1, 18, 0}";
}
);
paths = (
{
closed = 1;
nodes = (
"354 382 OFFCURVE",
"352 385 OFFCURVE",
"348 385 CURVE SMOOTH",
"62 385 LINE SMOOTH",
"57 385 OFFCURVE",
"55 382 OFFCURVE",
"55 376 CURVE SMOOTH",
"55 354 LINE SMOOTH",
"55 347 OFFCURVE",
"57 344 OFFCURVE",
"65 344 CURVE SMOOTH",
"342 344 LINE SMOOTH",
"351 344 OFFCURVE",
"354 347 OFFCURVE",
"354 355 CURVE SMOOTH",
"354 377 LINE SMOOTH"
);
}
);
};
components = (
{
name = D;
transform = "{1, 0, 0, 1, 18, 0}";
}
);
layerId = "91AB5BCA-6A50-42DA-B2F7-8181BF189245";
paths = (
{
closed = 1;
nodes = (
"354 344 LINE",
"354 385 LINE",
"55 385 LINE",
"55 344 LINE"
);
}
);
width = 648;
}
);
leftKerningGroup = N;
rightKerningGroup = O;
rightMetricsKey = D;
unicode = 00D0;
},
{
glyphname = E;
lastChange = "2019-04-15 22:07:59 +0000";
layers = (
{
anchors = (
{
name = bottom;
position = "{298, 0}";
},
{
name = ogonek;
position = "{565, 10}";
},
{
name = top;
position = "{408, 723}";
}
);
background = {
anchors = (
{
name = bottom;
position = "{350, 0}";
},
{
name = ogonek;
position = "{624, 10}";
},
{
name = top;
position = "{350, 742}";
}
);
paths = (
{
closed = 1;
nodes = (
"66 25 LINE SMOOTH",
"66 8 OFFCURVE",
"73 0 OFFCURVE",
"93 0 CURVE SMOOTH",
"628 0 LINE SMOOTH",
"645 0 OFFCURVE",
"652 10 OFFCURVE",
"652 22 CURVE SMOOTH",
"652 145 LINE SMOOTH",
"652 159 OFFCURVE",
"644 164 OFFCURVE",
"630 164 CURVE SMOOTH",
"305 164 LINE SMOOTH",
"296 164 OFFCURVE",
"293 167 OFFCURVE",
"293 178 CURVE SMOOTH",
"293 278 LINE SMOOTH",
"293 286 OFFCURVE",
"299 292 OFFCURVE",
"309 292 CURVE SMOOTH",
"494 292 LINE SMOOTH",
"507 292 OFFCURVE",
"512 300 OFFCURVE",
"512 309 CURVE SMOOTH",
"512 433 LINE SMOOTH",
"512 446 OFFCURVE",
"505 453 OFFCURVE",
"491 453 CURVE SMOOTH",
"311 453 LINE SMOOTH",
"301 453 OFFCURVE",
"293 460 OFFCURVE",
"293 474 CURVE SMOOTH",
"293 559 LINE SMOOTH",
"293 572 OFFCURVE",
"301 578 OFFCURVE",
"316 578 CURVE SMOOTH",
"616 578 LINE SMOOTH",
"634 578 OFFCURVE",
"642 589 OFFCURVE",
"642 605 CURVE SMOOTH",
"643 721 LINE SMOOTH",
"643 734 OFFCURVE",
"637 742 OFFCURVE",
"625 742 CURVE SMOOTH",
"85 742 LINE SMOOTH",
"73 742 OFFCURVE",
"66 734 OFFCURVE",
"66 719 CURVE SMOOTH"
);
}
);
};
layerId = "258ED206-D907-4350-8EBA-CBDDA1C16BF7";
paths = (
{
closed = 1;
nodes = (
"564 0 LINE",
"589 162 LINE",
"251 162 LINE",
"270 285 LINE",
"551 285 LINE",
"575 442 LINE",
"295 442 LINE",
"313 562 LINE",
"648 562 LINE",
"673 723 LINE",
"143 723 LINE",
"33 0 LINE"
);
}
);
width = 662;
},
{
anchors = (
{
name = bottom;
position = "{289, 0}";
},
{
name = ogonek;
position = "{463, 10}";
},
{
name = top;
position = "{366, 723}";
}
);
background = {
anchors = (
{
name = bottom;
position = "{355, 0}";
},
{
name = ogonek;
position = "{540, 10}";
},
{
name = top;
position = "{336, 742}";
}
);
paths = (
{
closed = 1;
nodes = (
"105 10 LINE SMOOTH",
"105 2 OFFCURVE",
"107 0 OFFCURVE",
"114 0 CURVE SMOOTH",
"544 0 LINE SMOOTH",
"549 0 OFFCURVE",
"551 2 OFFCURVE",
"551 7 CURVE SMOOTH",
"551 33 LINE SMOOTH",
"551 39 OFFCURVE",
"549 40 OFFCURVE",
"543 40 CURVE SMOOTH",
"160 40 LINE SMOOTH",
"153 40 OFFCURVE",
"151 41 OFFCURVE",
"151 49 CURVE SMOOTH",
"151 346 LINE SMOOTH",
"151 354 OFFCURVE",
"153 355 OFFCURVE",
"160 355 CURVE SMOOTH",
"448 355 LINE SMOOTH",
"454 355 OFFCURVE",
"456 356 OFFCURVE",
"456 362 CURVE SMOOTH",
"456 388 LINE SMOOTH",
"456 393 OFFCURVE",
"454 395 OFFCURVE",
"449 395 CURVE SMOOTH",
"160 395 LINE SMOOTH",
"153 395 OFFCURVE",
"151 396 OFFCURVE",
"151 402 CURVE SMOOTH",
"151 693 LINE SMOOTH",
"151 701 OFFCURVE",
"153 702 OFFCURVE",
"160 702 CURVE SMOOTH",
"528 702 LINE SMOOTH",
"534 702 OFFCURVE",
"536 703 OFFCURVE",
"536 709 CURVE SMOOTH",
"536 735 LINE SMOOTH",
"536 740 OFFCURVE",
"534 742 OFFCURVE",
"529 742 CURVE SMOOTH",
"114 742 LINE SMOOTH",
"107 742 OFFCURVE",
"105 740 OFFCURVE",
"105 732 CURVE SMOOTH"
);
}
);
};
layerId = "91AB5BCA-6A50-42DA-B2F7-8181BF189245";
paths = (
{
closed = 1;
nodes = (
"466 0 LINE",
"472 41 LINE",
"113 42 LINE",
"156 345 LINE",
"478 345 LINE",
"483 386 LINE",
"161 386 LINE",
"203 683 LINE",
"549 683 LINE",
"555 723 LINE",
"173 723 LINE",
"71 0 LINE"
);
}
);
width = 573;
}
);
leftKerningGroup = N;
leftMetricsKey = N;
rightKerningGroup = E;
unicode = 0045;
},
{
glyphname = F;
lastChange = "2019-04-15 22:22:15 +0000";
layers = (
{
background = {
paths = (
{
closed = 1;
nodes = (
"50 25 LINE SMOOTH",
"50 8 OFFCURVE",
"56 0 OFFCURVE",
"77 0 CURVE",
"244 0 LINE SMOOTH",
"267 0 OFFCURVE",
"277 8 OFFCURVE",
"277 29 CURVE SMOOTH",
"277 271 LINE SMOOTH",
"277 280 OFFCURVE",
"283 286 OFFCURVE",
"293 286 CURVE SMOOTH",
"480 286 LINE SMOOTH",
"494 286 OFFCURVE",
"498 293 OFFCURVE",
"498 303 CURVE SMOOTH",
"498 425 LINE SMOOTH",
"498 438 OFFCURVE",
"492 445 OFFCURVE",
"478 445 CURVE SMOOTH",
"295 445 LINE SMOOTH",
"284 445 OFFCURVE",
"277 451 OFFCURVE",
"277 465 CURVE SMOOTH",
"277 559 LINE SMOOTH",
"277 572 OFFCURVE",
"284 578 OFFCURVE",
"300 578 CURVE SMOOTH",
"594 578 LINE SMOOTH",
"612 578 OFFCURVE",
"619 589 OFFCURVE",
"619 605 CURVE SMOOTH",
"620 721 LINE SMOOTH",
"620 734 OFFCURVE",
"614 742 OFFCURVE",
"602 742 CURVE SMOOTH",
"69 742 LINE SMOOTH",
"58 742 OFFCURVE",
"50 734 OFFCURVE",
"50 719 CURVE SMOOTH"
);
}
);
};
layerId = "258ED206-D907-4350-8EBA-CBDDA1C16BF7";
paths = (
{
closed = 1;
nodes = (
"227 0 LINE",
"269 279 LINE",
"546 279 LINE",
"570 434 LINE",
"292 434 LINE",
"312 564 LINE",
"644 564 LINE",
"669 723 LINE",
"143 723 LINE",
"33 0 LINE"
);
}
);
width = 634;
},
{
background = {
paths = (
{
closed = 1;
nodes = (
"109 10 LINE SMOOTH",
"109 2 OFFCURVE",
"111 0 OFFCURVE",
"118 0 CURVE SMOOTH",
"148 0 LINE SMOOTH",
"153 0 OFFCURVE",
"155 2 OFFCURVE",
"155 7 CURVE SMOOTH",
"155 333 LINE SMOOTH",
"155 341 OFFCURVE",
"157 342 OFFCURVE",
"164 342 CURVE SMOOTH",
"462 342 LINE SMOOTH",
"468 342 OFFCURVE",
"470 343 OFFCURVE",
"470 349 CURVE SMOOTH",
"470 375 LINE SMOOTH",
"470 380 OFFCURVE",
"468 382 OFFCURVE",
"463 382 CURVE SMOOTH",
"164 382 LINE SMOOTH",
"157 382 OFFCURVE",
"155 383 OFFCURVE",
"155 389 CURVE SMOOTH",
"155 693 LINE SMOOTH",
"155 701 OFFCURVE",
"157 702 OFFCURVE",
"164 702 CURVE SMOOTH",
"522 702 LINE SMOOTH",
"528 702 OFFCURVE",
"530 703 OFFCURVE",
"530 709 CURVE SMOOTH",
"530 735 LINE SMOOTH",
"530 740 OFFCURVE",
"528 742 OFFCURVE",
"523 742 CURVE SMOOTH",
"118 742 LINE SMOOTH",
"111 742 OFFCURVE",
"109 740 OFFCURVE",
"109 732 CURVE SMOOTH"
);
}
);
};
layerId = "91AB5BCA-6A50-42DA-B2F7-8181BF189245";
paths = (
{
closed = 1;
nodes = (
"110 0 LINE",
"159 346 LINE",
"472 346 LINE",
"477 387 LINE",
"165 387 LINE",
"206 683 LINE",
"543 683 LINE",
"548 723 LINE",
"172 723 LINE",
"71 0 LINE"
);
}
);
width = 528;
}
);
leftKerningGroup = N;
leftMetricsKey = N;
rightKerningGroup = E;
unicode = 0046;
},
{
glyphname = G;
lastChange = "2019-04-15 22:07:59 +0000";
layers = (
{
anchors = (
{
name = bottom;
position = "{346, 0}";
},
{
name = top;
position = "{460, 723}";
}
);
background = {
anchors = (
{
name = bottom;
position = "{399, 0}";
},
{
name = top;
position = "{399, 742}";
}
);
paths = (
{
closed = 1;
nodes = (
"515 -10 OFFCURVE",
"566 40 OFFCURVE",
"602 75 CURVE SMOOTH",
"607 81 OFFCURVE",
"610 81 OFFCURVE",
"613 77 CURVE SMOOTH",
"653 19 LINE SMOOTH",
"663 5 OFFCURVE",
"673 0 OFFCURVE",
"685 0 CURVE SMOOTH",
"723 0 LINE SMOOTH",
"733 0 OFFCURVE",
"740 8 OFFCURVE",
"740 17 CURVE SMOOTH",
"740 344 LINE SMOOTH",
"740 362 OFFCURVE",
"727 375 OFFCURVE",
"702 375 CURVE SMOOTH",
"422 377 LINE SMOOTH",
"407 377 OFFCURVE",
"401 370 OFFCURVE",
"401 360 CURVE SMOOTH",
"401 264 LINE SMOOTH",
"401 247 OFFCURVE",
"407 242 OFFCURVE",
"421 242 CURVE SMOOTH",
"515 242 LINE SMOOTH",
"525 242 OFFCURVE",
"528 236 OFFCURVE",
"524 225 CURVE",
"521 216 LINE",
"503 170 OFFCURVE",
"469 146 OFFCURVE",
"413 146 CURVE SMOOTH",
"337 146 OFFCURVE",
"285 193 OFFCURVE",
"285 374 CURVE SMOOTH",
"285 544 OFFCURVE",
"331 597 OFFCURVE",
"405 597 CURVE SMOOTH",
"477 597 OFFCURVE",
"512 547 OFFCURVE",
"522 492 CURVE SMOOTH",
"525 479 OFFCURVE",
"526 472 OFFCURVE",
"542 472 CURVE SMOOTH",
"713 498 LINE SMOOTH",
"729 500 OFFCURVE",
"733 505 OFFCURVE",
"727 533 CURVE SMOOTH",
"703 640 OFFCURVE",
"590 752 OFFCURVE",
"410 752 CURVE SMOOTH",
"196 752 OFFCURVE",
"47 599 OFFCURVE",
"47 368 CURVE SMOOTH",
"47 145 OFFCURVE",
"186 -10 OFFCURVE",
"397 -10 CURVE SMOOTH"
);
}
);
};
layerId = "258ED206-D907-4350-8EBA-CBDDA1C16BF7";
paths = (
{
closed = 1;
nodes = (
"461 -10 OFFCURVE",
"519 43 OFFCURVE",
"561 80 CURVE",
"549 0 LINE",
"676 0 LINE",
"734 382 LINE",
"405 384 LINE",
"385 253 LINE",
"510 253 LINE",
"498 227 LINE",
"483 194 OFFCURVE",
"438 159 OFFCURVE",
"383 159 CURVE SMOOTH",
"321 159 OFFCURVE",
"243 188 OFFCURVE",
"270 365 CURVE SMOOTH",
"294 521 OFFCURVE",
"366 572 OFFCURVE",
"438 572 CURVE SMOOTH",
"505 572 OFFCURVE",
"535 527 OFFCURVE",
"539 468 CURVE",
"741 468 LINE",
"759 603 OFFCURVE",
"660 733 OFFCURVE",
"467 733 CURVE SMOOTH",
"260 733 OFFCURVE",
"93 584 OFFCURVE",
"59 359 CURVE SMOOTH",
"25 141 OFFCURVE",
"138 -10 OFFCURVE",
"342 -10 CURVE SMOOTH"
);
}
);
width = 781;
},
{
anchors = (
{
name = bottom;
position = "{297, 0}";
},
{
name = top;
position = "{400, 723}";
}
);
background = {
anchors = (
{
name = bottom;
position = "{365, 0}";
},
{
name = top;
position = "{360, 742}";
}
);
paths = (
{
closed = 1;
nodes = (
"470 -10 OFFCURVE",
"543 45 OFFCURVE",
"582 115 CURVE SMOOTH",
"586 122 OFFCURVE",
"590 121 OFFCURVE",
"590 115 CURVE SMOOTH",
"590 9 LINE SMOOTH",
"590 0 OFFCURVE",
"595 0 OFFCURVE",
"603 0 CURVE SMOOTH",
"620 0 LINE SMOOTH",
"627 0 OFFCURVE",
"630 2 OFFCURVE",
"630 11 CURVE SMOOTH",
"630 371 LINE SMOOTH",
"630 375 OFFCURVE",
"628 377 OFFCURVE",
"624 377 CURVE SMOOTH",
"388 377 LINE SMOOTH",
"385 377 OFFCURVE",
"383 375 OFFCURVE",
"383 371 CURVE SMOOTH",
"383 348 LINE SMOOTH",
"383 344 OFFCURVE",
"385 342 OFFCURVE",
"390 342 CURVE SMOOTH",
"579 342 LINE SMOOTH",
"585 342 OFFCURVE",
"590 341 OFFCURVE",
"590 334 CURVE SMOOTH",
"590 255 LINE SMOOTH",
"590 161 OFFCURVE",
"518 32 OFFCURVE",
"360 32 CURVE SMOOTH",
"197 32 OFFCURVE",
"112 153 OFFCURVE",
"112 374 CURVE SMOOTH",
"112 584 OFFCURVE",
"199 710 OFFCURVE",
"360 710 CURVE SMOOTH",
"466 710 OFFCURVE",
"551 640 OFFCURVE",
"567 551 CURVE SMOOTH",
"568 546 OFFCURVE",
"571 544 OFFCURVE",
"574 545 CURVE SMOOTH",
"609 551 LINE SMOOTH",
"614 552 OFFCURVE",
"614 555 OFFCURVE",
"614 559 CURVE SMOOTH",
"602 663 OFFCURVE",
"483 752 OFFCURVE",
"360 752 CURVE SMOOTH",
"179 752 OFFCURVE",
"64 614 OFFCURVE",
"64 368 CURVE SMOOTH",
"64 129 OFFCURVE",
"174 -10 OFFCURVE",
"359 -10 CURVE SMOOTH"
);
}
);
};
layerId = "91AB5BCA-6A50-42DA-B2F7-8181BF189245";
paths = (
{
closed = 1;
nodes = (
"399 -10 OFFCURVE",
"475 50 OFFCURVE",
"522 126 CURVE",
"504 0 LINE",
"540 0 LINE",
"592 368 LINE",
"370 368 LINE",
"365 333 LINE",
"551 333 LINE",
"539 249 LINE SMOOTH",
"526 157 OFFCURVE",
"444 29 OFFCURVE",
"302 29 CURVE SMOOTH",
"156 29 OFFCURVE",
"91 149 OFFCURVE",
"121 365 CURVE SMOOTH",
"150 569 OFFCURVE",
"251 692 OFFCURVE",
"395 692 CURVE SMOOTH",
"491 692 OFFCURVE",
"557 621 OFFCURVE",
"558 530 CURVE",
"602 538 LINE",
"607 644 OFFCURVE",
"512 733 OFFCURVE",
"401 733 CURVE SMOOTH",
"238 733 OFFCURVE",
"116 599 OFFCURVE",
"83 359 CURVE SMOOTH",
"50 126 OFFCURVE",
"129 -10 OFFCURVE",
"296 -10 CURVE SMOOTH"
);
}
);
width = 669;
}
);
leftKerningGroup = O;
leftMetricsKey = O;
rightKerningGroup = G;
unicode = 0047;
},
{
glyphname = H;
lastChange = "2019-04-15 22:22:15 +0000";
layers = (
{
anchors = (
{
name = bottom;
position = "{331, 0}";
},
{
name = top;
position = "{445, 723}";
}
);
background = {
anchors = (
{
name = bottom;
position = "{384, 0}";
},
{
name = top;
position = "{386, 742}";
}
);
paths = (
{
closed = 1;
nodes = (
"483 297 OFFCURVE",
"489 290 OFFCURVE",
"489 282 CURVE SMOOTH",
"489 29 LINE SMOOTH",
"489 8 OFFCURVE",
"499 0 OFFCURVE",
"522 0 CURVE SMOOTH",
"689 0 LINE SMOOTH",
"710 0 OFFCURVE",
"716 8 OFFCURVE",
"716 25 CURVE SMOOTH",
"716 719 LINE SMOOTH",
"716 734 OFFCURVE",
"708 742 OFFCURVE",
"697 742 CURVE SMOOTH",
"507 742 LINE SMOOTH",
"496 742 OFFCURVE",
"489 734 OFFCURVE",
"489 721 CURVE SMOOTH",
"489 489 LINE SMOOTH",
"489 476 OFFCURVE",
"482 469 OFFCURVE",
"471 469 CURVE SMOOTH",
"303 469 LINE SMOOTH",
"292 469 OFFCURVE",
"285 476 OFFCURVE",
"285 489 CURVE SMOOTH",
"285 721 LINE SMOOTH",
"285 734 OFFCURVE",
"278 742 OFFCURVE",
"267 742 CURVE SMOOTH",
"77 742 LINE SMOOTH",
"66 742 OFFCURVE",
"58 734 OFFCURVE",
"58 719 CURVE SMOOTH",
"58 25 LINE SMOOTH",
"58 8 OFFCURVE",
"64 0 OFFCURVE",
"85 0 CURVE SMOOTH",
"252 0 LINE SMOOTH",
"275 0 OFFCURVE",
"285 8 OFFCURVE",
"285 29 CURVE SMOOTH",
"285 282 LINE SMOOTH",
"285 290 OFFCURVE",
"291 297 OFFCURVE",
"301 297 CURVE SMOOTH",
"473 297 LINE SMOOTH"
);
}
);
};
layerId = "258ED206-D907-4350-8EBA-CBDDA1C16BF7";
paths = (
{
closed = 1;
nodes = (
"227 0 LINE",
"271 290 LINE",
"488 290 LINE",
"444 0 LINE",
"638 0 LINE",
"748 723 LINE",
"554 723 LINE",
"513 449 LINE",
"295 449 LINE",
"337 723 LINE",
"143 723 LINE",
"33 0 LINE"
);
}
);
width = 752;
},
{
anchors = (
{
name = bottom;
position = "{291, 0}";
},
{
name = top;
position = "{393, 723}";
}
);
background = {
anchors = (
{
name = bottom;
position = "{352, 0}";
},
{
name = top;
position = "{352, 742}";
}
);
paths = (
{
closed = 1;
nodes = (
"552 366 OFFCURVE",
"554 364 OFFCURVE",
"554 359 CURVE SMOOTH",
"554 9 LINE SMOOTH",
"554 2 OFFCURVE",
"557 0 OFFCURVE",
"564 0 CURVE SMOOTH",
"591 0 LINE SMOOTH",
"597 0 OFFCURVE",
"600 3 OFFCURVE",
"600 10 CURVE SMOOTH",
"600 732 LINE SMOOTH",
"600 740 OFFCURVE",
"598 742 OFFCURVE",
"591 742 CURVE SMOOTH",
"562 742 LINE SMOOTH",
"556 742 OFFCURVE",
"554 739 OFFCURVE",
"554 733 CURVE SMOOTH",
"554 414 LINE SMOOTH",
"554 408 OFFCURVE",
"552 406 OFFCURVE",
"546 406 CURVE SMOOTH",
"158 406 LINE SMOOTH",
"151 406 OFFCURVE",
"149 407 OFFCURVE",
"149 415 CURVE SMOOTH",
"149 732 LINE SMOOTH",
"149 740 OFFCURVE",
"147 742 OFFCURVE",
"140 742 CURVE SMOOTH",
"112 742 LINE SMOOTH",
"105 742 OFFCURVE",
"103 740 OFFCURVE",
"103 732 CURVE SMOOTH",
"103 10 LINE SMOOTH",
"103 3 OFFCURVE",
"105 0 OFFCURVE",
"112 0 CURVE SMOOTH",
"139 0 LINE SMOOTH",
"146 0 OFFCURVE",
"149 3 OFFCURVE",
"149 9 CURVE SMOOTH",
"149 360 LINE SMOOTH",
"149 363 OFFCURVE",
"151 366 OFFCURVE",
"155 366 CURVE SMOOTH",
"547 366 LINE SMOOTH"
);
}
);
};
layerId = "91AB5BCA-6A50-42DA-B2F7-8181BF189245";
paths = (
{
closed = 1;
nodes = (
"107 0 LINE",
"157 356 LINE",
"524 356 LINE",
"474 0 LINE",
"510 0 LINE",
"612 723 LINE",
"576 723 LINE",
"530 397 LINE",
"163 397 LINE",
"209 723 LINE",
"173 723 LINE",
"71 0 LINE"
);
}
);
width = 649;
}
);
leftKerningGroup = N;
leftMetricsKey = N;
rightKerningGroup = N;
rightMetricsKey = N;
unicode = 0048;
},
{
glyphname = Hbar;
lastChange = "2019-04-15 22:22:15 +0000";
layers = (
{
background = {
components = (
{
name = H;
transform = "{1, 0, 0, 1, 36, 0}";
}
);
paths = (
{
closed = 1;
nodes = (
"779 635 OFFCURVE",
"773 642 OFFCURVE",
"763 642 CURVE SMOOTH",
"15 642 LINE SMOOTH",
"6 642 OFFCURVE",
"0 635 OFFCURVE",
"0 622 CURVE SMOOTH",
"0 563 LINE SMOOTH",
"0 548 OFFCURVE",
"5 541 OFFCURVE",
"21 541 CURVE SMOOTH",
"751 541 LINE SMOOTH",
"770 541 OFFCURVE",
"779 548 OFFCURVE",
"779 565 CURVE SMOOTH",
"779 624 LINE SMOOTH"
);
}
);
};
components = (
{
name = H;
transform = "{1, 0, 0, 1, 36, 0}";
}
);
layerId = "258ED206-D907-4350-8EBA-CBDDA1C16BF7";
paths = (
{
closed = 1;
nodes = (
"834 541 LINE",
"849 642 LINE",
"75 642 LINE",
"60 541 LINE"
);
}
);
width = 815;
},
{
background = {
components = (
{
name = H;
transform = "{1, 0, 0, 1, 48, 0}";
}
);
paths = (
{
closed = 1;
nodes = (
"736 600 OFFCURVE",
"734 603 OFFCURVE",
"730 603 CURVE SMOOTH",
"64 603 LINE SMOOTH",
"59 603 OFFCURVE",
"57 600 OFFCURVE",
"57 594 CURVE SMOOTH",
"57 573 LINE SMOOTH",
"57 566 OFFCURVE",
"59 564 OFFCURVE",
"67 564 CURVE SMOOTH",
"724 564 LINE SMOOTH",
"733 564 OFFCURVE",
"736 566 OFFCURVE",
"736 574 CURVE SMOOTH",
"736 595 LINE SMOOTH"
);
}
);
};
components = (
{
name = H;
transform = "{1, 0, 0, 1, 48, 0}";
}
);
layerId = "91AB5BCA-6A50-42DA-B2F7-8181BF189245";
paths = (
{
closed = 1;
nodes = (
"706 564 LINE",
"712 603 LINE",
"87 603 LINE",
"81 564 LINE"
);
}
);
width = 702;
}
);
leftKerningGroup = N;
rightKerningGroup = N;
unicode = 0126;
},
{
glyphname = I;
lastChange = "2019-04-15 22:22:15 +0000";
layers = (
{
anchors = (
{
name = bottom;
position = "{140, 0}";
},
{
name = ogonek;
position = "{203, 3}";
},
{
name = top;
position = "{240, 723}";
}
);
background = {
anchors = (
{
name = bottom;
position = "{191, 0}";
},
{
name = ogonek;
position = "{273, 10}";
},
{
name = top;
position = "{192, 742}";
}
);
paths = (
{
closed = 1;
nodes = (
"86 742 OFFCURVE",
"78 734 OFFCURVE",
"78 719 CURVE SMOOTH",
"78 25 LINE SMOOTH",
"78 8 OFFCURVE",
"84 0 OFFCURVE",
"105 0 CURVE SMOOTH",
"272 0 LINE SMOOTH",
"295 0 OFFCURVE",
"305 8 OFFCURVE",
"305 29 CURVE SMOOTH",
"305 721 LINE SMOOTH",
"305 734 OFFCURVE",
"299 742 OFFCURVE",
"287 742 CURVE SMOOTH",
"97 742 LINE SMOOTH"
);
}
);
};
layerId = "258ED206-D907-4350-8EBA-CBDDA1C16BF7";
paths = (
{
closed = 1;
nodes = (
"227 0 LINE",
"336 723 LINE",
"142 723 LINE",
"33 0 LINE"
);
}
);
width = 340;
},
{
anchors = (
{
name = bottom;
position = "{90, 0}";
},
{
name = ogonek;
position = "{103, 10}";
},
{
name = top;
position = "{191, 723}";
}
);
background = {
anchors = (
{
name = bottom;
position = "{145, 0}";
},
{
name = ogonek;
position = "{157, 10}";
},
{
name = top;
position = "{148, 742}";
}
);
paths = (
{
closed = 1;
nodes = (
"124 742 OFFCURVE",
"122 740 OFFCURVE",
"122 732 CURVE SMOOTH",
"122 10 LINE SMOOTH",
"122 2 OFFCURVE",
"124 0 OFFCURVE",
"133 0 CURVE SMOOTH",
"156 0 LINE SMOOTH",
"166 0 OFFCURVE",
"168 2 OFFCURVE",
"168 12 CURVE SMOOTH",
"168 732 LINE SMOOTH",
"168 740 OFFCURVE",
"166 742 OFFCURVE",
"159 742 CURVE SMOOTH",
"131 742 LINE SMOOTH"
);
}
);
};
layerId = "91AB5BCA-6A50-42DA-B2F7-8181BF189245";
paths = (
{
closed = 1;
nodes = (
"107 0 LINE",
"208 723 LINE",
"172 723 LINE",
"71 0 LINE"
);
}
);
width = 245;
}
);
leftKerningGroup = N;
leftMetricsKey = N;
rightKerningGroup = N;
rightMetricsKey = N;
unicode = 0049;
},
{
glyphname = J;
lastChange = "2019-04-15 22:22:15 +0000";
layers = (
{
anchors = (
{
name = top;
position = "{340, 723}";
}
);
background = {
anchors = (
{
name = top;
position = "{235, 742}";
}
);
paths = (
{
closed = 1;
nodes = (
"412 721 LINE SMOOTH",
"412 734 OFFCURVE",
"406 742 OFFCURVE",
"394 742 CURVE SMOOTH",
"205 742 LINE SMOOTH",
"193 742 OFFCURVE",
"185 734 OFFCURVE",
"185 719 CURVE SMOOTH",
"185 268 LINE SMOOTH",
"185 200 OFFCURVE",
"156 175 OFFCURVE",
"107 175 CURVE SMOOTH",
"85 175 OFFCURVE",
"68 180 OFFCURVE",
"52 182 CURVE SMOOTH",
"36 184 OFFCURVE",
"29 174 OFFCURVE",
"28 159 CURVE SMOOTH",
"19 45 LINE SMOOTH",
"17 17 OFFCURVE",
"27 6 OFFCURVE",
"50 2 CURVE SMOOTH",
"95 -6 OFFCURVE",
"133 -10 OFFCURVE",
"174 -10 CURVE SMOOTH",
"330 -10 OFFCURVE",
"412 48 OFFCURVE",
"412 212 CURVE SMOOTH"
);
}
);
};
layerId = "258ED206-D907-4350-8EBA-CBDDA1C16BF7";
paths = (
{
closed = 1;
nodes = (
"291 -10 OFFCURVE",
"342 69 OFFCURVE",
"366 229 CURVE SMOOTH",
"441 723 LINE",
"248 723 LINE",
"180 279 LINE SMOOTH",
"169 204 OFFCURVE",
"147 170 OFFCURVE",
"78 170 CURVE SMOOTH",
"57 170 OFFCURVE",
"33 173 OFFCURVE",
"15 175 CURVE",
"-11 0 LINE",
"18 -6 OFFCURVE",
"77 -10 OFFCURVE",
"118 -10 CURVE SMOOTH"
);
}
);
width = 431;
},
{
anchors = (
{
name = top;
position = "{283, 723}";
}
);
background = {
anchors = (
{
name = top;
position = "{249, 742}";
}
);
paths = (
{
closed = 1;
nodes = (
"272 732 LINE SMOOTH",
"272 739 OFFCURVE",
"270 742 OFFCURVE",
"264 742 CURVE SMOOTH",
"234 742 LINE SMOOTH",
"228 742 OFFCURVE",
"226 739 OFFCURVE",
"226 733 CURVE SMOOTH",
"226 154 LINE SMOOTH",
"226 61 OFFCURVE",
"204 34 OFFCURVE",
"139 34 CURVE SMOOTH",
"90 34 OFFCURVE",
"68 49 OFFCURVE",
"47 59 CURVE SMOOTH",
"43 61 OFFCURVE",
"40 60 OFFCURVE",
"39 55 CURVE SMOOTH",
"30 24 LINE SMOOTH",
"29 20 OFFCURVE",
"31 17 OFFCURVE",
"34 15 CURVE SMOOTH",
"41 10 OFFCURVE",
"86 -10 OFFCURVE",
"141 -10 CURVE SMOOTH",
"238 -10 OFFCURVE",
"272 49 OFFCURVE",
"272 144 CURVE SMOOTH"
);
}
);
};
layerId = "91AB5BCA-6A50-42DA-B2F7-8181BF189245";
paths = (
{
closed = 1;
nodes = (
"172 -10 OFFCURVE",
"206 48 OFFCURVE",
"219 140 CURVE SMOOTH",
"301 723 LINE",
"265 723 LINE",
"185 154 LINE SMOOTH",
"173 63 OFFCURVE",
"148 31 OFFCURVE",
"90 31 CURVE SMOOTH",
"43 31 OFFCURVE",
"23 52 OFFCURVE",
"4 62 CURVE",
"-11 19 LINE",
"-6 13 OFFCURVE",
"34 -10 OFFCURVE",
"86 -10 CURVE SMOOTH"
);
}
);
width = 343;
}
);
leftKerningGroup = J;
rightKerningGroup = N;
rightMetricsKey = U;
unicode = 004A;
},
{
glyphname = K;
lastChange = "2019-04-15 22:22:15 +0000";
layers = (
{
anchors = (
{
name = bottom;
position = "{324, 0}";
},
{
name = top;
position = "{446, 723}";
}
);
background = {
anchors = (
{
name = bottom;
position = "{375, 0}";
},
{
name = top;
position = "{375, 742}";
}
);
paths = (
{
closed = 1;
nodes = (
"531 480 LINE SMOOTH",
"525 494 OFFCURVE",
"526 501 OFFCURVE",
"534 512 CURVE SMOOTH",
"698 713 LINE SMOOTH",
"711 728 OFFCURVE",
"699 742 OFFCURVE",
"677 742 CURVE SMOOTH",
"525 742 LINE SMOOTH",
"501 742 OFFCURVE",
"493 736 OFFCURVE",
"482 721 CURVE SMOOTH",
"298 463 LINE",
"290 453 OFFCURVE",
"283 452 OFFCURVE",
"283 468 CURVE SMOOTH",
"283 721 LINE SMOOTH",
"283 734 OFFCURVE",
"277 742 OFFCURVE",
"265 742 CURVE SMOOTH",
"75 742 LINE SMOOTH",
"64 742 OFFCURVE",
"56 734 OFFCURVE",
"56 719 CURVE SMOOTH",
"56 25 LINE SMOOTH",
"56 8 OFFCURVE",
"62 0 OFFCURVE",
"83 0 CURVE SMOOTH",
"250 0 LINE SMOOTH",
"273 0 OFFCURVE",
"283 8 OFFCURVE",
"283 29 CURVE SMOOTH",
"283 180 LINE SMOOTH",
"283 190 OFFCURVE",
"284 196 OFFCURVE",
"289 202 CURVE SMOOTH",
"360 293 LINE SMOOTH",
"370 306 OFFCURVE",
"376 308 OFFCURVE",
"382 298 CURVE SMOOTH",
"504 20 LINE SMOOTH",
"511 5 OFFCURVE",
"523 0 OFFCURVE",
"540 0 CURVE SMOOTH",
"735 0 LINE SMOOTH",
"755 0 OFFCURVE",
"757 15 OFFCURVE",
"749 31 CURVE SMOOTH"
);
}
);
};
guideLines = (
{
angle = 54.4985;
position = "{689, 670}";
},
{
angle = -62.8805;
position = "{376, 283}";
}
);
hints = (
{
horizontal = 1;
origin = "{0, 11}";
target = up;
type = BottomGhost;
},
{
horizontal = 1;
origin = "{0, 10}";
target = down;
type = TopGhost;
},
{
place = "{31, 169}";
type = Stem;
}
);
layerId = "258ED206-D907-4350-8EBA-CBDDA1C16BF7";
paths = (
{
closed = 1;
nodes = (
"234 0 LINE",
"263 189 LINE",
"370 305 LINE",
"484 0 LINE",
"691 0 LINE",
"529 447 LINE",
"769 723 LINE",
"552 723 LINE",
"300 431 LINE",
"344 723 LINE",
"143 723 LINE",
"33 0 LINE"
);
}
);
width = 748;
},
{
anchors = (
{
name = bottom;
position = "{275, 0}";
},
{
name = top;
position = "{393, 723}";
}
);
background = {
anchors = (
{
name = bottom;
position = "{335, 0}";
},
{
name = top;
position = "{365, 742}";
}
);
paths = (
{
closed = 1;
nodes = (
"335 445 LINE SMOOTH",
"333 449 OFFCURVE",
"333 449 OFFCURVE",
"335 451 CURVE SMOOTH",
"594 734 LINE SMOOTH",
"598 738 OFFCURVE",
"597 742 OFFCURVE",
"591 742 CURVE SMOOTH",
"553 742 LINE SMOOTH",
"547 742 OFFCURVE",
"545 741 OFFCURVE",
"542 738 CURVE SMOOTH",
"159 322 LINE SMOOTH",
"154 317 OFFCURVE",
"152 317 OFFCURVE",
"152 323 CURVE SMOOTH",
"152 734 LINE SMOOTH",
"152 740 OFFCURVE",
"149 742 OFFCURVE",
"144 742 CURVE SMOOTH",
"114 742 LINE SMOOTH",
"108 742 OFFCURVE",
"106 739 OFFCURVE",
"106 734 CURVE SMOOTH",
"106 9 LINE SMOOTH",
"106 2 OFFCURVE",
"109 0 OFFCURVE",
"116 0 CURVE SMOOTH",
"142 0 LINE SMOOTH",
"149 0 OFFCURVE",
"152 3 OFFCURVE",
"152 9 CURVE SMOOTH",
"152 246 LINE SMOOTH",
"152 254 OFFCURVE",
"154 257 OFFCURVE",
"160 263 CURVE SMOOTH",
"292 409 LINE SMOOTH",
"297 414 OFFCURVE",
"300 415 OFFCURVE",
"304 409 CURVE SMOOTH",
"562 5 LINE SMOOTH",
"564 2 OFFCURVE",
"568 0 OFFCURVE",
"573 0 CURVE SMOOTH",
"612 0 LINE SMOOTH",
"616 0 OFFCURVE",
"618 3 OFFCURVE",
"615 7 CURVE SMOOTH"
);
}
);
};
layerId = "91AB5BCA-6A50-42DA-B2F7-8181BF189245";
paths = (
{
closed = 1;
nodes = (
"109 0 LINE",
"144 248 LINE",
"298 407 LINE",
"480 0 LINE",
"527 0 LINE",
"333 438 LINE",
"613 723 LINE",
"564 723 LINE",
"152 306 LINE",
"210 723 LINE",
"173 723 LINE",
"71 0 LINE"
);
}
);
width = 601;
}
);
leftKerningGroup = N;
leftMetricsKey = N;
rightKerningGroup = K;
unicode = 004B;
},
{
glyphname = L;
lastChange = "2019-04-15 22:22:15 +0000";
layers = (
{
anchors = (
{
name = bottom;
position = "{270, 0}";
},
{
name = top;
position = "{235, 723}";
},
{
name = topright;
position = "{561, 723}";
}
);
background = {
anchors = (
{
name = bottom;
position = "{319, 0}";
},
{
name = top;
position = "{173, 742}";
},
{
name = topright;
position = "{515, 742}";
}
);
paths = (
{
closed = 1;
nodes = (
"57 25 LINE SMOOTH",
"57 8 OFFCURVE",
"63 0 OFFCURVE",
"84 0 CURVE SMOOTH",
"595 0 LINE SMOOTH",
"612 0 OFFCURVE",
"620 10 OFFCURVE",
"620 22 CURVE SMOOTH",
"620 145 LINE SMOOTH",
"620 159 OFFCURVE",
"611 164 OFFCURVE",
"597 164 CURVE SMOOTH",
"296 164 LINE SMOOTH",
"287 164 OFFCURVE",
"284 167 OFFCURVE",
"284 178 CURVE SMOOTH",
"284 721 LINE SMOOTH",
"284 734 OFFCURVE",
"278 742 OFFCURVE",
"266 742 CURVE SMOOTH",
"76 742 LINE SMOOTH",
"65 742 OFFCURVE",
"57 734 OFFCURVE",
"57 719 CURVE SMOOTH"
);
}
);
};
layerId = "258ED206-D907-4350-8EBA-CBDDA1C16BF7";
paths = (
{
closed = 1;
nodes = (
"514 0 LINE",
"538 160 LINE",
"251 160 LINE",
"336 723 LINE",
"143 723 LINE",
"33 0 LINE"
);
}
);
width = 577;
},
{
anchors = (
{
name = bottom;
position = "{255, 0}";
},
{
name = top;
position = "{193, 723}";
},
{
name = topright;
position = "{448, 723}";
}
);
background = {
anchors = (
{
name = bottom;
position = "{314, 0}";
},
{
name = top;
position = "{132, 742}";
},
{
name = topright;
position = "{418, 742}";
}
);
paths = (
{
closed = 1;
nodes = (
"109 10 LINE SMOOTH",
"109 3 OFFCURVE",
"111 0 OFFCURVE",
"118 0 CURVE",
"528 0 LINE",
"533 0 OFFCURVE",
"535 2 OFFCURVE",
"535 7 CURVE SMOOTH",
"535 33 LINE SMOOTH",
"535 39 OFFCURVE",
"533 40 OFFCURVE",
"527 40 CURVE SMOOTH",
"164 40 LINE SMOOTH",
"157 40 OFFCURVE",
"155 41 OFFCURVE",
"155 49 CURVE SMOOTH",
"155 732 LINE SMOOTH",
"155 740 OFFCURVE",
"153 742 OFFCURVE",
"146 742 CURVE SMOOTH",
"118 742 LINE SMOOTH",
"111 742 OFFCURVE",
"109 740 OFFCURVE",
"109 732 CURVE SMOOTH"
);
}
);
};
layerId = "91AB5BCA-6A50-42DA-B2F7-8181BF189245";
paths = (
{
closed = 1;
nodes = (
"450 0 LINE",
"456 43 LINE",
"116 43 LINE",
"212 723 LINE",
"173 723 LINE",
"71 0 LINE"
);
}
);
width = 519;
}
);
leftKerningGroup = N;
leftMetricsKey = N;
rightKerningGroup = L;
unicode = 004C;
},
{
glyphname = Lslash;
lastChange = "2019-04-15 22:22:15 +0000";
layers = (
{
background = {
components = (
{
name = L;
transform = "{1, 0, 0, 1, 46, 0}";
}
);
paths = (
{
closed = 1;
nodes = (
"463 536 OFFCURVE",
"456 543 OFFCURVE",
"439 538 CURVE SMOOTH",
"45 433 LINE SMOOTH",
"33 430 OFFCURVE",
"26 425 OFFCURVE",
"26 410 CURVE SMOOTH",
"26 293 LINE SMOOTH",
"26 277 OFFCURVE",
"32 270 OFFCURVE",
"51 276 CURVE SMOOTH",
"443 387 LINE SMOOTH",
"457 391 OFFCURVE",
"463 399 OFFCURVE",
"463 410 CURVE SMOOTH",
"463 521 LINE SMOOTH"
);
}
);
};
components = (
{
name = L;
transform = "{1, 0, 0, 1, 46, 0}";
}
);
layerId = "258ED206-D907-4350-8EBA-CBDDA1C16BF7";
paths = (
{
closed = 1;
nodes = (
"463 393 LINE",
"463 544 LINE",
"26 428 LINE",
"26 269 LINE"
);
}
);
width = 623;
},
{
background = {
components = (
{
name = L;
transform = "{1, 0, 0, 1, 10, 0}";
}
);
paths = (
{
closed = 1;
nodes = (
"332 425 OFFCURVE",
"330 427 OFFCURVE",
"325 426 CURVE SMOOTH",
"50 356 LINE SMOOTH",
"47 355 OFFCURVE",
"45 352 OFFCURVE",
"45 347 CURVE SMOOTH",
"45 324 LINE SMOOTH",
"45 319 OFFCURVE",
"47 318 OFFCURVE",
"52 319 CURVE SMOOTH",
"326 390 LINE SMOOTH",
"330 391 OFFCURVE",
"332 394 OFFCURVE",
"332 398 CURVE SMOOTH",
"332 421 LINE SMOOTH"
);
}
);
};
components = (
{
name = L;
transform = "{1, 0, 0, 1, 10, 0}";
}
);
layerId = "91AB5BCA-6A50-42DA-B2F7-8181BF189245";
paths = (
{
closed = 1;
nodes = (
"332 392 LINE",
"332 428 LINE",
"45 355 LINE",
"45 317 LINE"
);
}
);
width = 529;
}
);
leftKerningGroup = N;
rightKerningGroup = L;
rightMetricsKey = L;
unicode = 0141;
},
{
glyphname = M;
lastChange = "2019-04-15 22:07:59 +0000";
layers = (
{
background = {
paths = (
{
closed = 1;
nodes = (
"230 0 LINE SMOOTH",
"248 0 OFFCURVE",
"252 4 OFFCURVE",
"252 22 CURVE SMOOTH",
"252 464 LINE SMOOTH",
"252 477 OFFCURVE",
"259 481 OFFCURVE",
"264 465 CURVE SMOOTH",
"408 18 LINE SMOOTH",
"412 6 OFFCURVE",
"420 0 OFFCURVE",
"432 0 CURVE SMOOTH",
"537 0 LINE SMOOTH",
"548 0 OFFCURVE",
"557 7 OFFCURVE",
"561 18 CURVE SMOOTH",
"705 473 LINE SMOOTH",
"709 485 OFFCURVE",
"717 485 OFFCURVE",
"717 474 CURVE SMOOTH",
"717 25 LINE SMOOTH",
"717 8 OFFCURVE",
"723 0 OFFCURVE",
"743 0 CURVE SMOOTH",
"912 0 LINE SMOOTH",
"935 0 OFFCURVE",
"944 8 OFFCURVE",
"944 29 CURVE SMOOTH",
"944 721 LINE SMOOTH",
"944 734 OFFCURVE",
"938 742 OFFCURVE",
"926 742 CURVE SMOOTH",
"637 742 LINE SMOOTH",
"623 742 OFFCURVE",
"615 731 OFFCURVE",
"610 713 CURVE SMOOTH",
"517 406 LINE SMOOTH",
"514 397 OFFCURVE",
"508 395 OFFCURVE",
"504 406 CURVE SMOOTH",
"400 724 LINE SMOOTH",
"395 738 OFFCURVE",
"389 742 OFFCURVE",
"372 742 CURVE SMOOTH",
"92 742 LINE SMOOTH",
"77 742 OFFCURVE",
"71 735 OFFCURVE",
"71 719 CURVE SMOOTH",
"71 28 LINE SMOOTH",
"71 11 OFFCURVE",
"81 0 OFFCURVE",
"97 0 CURVE SMOOTH"
);
}
);
};
guideLines = (
{
angle = -105;
position = "{481, 261}";
},
{
angle = 105;
position = "{481, 261}";
}
);
layerId = "258ED206-D907-4350-8EBA-CBDDA1C16BF7";
paths = (
{
closed = 1;
nodes = (
"226 0 LINE",
"306 524 LINE",
"367 0 LINE",
"506 0 LINE",
"725 524 LINE",
"646 0 LINE",
"840 0 LINE",
"949 723 LINE",
"663 723 LINE",
"479 282 LINE",
"430 723 LINE",
"142 723 LINE",
"33 0 LINE"
);
}
);
width = 953;
},
{
background = {
guideLines = (
{
position = "{25, 566}";
showMeasurement = 1;
}
);
paths = (
{
closed = 1;
nodes = (
"130 0 LINE SMOOTH",
"137 0 OFFCURVE",
"140 3 OFFCURVE",
"140 9 CURVE SMOOTH",
"140 622 LINE SMOOTH",
"140 626 OFFCURVE",
"142 625 OFFCURVE",
"143 622 CURVE SMOOTH",
"387 10 LINE SMOOTH",
"390 3 OFFCURVE",
"395 0 OFFCURVE",
"406 0 CURVE SMOOTH",
"433 0 LINE SMOOTH",
"442 0 OFFCURVE",
"446 3 OFFCURVE",
"449 11 CURVE SMOOTH",
"698 627 LINE SMOOTH",
"699 630 OFFCURVE",
"701 632 OFFCURVE",
"701 627 CURVE SMOOTH",
"701 9 LINE SMOOTH",
"701 2 OFFCURVE",
"704 0 OFFCURVE",
"711 0 CURVE SMOOTH",
"738 0 LINE SMOOTH",
"744 0 OFFCURVE",
"747 3 OFFCURVE",
"747 10 CURVE SMOOTH",
"747 732 LINE SMOOTH",
"747 740 OFFCURVE",
"745 742 OFFCURVE",
"738 742 CURVE SMOOTH",
"709 742 LINE SMOOTH",
"703 742 OFFCURVE",
"700 740 OFFCURVE",
"698 735 CURVE SMOOTH",
"427 65 LINE SMOOTH",
"421 51 OFFCURVE",
"416 51 OFFCURVE",
"411 64 CURVE SMOOTH",
"144 734 LINE",
"142 740 OFFCURVE",
"139 742 OFFCURVE",
"131 742 CURVE SMOOTH",
"105 742 LINE SMOOTH",
"98 742 OFFCURVE",
"96 740 OFFCURVE",
"96 732 CURVE SMOOTH",
"96 10 LINE SMOOTH",
"96 3 OFFCURVE",
"98 0 OFFCURVE",
"105 0 CURVE SMOOTH"
);
}
);
};
guideLines = (
{
position = "{96, 525}";
showMeasurement = 1;
},
{
angle = 68.255;
position = "{378, 0}";
}
);
layerId = "91AB5BCA-6A50-42DA-B2F7-8181BF189245";
paths = (
{
closed = 1;
nodes = (
"110 0 LINE",
"196 608 LINE",
"334 0 LINE",
"387 0 LINE",
"700 616 LINE",
"613 0 LINE",
"653 0 LINE",
"754 723 LINE",
"715 723 LINE",
"366 44 LINE",
"213 723 LINE",
"172 723 LINE",
"71 0 LINE"
);
}
);
width = 791;
}
);
leftKerningGroup = N;
leftMetricsKey = N;
rightKerningGroup = N;
rightMetricsKey = N;
unicode = 004D;
},
{
glyphname = N;
lastChange = "2019-04-15 22:22:15 +0000";
layers = (
{
anchors = (
{
name = bottom;
position = "{367, 0}";
},
{
name = top;
position = "{477, 723}";
}
);
background = {
anchors = (
{
name = bottom;
position = "{421, 0}";
},
{
name = top;
position = "{421, 742}";
}
);
paths = (
{
closed = 1;
nodes = (
"574 742 OFFCURVE",
"567 734 OFFCURVE",
"567 721 CURVE SMOOTH",
"567 394 LINE SMOOTH",
"567 378 OFFCURVE",
"560 378 OFFCURVE",
"551 390 CURVE SMOOTH",
"311 724 LINE SMOOTH",
"300 739 OFFCURVE",
"294 742 OFFCURVE",
"277 742 CURVE SMOOTH",
"114 742 LINE SMOOTH",
"99 742 OFFCURVE",
"92 735 OFFCURVE",
"92 719 CURVE SMOOTH",
"92 20 LINE SMOOTH",
"92 5 OFFCURVE",
"102 0 OFFCURVE",
"117 0 CURVE SMOOTH",
"253 0 LINE SMOOTH",
"271 0 OFFCURVE",
"278 6 OFFCURVE",
"277 22 CURVE SMOOTH",
"277 386 LINE SMOOTH",
"277 393 OFFCURVE",
"282 395 OFFCURVE",
"287 388 CURVE SMOOTH",
"562 15 LINE SMOOTH",
"572 2 OFFCURVE",
"578 0 OFFCURVE",
"589 0 CURVE SMOOTH",
"726 0 LINE SMOOTH",
"739 0 OFFCURVE",
"749 7 OFFCURVE",
"749 18 CURVE SMOOTH",
"749 725 LINE SMOOTH",
"749 736 OFFCURVE",
"744 742 OFFCURVE",
"734 742 CURVE SMOOTH",
"589 742 LINE SMOOTH"
);
}
);
};
guideLines = (
{
angle = 125.0467;
position = "{549, 296}";
}
);
layerId = "258ED206-D907-4350-8EBA-CBDDA1C16BF7";
paths = (
{
closed = 1;
nodes = (
"227 0 LINE",
"292 431 LINE",
"527 0 LINE",
"702 0 LINE",
"812 723 LINE",
"618 723 LINE",
"557 320 LINE",
"338 723 LINE",
"143 723 LINE",
"33 0 LINE"
);
}
);
width = 816;
},
{
anchors = (
{
name = bottom;
position = "{282, 0}";
},
{
name = top;
position = "{406, 723}";
}
);
background = {
anchors = (
{
name = bottom;
position = "{347, 0}";
},
{
name = top;
position = "{382, 742}";
}
);
guideLines = (
{
position = "{36, 576}";
showMeasurement = 1;
}
);
paths = (
{
closed = 1;
nodes = (
"587 742 OFFCURVE",
"585 739 OFFCURVE",
"585 733 CURVE SMOOTH",
"585 107 LINE SMOOTH",
"585 101 OFFCURVE",
"578 95 OFFCURVE",
"571 105 CURVE SMOOTH",
"144 735 LINE SMOOTH",
"140 741 OFFCURVE",
"137 742 OFFCURVE",
"129 742 CURVE SMOOTH",
"111 742 LINE",
"104 742 OFFCURVE",
"102 740 OFFCURVE",
"102 732 CURVE SMOOTH",
"102 10 LINE SMOOTH",
"102 3 OFFCURVE",
"104 0 OFFCURVE",
"111 0 CURVE SMOOTH",
"136 0 LINE SMOOTH",
"143 0 OFFCURVE",
"146 3 OFFCURVE",
"146 9 CURVE SMOOTH",
"146 637 LINE SMOOTH",
"146 645 OFFCURVE",
"151 647 OFFCURVE",
"158 637 CURVE SMOOTH",
"586 6 LINE SMOOTH",
"591 -1 OFFCURVE",
"597 0 OFFCURVE",
"605 0 CURVE SMOOTH",
"620 0 LINE SMOOTH",
"626 0 OFFCURVE",
"629 3 OFFCURVE",
"629 10 CURVE SMOOTH",
"629 732 LINE SMOOTH",
"629 740 OFFCURVE",
"627 742 OFFCURVE",
"620 742 CURVE SMOOTH",
"593 742 LINE SMOOTH"
);
}
);
};
guideLines = (
{
position = "{107, 534}";
showMeasurement = 1;
},
{
angle = 123.9688;
position = "{109, 610}";
}
);
layerId = "91AB5BCA-6A50-42DA-B2F7-8181BF189245";
paths = (
{
closed = 1;
nodes = (
"107 0 LINE",
"198 643 LINE",
"506 0 LINE",
"537 0 LINE",
"639 723 LINE",
"603 723 LINE",
"512 78 LINE",
"202 723 LINE",
"173 723 LINE",
"71 0 LINE"
);
}
);
width = 676;
}
);
leftKerningGroup = N;
rightKerningGroup = N;
unicode = 004E;
},
{
glyphname = Eng;
lastChange = "2019-04-15 22:28:27 +0000";
layers = (
{
background = {
paths = (
{
closed = 1;
nodes = (
"557 742 LINE SMOOTH",
"542 742 OFFCURVE",
"535 734 OFFCURVE",
"535 721 CURVE SMOOTH",
"535 434 LINE SMOOTH",
"535 418 OFFCURVE",
"528 418 OFFCURVE",
"519 430 CURVE",
"279 724 LINE SMOOTH",
"267 739 OFFCURVE",
"262 742 OFFCURVE",
"245 742 CURVE SMOOTH",
"82 742 LINE SMOOTH",
"67 742 OFFCURVE",
"60 735 OFFCURVE",
"60 719 CURVE SMOOTH",
"60 20 LINE SMOOTH",
"60 5 OFFCURVE",
"70 0 OFFCURVE",
"85 0 CURVE SMOOTH",
"221 0 LINE SMOOTH",
"239 0 OFFCURVE",
"246 6 OFFCURVE",
"245 22 CURVE",
"245 386 LINE",
"245 393 OFFCURVE",
"249 395 OFFCURVE",
"255 388 CURVE SMOOTH",
"495 97 LINE",
"495 88 LINE SMOOTH",
"492 31 OFFCURVE",
"462 10 OFFCURVE",
"417 10 CURVE SMOOTH",
"395 10 OFFCURVE",
"372 15 OFFCURVE",
"356 17 CURVE SMOOTH",
"340 19 OFFCURVE",
"333 9 OFFCURVE",
"332 -6 CURVE SMOOTH",
"323 -120 LINE SMOOTH",
"321 -148 OFFCURVE",
"331 -159 OFFCURVE",
"354 -163 CURVE SMOOTH",
"399 -171 OFFCURVE",
"443 -175 OFFCURVE",
"484 -175 CURVE SMOOTH",
"636 -175 OFFCURVE",
"717 -114 OFFCURVE",
"717 47 CURVE SMOOTH",
"717 725 LINE SMOOTH",
"717 736 OFFCURVE",
"712 742 OFFCURVE",
"702 742 CURVE SMOOTH"
);
}
);
};
components = (
{
name = N;
},
{
alignment = -1;
name = "_j-hook";
transform = "{1, 0, 0, 1, 334, -230}";
}
);
layerId = "258ED206-D907-4350-8EBA-CBDDA1C16BF7";
width = 816;
},
{
background = {
paths = (
{
closed = 1;
nodes = (
"603 742 LINE SMOOTH",
"597 742 OFFCURVE",
"595 739 OFFCURVE",
"595 733 CURVE SMOOTH",
"595 107 LINE SMOOTH",
"595 101 OFFCURVE",
"588 94 OFFCURVE",
"581 104 CURVE SMOOTH",
"155 735 LINE SMOOTH",
"151 741 OFFCURVE",
"148 742 OFFCURVE",
"141 742 CURVE SMOOTH",
"120 742 LINE SMOOTH",
"113 742 OFFCURVE",
"111 740 OFFCURVE",
"111 732 CURVE SMOOTH",
"111 10 LINE SMOOTH",
"111 3 OFFCURVE",
"113 0 OFFCURVE",
"120 0 CURVE SMOOTH",
"145 0 LINE SMOOTH",
"152 0 OFFCURVE",
"155 3 OFFCURVE",
"155 9 CURVE SMOOTH",
"155 640 LINE SMOOTH",
"155 648 OFFCURVE",
"157 650 OFFCURVE",
"164 640 CURVE SMOOTH",
"592 12 LINE",
"592 -41 LINE SMOOTH",
"592 -112 OFFCURVE",
"561 -135 OFFCURVE",
"507 -135 CURVE SMOOTH",
"477 -135 OFFCURVE",
"453 -128 OFFCURVE",
"437 -122 CURVE SMOOTH",
"432 -120 OFFCURVE",
"430 -121 OFFCURVE",
"429 -126 CURVE",
"426 -151 LINE",
"426 -155 OFFCURVE",
"427 -158 OFFCURVE",
"430 -160 CURVE SMOOTH",
"437 -165 OFFCURVE",
"470 -175 OFFCURVE",
"511 -175 CURVE SMOOTH",
"605 -175 OFFCURVE",
"638 -124 OFFCURVE",
"638 -46 CURVE SMOOTH",
"638 732 LINE SMOOTH",
"638 740 OFFCURVE",
"636 742 OFFCURVE",
"629 742 CURVE SMOOTH"
);
}
);
};
components = (
{
name = N;
},
{
alignment = -1;
name = "_j-hook";
transform = "{1, 0, 0, 1, 305, -230}";
}
);
layerId = "91AB5BCA-6A50-42DA-B2F7-8181BF189245";
width = 676;
}
);
leftKerningGroup = N;
leftMetricsKey = N;
rightKerningGroup = N;
rightMetricsKey = N;
unicode = 014A;
},
{
glyphname = O;
lastChange = "2019-04-15 22:07:59 +0000";
layers = (
{
anchors = (
{
name = bottom;
position = "{354, 0}";
},
{
name = horn;
position = "{679, 547}";
},
{
name = ogonek;
position = "{444, 10}";
},
{
name = top;
position = "{462, 723}";
}
);
background = {
anchors = (
{
name = bottom;
position = "{408, 0}";
},
{
name = ogonek;
position = "{499, 10}";
},
{
name = top;
position = "{406, 742}";
}
);
paths = (
{
closed = 1;
nodes = (
"625 -10 OFFCURVE",
"765 139 OFFCURVE",
"765 369 CURVE SMOOTH",
"765 601 OFFCURVE",
"622 752 OFFCURVE",
"407 752 CURVE SMOOTH",
"190 752 OFFCURVE",
"47 601 OFFCURVE",
"47 369 CURVE SMOOTH",
"47 138 OFFCURVE",
"186 -10 OFFCURVE",
"407 -10 CURVE SMOOTH"
);
},
{
closed = 1;
nodes = (
"318 146 OFFCURVE",
"285 206 OFFCURVE",
"285 366 CURVE SMOOTH",
"285 531 OFFCURVE",
"320 598 OFFCURVE",
"407 598 CURVE SMOOTH",
"492 598 OFFCURVE",
"527 531 OFFCURVE",
"527 366 CURVE SMOOTH",
"527 206 OFFCURVE",
"494 146 OFFCURVE",
"407 146 CURVE SMOOTH"
);
}
);
};
guideLines = (
{
angle = 90;
position = "{-496, 389}";
}
);
layerId = "258ED206-D907-4350-8EBA-CBDDA1C16BF7";
paths = (
{
closed = 1;
nodes = (
"563 -10 OFFCURVE",
"721 136 OFFCURVE",
"755 360 CURVE SMOOTH",
"789 586 OFFCURVE",
"673 733 OFFCURVE",
"464 733 CURVE SMOOTH",
"255 733 OFFCURVE",
"93 586 OFFCURVE",
"59 360 CURVE SMOOTH",
"25 135 OFFCURVE",
"138 -10 OFFCURVE",
"352 -10 CURVE SMOOTH"
);
},
{
closed = 1;
nodes = (
"296 146 OFFCURVE",
"246 201 OFFCURVE",
"269 357 CURVE SMOOTH",
"294 518 OFFCURVE",
"361 577 OFFCURVE",
"441 577 CURVE SMOOTH",
"520 577 OFFCURVE",
"569 518 OFFCURVE",
"544 357 CURVE SMOOTH",
"521 201 OFFCURVE",
"455 146 OFFCURVE",
"375 146 CURVE SMOOTH"
);
}
);
width = 786;
},
{
anchors = (
{
name = bottom;
position = "{305, 0}";
},
{
name = horn;
position = "{563, 606}";
},
{
name = ogonek;
position = "{369, 9}";
},
{
name = top;
position = "{407, 723}";
}
);
background = {
anchors = (
{
name = bottom;
position = "{366, 0}";
},
{
name = ogonek;
position = "{436, 9}";
},
{
name = top;
position = "{366, 742}";
}
);
paths = (
{
closed = 1;
nodes = (
"552 -10 OFFCURVE",
"665 122 OFFCURVE",
"665 369 CURVE SMOOTH",
"665 618 OFFCURVE",
"552 752 OFFCURVE",
"365 752 CURVE SMOOTH",
"177 752 OFFCURVE",
"63 617 OFFCURVE",
"63 367 CURVE SMOOTH",
"63 121 OFFCURVE",
"175 -10 OFFCURVE",
"364 -10 CURVE SMOOTH"
);
},
{
closed = 1;
nodes = (
"200 32 OFFCURVE",
"111 143 OFFCURVE",
"111 369 CURVE SMOOTH",
"111 597 OFFCURVE",
"200 710 OFFCURVE",
"365 710 CURVE SMOOTH",
"529 710 OFFCURVE",
"617 598 OFFCURVE",
"617 369 CURVE SMOOTH",
"617 142 OFFCURVE",
"531 32 OFFCURVE",
"366 32 CURVE SMOOTH"
);
}
);
};
guideLines = (
{
angle = 90;
position = "{-445, 400}";
},
{
angle = 90;
position = "{398, 593}";
}
);
layerId = "91AB5BCA-6A50-42DA-B2F7-8181BF189245";
paths = (
{
closed = 1;
nodes = (
"470 -10 OFFCURVE",
"589 119 OFFCURVE",
"623 360 CURVE SMOOTH",
"657 603 OFFCURVE",
"575 733 OFFCURVE",
"407 733 CURVE SMOOTH",
"238 733 OFFCURVE",
"117 602 OFFCURVE",
"83 358 CURVE SMOOTH",
"49 118 OFFCURVE",
"132 -10 OFFCURVE",
"302 -10 CURVE SMOOTH"
);
},
{
closed = 1;
nodes = (
"160 31 OFFCURVE",
"93 139 OFFCURVE",
"124 360 CURVE SMOOTH",
"155 582 OFFCURVE",
"253 692 OFFCURVE",
"401 692 CURVE SMOOTH",
"549 692 OFFCURVE",
"614 583 OFFCURVE",
"583 360 CURVE SMOOTH",
"552 138 OFFCURVE",
"457 31 OFFCURVE",
"309 31 CURVE SMOOTH"
);
}
);
width = 678;
}
);
leftKerningGroup = O;
rightKerningGroup = O;
unicode = 004F;
},
{
glyphname = Oslash;
lastChange = "2019-04-15 22:11:46 +0000";
layers = (
{
anchors = (
{
name = top;
position = "{464, 723}";
}
);
background = {
anchors = (
{
name = top;
position = "{409, 723}";
}
);
paths = (
{
closed = 1;
nodes = (
"730 723 LINE SMOOTH",
"722 731 OFFCURVE",
"710 729 OFFCURVE",
"700 719 CURVE SMOOTH",
"636 657 LINE",
"578 706 OFFCURVE",
"501 733 OFFCURVE",
"410 733 CURVE SMOOTH",
"198 733 OFFCURVE",
"59 586 OFFCURVE",
"59 360 CURVE SMOOTH",
"59 276 OFFCURVE",
"78 204 OFFCURVE",
"112 146 CURVE",
"46 82 LINE SMOOTH",
"35 70 OFFCURVE",
"36 60 OFFCURVE",
"50 46 CURVE SMOOTH",
"88 7 LINE SMOOTH",
"104 -9 OFFCURVE",
"116 -8 OFFCURVE",
"130 7 CURVE SMOOTH",
"186 61 LINE",
"244 16 OFFCURVE",
"320 -10 OFFCURVE",
"410 -10 CURVE SMOOTH",
"623 -10 OFFCURVE",
"759 136 OFFCURVE",
"759 360 CURVE SMOOTH",
"759 442 OFFCURVE",
"741 513 OFFCURVE",
"707 570 CURVE",
"781 643 LINE",
"791 651 OFFCURVE",
"790 661 OFFCURVE",
"782 669 CURVE SMOOTH"
);
},
{
closed = 1;
nodes = (
"291 518 OFFCURVE",
"325 583 OFFCURVE",
"410 583 CURVE SMOOTH",
"453 583 OFFCURVE",
"483 566 OFFCURVE",
"502 526 CURVE",
"292 321 LINE",
"291 333 OFFCURVE",
"291 345 OFFCURVE",
"291 357 CURVE"
);
},
{
closed = 1;
nodes = (
"527 201 OFFCURVE",
"495 142 OFFCURVE",
"410 142 CURVE SMOOTH",
"367 142 OFFCURVE",
"337 157 OFFCURVE",
"318 190 CURVE",
"526 394 LINE",
"527 381 OFFCURVE",
"527 370 OFFCURVE",
"527 357 CURVE SMOOTH"
);
}
);
};
layerId = "258ED206-D907-4350-8EBA-CBDDA1C16BF7";
paths = (
{
closed = 1;
nodes = (
"142 61 LINE",
"193 16 OFFCURVE",
"264 -10 OFFCURVE",
"354 -10 CURVE SMOOTH",
"565 -10 OFFCURVE",
"723 136 OFFCURVE",
"757 360 CURVE SMOOTH",
"769 442 OFFCURVE",
"762 513 OFFCURVE",
"737 570 CURVE",
"836 656 LINE",
"773 736 LINE",
"679 657 LINE",
"629 706 OFFCURVE",
"557 733 OFFCURVE",
"466 733 CURVE SMOOTH",
"256 733 OFFCURVE",
"95 586 OFFCURVE",
"61 360 CURVE SMOOTH",
"48 276 OFFCURVE",
"56 204 OFFCURVE",
"81 146 CURVE",
"-12 67 LINE",
"53 -14 LINE"
);
},
{
closed = 1;
nodes = (
"334 142 OFFCURVE",
"307 157 OFFCURVE",
"293 190 CURVE",
"531 395 LINE",
"522 335 OFFCURVE",
"512 288 OFFCURVE",
"499 251 CURVE SMOOTH",
"472 174 OFFCURVE",
"433 142 OFFCURVE",
"377 142 CURVE SMOOTH"
);
},
{
closed = 1;
nodes = (
"293 370 OFFCURVE",
"302 412 OFFCURVE",
"313 447 CURVE SMOOTH",
"341 542 OFFCURVE",
"382 583 OFFCURVE",
"444 583 CURVE SMOOTH",
"486 583 OFFCURVE",
"514 566 OFFCURVE",
"526 526 CURVE",
"286 320 LINE"
);
}
);
width = 799;
},
{
anchors = (
{
name = top;
position = "{404, 723}";
}
);
background = {
anchors = (
{
name = top;
position = "{353, 723}";
}
);
paths = (
{
closed = 1;
nodes = (
"649 730 LINE",
"645 734 OFFCURVE",
"641 732 OFFCURVE",
"637 727 CURVE",
"564 643 LINE",
"513 702 OFFCURVE",
"442 733 OFFCURVE",
"353 733 CURVE SMOOTH",
"170 733 OFFCURVE",
"59 602 OFFCURVE",
"59 358 CURVE SMOOTH",
"59 259 OFFCURVE",
"77 179 OFFCURVE",
"112 120 CURVE",
"30 25 LINE",
"26 20 OFFCURVE",
"27 18 OFFCURVE",
"34 11 CURVE SMOOTH",
"51 -5 LINE",
"59 -11 OFFCURVE",
"64 -11 OFFCURVE",
"69 -3 CURVE",
"141 79 LINE",
"190 20 OFFCURVE",
"262 -10 OFFCURVE",
"352 -10 CURVE SMOOTH",
"535 -10 OFFCURVE",
"646 119 OFFCURVE",
"646 360 CURVE SMOOTH",
"646 460 OFFCURVE",
"627 541 OFFCURVE",
"592 602 CURVE",
"675 698 LINE",
"678 702 OFFCURVE",
"677 706 OFFCURVE",
"674 709 CURVE"
);
},
{
closed = 1;
nodes = (
"108 582 OFFCURVE",
"192 691 OFFCURVE",
"353 691 CURVE SMOOTH",
"433 691 OFFCURVE",
"493 664 OFFCURVE",
"534 609 CURVE",
"144 157 LINE",
"120 209 OFFCURVE",
"108 276 OFFCURVE",
"108 360 CURVE SMOOTH"
);
},
{
closed = 1;
nodes = (
"596 138 OFFCURVE",
"515 32 OFFCURVE",
"354 32 CURVE SMOOTH",
"273 32 OFFCURVE",
"212 59 OFFCURVE",
"170 114 CURVE",
"560 566 LINE",
"584 513 OFFCURVE",
"596 445 OFFCURVE",
"596 360 CURVE SMOOTH"
);
}
);
};
layerId = "91AB5BCA-6A50-42DA-B2F7-8181BF189245";
paths = (
{
closed = 1;
nodes = (
"118 79 LINE",
"155 20 OFFCURVE",
"217 -10 OFFCURVE",
"300 -10 CURVE SMOOTH",
"468 -10 OFFCURVE",
"589 119 OFFCURVE",
"622 360 CURVE SMOOTH",
"636 460 OFFCURVE",
"630 541 OFFCURVE",
"607 602 CURVE",
"702 704 LINE",
"673 735 LINE",
"587 643 LINE",
"548 702 OFFCURVE",
"487 733 OFFCURVE",
"405 733 CURVE SMOOTH",
"237 733 OFFCURVE",
"116 602 OFFCURVE",
"82 358 CURVE SMOOTH",
"68 259 OFFCURVE",
"73 179 OFFCURVE",
"97 120 CURVE",
"3 19 LINE",
"31 -13 LINE"
);
},
{
closed = 1;
nodes = (
"233 32 OFFCURVE",
"181 59 OFFCURVE",
"150 114 CURVE",
"572 566 LINE",
"587 513 OFFCURVE",
"588 445 OFFCURVE",
"576 360 CURVE SMOOTH",
"545 138 OFFCURVE",
"456 32 OFFCURVE",
"308 32 CURVE SMOOTH"
);
},
{
closed = 1;
nodes = (
"117 209 OFFCURVE",
"116 276 OFFCURVE",
"127 360 CURVE SMOOTH",
"159 582 OFFCURVE",
"251 691 OFFCURVE",
"399 691 CURVE SMOOTH",
"473 691 OFFCURVE",
"524 664 OFFCURVE",
"554 609 CURVE",
"132 157 LINE"
);
}
);
width = 676;
}
);
leftKerningGroup = Oslash;
rightKerningGroup = Oslash;
unicode = 00D8;
},
{
glyphname = OE;
lastChange = "2019-04-15 22:22:15 +0000";
layers = (
{
background = {
paths = (
{
closed = 1;
nodes = (
"754 164 LINE",
"754 292 LINE",
"973 292 LINE",
"973 453 LINE",
"754 453 LINE",
"754 578 LINE",
"1103 578 LINE",
"1104 742 LINE",
"622 742 LINE",
"560 742 LINE",
"525 749 OFFCURVE",
"482 752 OFFCURVE",
"431 752 CURVE SMOOTH",
"190 752 OFFCURVE",
"47 601 OFFCURVE",
"47 369 CURVE SMOOTH",
"47 138 OFFCURVE",
"186 -10 OFFCURVE",
"419 -10 CURVE SMOOTH",
"475 -10 OFFCURVE",
"522 -7 OFFCURVE",
"560 0 CURVE",
"610 0 LINE",
"617 0 OFFCURVE",
"624 0 OFFCURVE",
"631 0 CURVE",
"1089 0 LINE SMOOTH",
"1106 0 OFFCURVE",
"1113 10 OFFCURVE",
"1113 22 CURVE SMOOTH",
"1113 145 LINE SMOOTH",
"1113 159 OFFCURVE",
"1105 164 OFFCURVE",
"1091 164 CURVE SMOOTH"
);
},
{
closed = 1;
nodes = (
"318 146 OFFCURVE",
"285 206 OFFCURVE",
"285 366 CURVE SMOOTH",
"285 531 OFFCURVE",
"320 598 OFFCURVE",
"407 598 CURVE SMOOTH",
"492 598 OFFCURVE",
"527 531 OFFCURVE",
"527 366 CURVE SMOOTH",
"527 206 OFFCURVE",
"494 146 OFFCURVE",
"407 146 CURVE SMOOTH"
);
}
);
};
layerId = "258ED206-D907-4350-8EBA-CBDDA1C16BF7";
paths = (
{
closed = 1;
nodes = (
"417 -10 OFFCURVE",
"463 -7 OFFCURVE",
"501 0 CURVE",
"549 0 LINE",
"1036 0 LINE",
"1061 160 LINE",
"713 160 LINE",
"732 285 LINE",
"944 285 LINE",
"968 442 LINE",
"756 442 LINE",
"774 564 LINE",
"1113 564 LINE",
"1138 723 LINE",
"671 723 LINE",
"610 723 LINE",
"578 730 OFFCURVE",
"536 733 OFFCURVE",
"487 733 CURVE SMOOTH",
"254 733 OFFCURVE",
"93 586 OFFCURVE",
"59 360 CURVE SMOOTH",
"24 135 OFFCURVE",
"138 -10 OFFCURVE",
"363 -10 CURVE SMOOTH"
);
},
{
closed = 1;
nodes = (
"288 142 OFFCURVE",
"265 201 OFFCURVE",
"289 357 CURVE SMOOTH",
"313 518 OFFCURVE",
"357 583 OFFCURVE",
"441 583 CURVE SMOOTH",
"524 583 OFFCURVE",
"548 518 OFFCURVE",
"523 357 CURVE SMOOTH",
"499 201 OFFCURVE",
"459 142 OFFCURVE",
"374 142 CURVE SMOOTH"
);
}
);
width = 1129;
},
{
background = {
paths = (
{
closed = 1;
nodes = (
"659 40 LINE SMOOTH",
"652 40 OFFCURVE",
"650 41 OFFCURVE",
"650 49 CURVE SMOOTH",
"650 346 LINE SMOOTH",
"650 354 OFFCURVE",
"652 355 OFFCURVE",
"659 355 CURVE SMOOTH",
"936 355 LINE SMOOTH",
"942 355 OFFCURVE",
"944 356 OFFCURVE",
"944 362 CURVE SMOOTH",
"944 388 LINE SMOOTH",
"944 393 OFFCURVE",
"942 395 OFFCURVE",
"937 395 CURVE SMOOTH",
"659 395 LINE SMOOTH",
"652 395 OFFCURVE",
"650 396 OFFCURVE",
"650 402 CURVE SMOOTH",
"650 693 LINE SMOOTH",
"650 701 OFFCURVE",
"652 702 OFFCURVE",
"659 702 CURVE SMOOTH",
"1017 702 LINE SMOOTH",
"1023 702 OFFCURVE",
"1025 703 OFFCURVE",
"1025 709 CURVE SMOOTH",
"1025 735 LINE SMOOTH",
"1025 740 OFFCURVE",
"1023 742 OFFCURVE",
"1018 742 CURVE SMOOTH",
"613 742 LINE SMOOTH",
"606 742 OFFCURVE",
"604 740 OFFCURVE",
"604 732 CURVE SMOOTH",
"604 600 LINE",
"554 700 OFFCURVE",
"467 752 OFFCURVE",
"350 752 CURVE SMOOTH",
"162 752 OFFCURVE",
"48 617 OFFCURVE",
"48 367 CURVE SMOOTH",
"48 121 OFFCURVE",
"160 -10 OFFCURVE",
"349 -10 CURVE SMOOTH",
"466 -10 OFFCURVE",
"554 41 OFFCURVE",
"604 140 CURVE",
"604 10 LINE SMOOTH",
"604 2 OFFCURVE",
"606 0 OFFCURVE",
"613 0 CURVE SMOOTH",
"1033 0 LINE SMOOTH",
"1038 0 OFFCURVE",
"1040 2 OFFCURVE",
"1040 7 CURVE SMOOTH",
"1040 33 LINE SMOOTH",
"1040 39 OFFCURVE",
"1038 40 OFFCURVE",
"1032 40 CURVE SMOOTH"
);
},
{
closed = 1;
nodes = (
"185 32 OFFCURVE",
"96 143 OFFCURVE",
"96 369 CURVE SMOOTH",
"96 597 OFFCURVE",
"185 710 OFFCURVE",
"350 710 CURVE SMOOTH",
"514 710 OFFCURVE",
"599 598 OFFCURVE",
"599 369 CURVE SMOOTH",
"599 142 OFFCURVE",
"516 32 OFFCURVE",
"351 32 CURVE SMOOTH"
);
}
);
};
layerId = "91AB5BCA-6A50-42DA-B2F7-8181BF189245";
paths = (
{
closed = 1;
nodes = (
"407 -10 OFFCURVE",
"493 40 OFFCURVE",
"551 137 CURVE",
"532 0 LINE",
"923 0 LINE",
"929 39 LINE",
"578 39 LINE",
"622 346 LINE",
"886 346 LINE",
"891 385 LINE",
"627 385 LINE",
"669 684 LINE",
"1006 684 LINE",
"1011 723 LINE",
"633 723 LINE",
"614 585 LINE",
"583 683 OFFCURVE",
"512 733 OFFCURVE",
"407 733 CURVE SMOOTH",
"239 733 OFFCURVE",
"118 602 OFFCURVE",
"83 358 CURVE SMOOTH",
"49 118 OFFCURVE",
"133 -10 OFFCURVE",
"302 -10 CURVE SMOOTH"
);
},
{
closed = 1;
nodes = (
"161 31 OFFCURVE",
"96 139 OFFCURVE",
"127 360 CURVE SMOOTH",
"158 582 OFFCURVE",
"253 692 OFFCURVE",
"402 692 CURVE SMOOTH",
"549 692 OFFCURVE",
"610 583 OFFCURVE",
"578 360 CURVE SMOOTH",
"547 138 OFFCURVE",
"458 31 OFFCURVE",
"310 31 CURVE SMOOTH"
);
}
);
width = 1030;
}
);
leftKerningGroup = O;
leftMetricsKey = O;
rightKerningGroup = E;
rightMetricsKey = E;
unicode = 0152;
},
{
glyphname = P;
lastChange = "2019-04-15 22:07:59 +0000";
layers = (
{
background = {
paths = (
{
closed = 1;
nodes = (
"710 662 OFFCURVE",
"573 742 OFFCURVE",
"409 742 CURVE SMOOTH",
"78 742 LINE SMOOTH",
"66 742 OFFCURVE",
"59 734 OFFCURVE",
"59 719 CURVE SMOOTH",
"59 25 LINE SMOOTH",
"59 8 OFFCURVE",
"65 0 OFFCURVE",
"85 0 CURVE SMOOTH",
"253 0 LINE SMOOTH",
"276 0 OFFCURVE",
"286 8 OFFCURVE",
"286 29 CURVE SMOOTH",
"286 255 LINE SMOOTH",
"286 262 OFFCURVE",
"289 266 OFFCURVE",
"298 266 CURVE SMOOTH",
"435 266 LINE SMOOTH",
"598 266 OFFCURVE",
"710 355 OFFCURVE",
"710 501 CURVE SMOOTH"
);
},
{
closed = 1;
nodes = (
"478 461 OFFCURVE",
"449 426 OFFCURVE",
"401 426 CURVE SMOOTH",
"303 426 LINE SMOOTH",
"290 426 OFFCURVE",
"286 433 OFFCURVE",
"286 448 CURVE SMOOTH",
"286 561 LINE SMOOTH",
"286 576 OFFCURVE",
"292 582 OFFCURVE",
"309 582 CURVE SMOOTH",
"395 582 LINE SMOOTH",
"441 582 OFFCURVE",
"478 552 OFFCURVE",
"478 504 CURVE SMOOTH"
);
}
);
};
layerId = "258ED206-D907-4350-8EBA-CBDDA1C16BF7";
paths = (
{
closed = 1;
nodes = (
"227 0 LINE",
"265 249 LINE",
"380 249 LINE SMOOTH",
"538 249 OFFCURVE",
"650 335 OFFCURVE",
"672 478 CURVE SMOOTH",
"696 635 OFFCURVE",
"586 723 OFFCURVE",
"427 723 CURVE SMOOTH",
"143 723 LINE",
"33 0 LINE"
);
},
{
closed = 1;
nodes = (
"313 579 LINE",
"424 579 LINE SMOOTH",
"467 579 OFFCURVE",
"503 538 OFFCURVE",
"496 488 CURVE SMOOTH",
"489 441 OFFCURVE",
"445 394 OFFCURVE",
"396 394 CURVE SMOOTH",
"285 394 LINE"
);
}
);
width = 671;
},
{
background = {
paths = (
{
closed = 1;
nodes = (
"603 684 OFFCURVE",
"492 742 OFFCURVE",
"337 742 CURVE SMOOTH",
"115 742 LINE SMOOTH",
"108 742 OFFCURVE",
"106 740 OFFCURVE",
"106 732 CURVE SMOOTH",
"106 8 LINE SMOOTH",
"106 3 OFFCURVE",
"109 0 OFFCURVE",
"114 0 CURVE SMOOTH",
"144 0 LINE SMOOTH",
"149 0 OFFCURVE",
"152 3 OFFCURVE",
"152 9 CURVE SMOOTH",
"152 318 LINE SMOOTH",
"152 324 OFFCURVE",
"154 327 OFFCURVE",
"160 327 CURVE SMOOTH",
"343 327 LINE SMOOTH",
"494 327 OFFCURVE",
"603 387 OFFCURVE",
"603 535 CURVE SMOOTH"
);
},
{
closed = 1;
nodes = (
"555 415 OFFCURVE",
"471 367 OFFCURVE",
"343 367 CURVE SMOOTH",
"159 367 LINE SMOOTH",
"154 367 OFFCURVE",
"152 370 OFFCURVE",
"152 377 CURVE SMOOTH",
"152 694 LINE SMOOTH",
"152 700 OFFCURVE",
"155 702 OFFCURVE",
"161 702 CURVE SMOOTH",
"336 702 LINE SMOOTH",
"471 702 OFFCURVE",
"555 662 OFFCURVE",
"555 538 CURVE SMOOTH"
);
}
);
};
layerId = "91AB5BCA-6A50-42DA-B2F7-8181BF189245";
paths = (
{
closed = 1;
nodes = (
"110 0 LINE",
"149 277 LINE",
"320 277 LINE SMOOTH",
"456 277 OFFCURVE",
"565 358 OFFCURVE",
"586 503 CURVE SMOOTH",
"606 648 OFFCURVE",
"517 723 OFFCURVE",
"377 723 CURVE SMOOTH",
"172 723 LINE",
"71 0 LINE"
);
},
{
closed = 1;
nodes = (
"206 681 LINE",
"370 681 LINE SMOOTH",
"492 681 OFFCURVE",
"562 626 OFFCURVE",
"546 506 CURVE SMOOTH",
"529 386 OFFCURVE",
"441 320 OFFCURVE",
"326 320 CURVE SMOOTH",
"155 320 LINE"
);
}
);
width = 585;
}
);
leftKerningGroup = N;
leftMetricsKey = N;
rightKerningGroup = P;
unicode = 0050;
},
{
glyphname = Thorn;
lastChange = "2019-04-15 22:22:15 +0000";
layers = (
{
background = {
paths = (
{
closed = 1;
nodes = (
"739 530 OFFCURVE",
"602 608 OFFCURVE",
"438 608 CURVE SMOOTH",
"312 608 LINE SMOOTH",
"305 608 OFFCURVE",
"302 612 OFFCURVE",
"302 620 CURVE SMOOTH",
"302 721 LINE SMOOTH",
"302 734 OFFCURVE",
"296 742 OFFCURVE",
"284 742 CURVE SMOOTH",
"94 742 LINE SMOOTH",
"83 742 OFFCURVE",
"75 734 OFFCURVE",
"75 719 CURVE SMOOTH",
"75 25 LINE SMOOTH",
"75 8 OFFCURVE",
"81 0 OFFCURVE",
"101 0 CURVE SMOOTH",
"269 0 LINE SMOOTH",
"292 0 OFFCURVE",
"302 8 OFFCURVE",
"302 29 CURVE SMOOTH",
"302 131 LINE SMOOTH",
"302 138 OFFCURVE",
"305 142 OFFCURVE",
"314 142 CURVE SMOOTH",
"464 142 LINE SMOOTH",
"627 142 OFFCURVE",
"739 229 OFFCURVE",
"739 372 CURVE SMOOTH"
);
},
{
closed = 1;
nodes = (
"507 335 OFFCURVE",
"478 302 OFFCURVE",
"430 302 CURVE SMOOTH",
"319 302 LINE SMOOTH",
"306 302 OFFCURVE",
"302 309 OFFCURVE",
"302 324 CURVE SMOOTH",
"302 427 LINE SMOOTH",
"302 442 OFFCURVE",
"308 448 OFFCURVE",
"325 448 CURVE SMOOTH",
"424 448 LINE SMOOTH",
"470 448 OFFCURVE",
"507 420 OFFCURVE",
"507 375 CURVE SMOOTH"
);
}
);
};
layerId = "258ED206-D907-4350-8EBA-CBDDA1C16BF7";
paths = (
{
closed = 1;
nodes = (
"254 0 LINE",
"275 138 LINE",
"432 138 LINE SMOOTH",
"590 138 OFFCURVE",
"711 223 OFFCURVE",
"732 363 CURVE SMOOTH",
"755 517 OFFCURVE",
"634 593 OFFCURVE",
"475 593 CURVE SMOOTH",
"344 593 LINE",
"363 723 LINE",
"143 723 LINE",
"33 0 LINE"
);
},
{
closed = 1;
nodes = (
"320 437 LINE",
"438 437 LINE SMOOTH",
"482 437 OFFCURVE",
"515 410 OFFCURVE",
"508 366 CURVE SMOOTH",
"502 327 OFFCURVE",
"468 294 OFFCURVE",
"422 294 CURVE SMOOTH",
"298 294 LINE"
);
}
);
width = 747;
},
{
background = {
paths = (
{
closed = 1;
nodes = (
"603 522 OFFCURVE",
"493 579 OFFCURVE",
"337 579 CURVE SMOOTH",
"158 579 LINE SMOOTH",
"154 579 OFFCURVE",
"152 581 OFFCURVE",
"152 584 CURVE SMOOTH",
"152 732 LINE SMOOTH",
"152 740 OFFCURVE",
"150 742 OFFCURVE",
"143 742 CURVE SMOOTH",
"115 742 LINE SMOOTH",
"108 742 OFFCURVE",
"106 740 OFFCURVE",
"106 732 CURVE SMOOTH",
"106 8 LINE SMOOTH",
"106 3 OFFCURVE",
"109 0 OFFCURVE",
"114 0 CURVE SMOOTH",
"144 0 LINE SMOOTH",
"149 0 OFFCURVE",
"152 3 OFFCURVE",
"152 9 CURVE SMOOTH",
"152 173 LINE SMOOTH",
"152 179 OFFCURVE",
"154 182 OFFCURVE",
"160 182 CURVE SMOOTH",
"343 182 LINE SMOOTH",
"493 182 OFFCURVE",
"603 239 OFFCURVE",
"603 390 CURVE SMOOTH"
);
},
{
closed = 1;
nodes = (
"555 268 OFFCURVE",
"471 222 OFFCURVE",
"343 222 CURVE SMOOTH",
"159 222 LINE SMOOTH",
"154 222 OFFCURVE",
"152 225 OFFCURVE",
"152 232 CURVE SMOOTH",
"152 531 LINE SMOOTH",
"152 537 OFFCURVE",
"155 539 OFFCURVE",
"161 539 CURVE SMOOTH",
"336 539 LINE SMOOTH",
"471 539 OFFCURVE",
"555 501 OFFCURVE",
"555 390 CURVE SMOOTH"
);
}
);
};
layerId = "91AB5BCA-6A50-42DA-B2F7-8181BF189245";
paths = (
{
closed = 1;
nodes = (
"112 0 LINE",
"137 177 LINE",
"308 177 LINE SMOOTH",
"443 177 OFFCURVE",
"550 233 OFFCURVE",
"570 380 CURVE SMOOTH",
"588 509 OFFCURVE",
"498 565 OFFCURVE",
"357 565 CURVE SMOOTH",
"191 565 LINE",
"214 723 LINE",
"172 723 LINE",
"71 0 LINE"
);
},
{
closed = 1;
nodes = (
"186 526 LINE",
"351 526 LINE SMOOTH",
"472 526 OFFCURVE",
"542 488 OFFCURVE",
"527 380 CURVE SMOOTH",
"510 261 OFFCURVE",
"428 216 OFFCURVE",
"313 216 CURVE SMOOTH",
"142 216 LINE"
);
}
);
width = 586;
}
);
leftKerningGroup = N;
leftMetricsKey = P;
rightKerningGroup = P;
rightMetricsKey = P;
unicode = 00DE;
},
{
glyphname = Q;
lastChange = "2019-04-15 22:22:15 +0000";
layers = (
{
background = {
paths = (
{
closed = 1;
nodes = (
"24 138 OFFCURVE",
"163 -10 OFFCURVE",
"384 -10 CURVE SMOOTH",
"410 -10 OFFCURVE",
"431 -9 OFFCURVE",
"455 -6 CURVE SMOOTH",
"462 -5 OFFCURVE",
"467 -6 OFFCURVE",
"470 -10 CURVE SMOOTH",
"527 -84 OFFCURVE",
"599 -128 OFFCURVE",
"699 -128 CURVE SMOOTH",
"731 -128 OFFCURVE",
"743 -122 OFFCURVE",
"743 -97 CURVE SMOOTH",
"743 13 LINE SMOOTH",
"743 20 OFFCURVE",
"740 28 OFFCURVE",
"726 30 CURVE SMOOTH",
"683 36 OFFCURVE",
"636 61 OFFCURVE",
"636 78 CURVE SMOOTH",
"636 82 OFFCURVE",
"636 84 OFFCURVE",
"638 86 CURVE",
"705 152 OFFCURVE",
"743 249 OFFCURVE",
"743 369 CURVE SMOOTH",
"743 601 OFFCURVE",
"600 752 OFFCURVE",
"384 752 CURVE SMOOTH",
"167 752 OFFCURVE",
"24 601 OFFCURVE",
"24 369 CURVE SMOOTH"
);
},
{
closed = 1;
nodes = (
"262 532 OFFCURVE",
"297 598 OFFCURVE",
"384 598 CURVE SMOOTH",
"470 598 OFFCURVE",
"505 532 OFFCURVE",
"505 367 CURVE SMOOTH",
"505 206 OFFCURVE",
"472 146 OFFCURVE",
"384 146 CURVE SMOOTH",
"295 146 OFFCURVE",
"262 206 OFFCURVE",
"262 367 CURVE SMOOTH"
);
}
);
};
layerId = "258ED206-D907-4350-8EBA-CBDDA1C16BF7";
paths = (
{
closed = 1;
nodes = (
"690 27 LINE",
"641 27 OFFCURVE",
"600 52 OFFCURVE",
"597 80 CURVE",
"672 150 OFFCURVE",
"723 243 OFFCURVE",
"741 360 CURVE SMOOTH",
"775 586 OFFCURVE",
"659 733 OFFCURVE",
"449 733 CURVE SMOOTH",
"240 733 OFFCURVE",
"78 586 OFFCURVE",
"44 360 CURVE SMOOTH",
"10 135 OFFCURVE",
"123 -10 OFFCURVE",
"337 -10 CURVE SMOOTH",
"362 -10 OFFCURVE",
"382 -9 OFFCURVE",
"417 -5 CURVE",
"486 -113 OFFCURVE",
"552 -125 OFFCURVE",
"667 -125 CURVE"
);
},
{
closed = 1;
nodes = (
"275 146 OFFCURVE",
"232 201 OFFCURVE",
"255 358 CURVE SMOOTH",
"280 519 OFFCURVE",
"342 577 OFFCURVE",
"426 577 CURVE SMOOTH",
"509 577 OFFCURVE",
"554 519 OFFCURVE",
"530 358 CURVE SMOOTH",
"506 201 OFFCURVE",
"446 146 OFFCURVE",
"360 146 CURVE SMOOTH"
);
}
);
width = 782;
},
{
background = {
paths = (
{
closed = 1;
nodes = (
"43 116 OFFCURVE",
"160 -10 OFFCURVE",
"344 -10 CURVE SMOOTH",
"370 -10 OFFCURVE",
"400 -7 OFFCURVE",
"425 -1 CURVE SMOOTH",
"432 1 OFFCURVE",
"437 -1 OFFCURVE",
"440 -5 CURVE SMOOTH",
"505 -96 OFFCURVE",
"571 -122 OFFCURVE",
"615 -122 CURVE SMOOTH",
"629 -122 OFFCURVE",
"635 -120 OFFCURVE",
"635 -109 CURVE SMOOTH",
"635 -87 LINE SMOOTH",
"635 -84 OFFCURVE",
"634 -81 OFFCURVE",
"628 -80 CURVE SMOOTH",
"553 -70 OFFCURVE",
"486 -11 OFFCURVE",
"486 16 CURVE SMOOTH",
"486 20 OFFCURVE",
"487 22 OFFCURVE",
"492 25 CURVE SMOOTH",
"589 83 OFFCURVE",
"645 189 OFFCURVE",
"645 369 CURVE SMOOTH",
"645 620 OFFCURVE",
"532 752 OFFCURVE",
"344 752 CURVE SMOOTH",
"156 752 OFFCURVE",
"43 620 OFFCURVE",
"43 369 CURVE SMOOTH"
);
},
{
closed = 1;
nodes = (
"91 592 OFFCURVE",
"177 710 OFFCURVE",
"344 710 CURVE SMOOTH",
"511 710 OFFCURVE",
"597 592 OFFCURVE",
"597 369 CURVE SMOOTH",
"597 141 OFFCURVE",
"508 32 OFFCURVE",
"344 32 CURVE SMOOTH",
"180 32 OFFCURVE",
"91 141 OFFCURVE",
"91 367 CURVE SMOOTH"
);
}
);
};
layerId = "91AB5BCA-6A50-42DA-B2F7-8181BF189245";
paths = (
{
closed = 1;
nodes = (
"541 -79 LINE",
"483 -76 OFFCURVE",
"435 -50 OFFCURVE",
"414 18 CURVE",
"530 79 OFFCURVE",
"588 194 OFFCURVE",
"611 360 CURVE SMOOTH",
"645 605 OFFCURVE",
"562 733 OFFCURVE",
"394 733 CURVE SMOOTH",
"225 733 OFFCURVE",
"105 605 OFFCURVE",
"71 360 CURVE SMOOTH",
"36 113 OFFCURVE",
"125 -10 OFFCURVE",
"289 -10 CURVE SMOOTH",
"315 -10 OFFCURVE",
"341 -6 OFFCURVE",
"372 1 CURVE",
"405 -98 OFFCURVE",
"491 -119 OFFCURVE",
"535 -119 CURVE"
);
},
{
closed = 1;
nodes = (
"148 31 OFFCURVE",
"80 137 OFFCURVE",
"111 358 CURVE SMOOTH",
"142 577 OFFCURVE",
"238 692 OFFCURVE",
"388 692 CURVE SMOOTH",
"538 692 OFFCURVE",
"602 577 OFFCURVE",
"571 360 CURVE SMOOTH",
"540 137 OFFCURVE",
"442 31 OFFCURVE",
"295 31 CURVE SMOOTH"
);
}
);
width = 662;
}
);
leftKerningGroup = O;
rightKerningGroup = O;
unicode = 0051;
},
{
glyphname = R;
lastChange = "2019-04-15 22:22:15 +0000";
layers = (
{
anchors = (
{
name = bottom;
position = "{323, 0}";
},
{
name = top;
position = "{423, 723}";
}
);
background = {
anchors = (
{
name = bottom;
position = "{374, 0}";
},
{
name = top;
position = "{364, 742}";
}
);
paths = (
{
closed = 1;
nodes = (
"581 312 LINE SMOOTH",
"578 320 OFFCURVE",
"578 328 OFFCURVE",
"585 331 CURVE SMOOTH",
"661 360 OFFCURVE",
"716 436 OFFCURVE",
"716 530 CURVE SMOOTH",
"716 664 OFFCURVE",
"604 742 OFFCURVE",
"411 742 CURVE SMOOTH",
"77 742 LINE SMOOTH",
"65 742 OFFCURVE",
"58 734 OFFCURVE",
"58 719 CURVE SMOOTH",
"58 25 LINE SMOOTH",
"58 8 OFFCURVE",
"64 0 OFFCURVE",
"84 0 CURVE SMOOTH",
"252 0 LINE SMOOTH",
"275 0 OFFCURVE",
"285 8 OFFCURVE",
"285 29 CURVE SMOOTH",
"285 284 LINE SMOOTH",
"285 287 OFFCURVE",
"288 295 OFFCURVE",
"297 295 CURVE SMOOTH",
"343 295 LINE SMOOTH",
"362 295 OFFCURVE",
"370 290 OFFCURVE",
"374 279 CURVE SMOOTH",
"468 21 LINE SMOOTH",
"472 7 OFFCURVE",
"481 0 OFFCURVE",
"495 0 CURVE SMOOTH",
"689 0 LINE SMOOTH",
"705 0 OFFCURVE",
"714 15 OFFCURVE",
"707 32 CURVE SMOOTH"
);
},
{
closed = 1;
nodes = (
"302 444 LINE SMOOTH",
"289 444 OFFCURVE",
"285 450 OFFCURVE",
"285 465 CURVE SMOOTH",
"285 574 LINE SMOOTH",
"285 589 OFFCURVE",
"291 594 OFFCURVE",
"308 594 CURVE SMOOTH",
"396 594 LINE SMOOTH",
"441 594 OFFCURVE",
"481 567 OFFCURVE",
"481 516 CURVE SMOOTH",
"481 473 OFFCURVE",
"453 444 OFFCURVE",
"402 444 CURVE SMOOTH"
);
}
);
};
layerId = "258ED206-D907-4350-8EBA-CBDDA1C16BF7";
paths = (
{
closed = 1;
nodes = (
"226 0 LINE",
"264 249 LINE",
"366 249 LINE",
"432 0 LINE",
"630 0 LINE",
"546 280 LINE",
"619 321 OFFCURVE",
"675 379 OFFCURVE",
"692 490 CURVE SMOOTH",
"712 621 OFFCURVE",
"655 723 OFFCURVE",
"468 723 CURVE SMOOTH",
"142 723 LINE",
"33 0 LINE"
);
},
{
closed = 1;
nodes = (
"314 579 LINE",
"425 579 LINE SMOOTH",
"468 579 OFFCURVE",
"505 538 OFFCURVE",
"497 488 CURVE SMOOTH",
"490 441 OFFCURVE",
"446 394 OFFCURVE",
"397 394 CURVE SMOOTH",
"286 394 LINE"
);
}
);
width = 713;
},
{
anchors = (
{
name = bottom;
position = "{270, 0}";
},
{
name = top;
position = "{365, 723}";
}
);
background = {
anchors = (
{
name = bottom;
position = "{328, 0}";
},
{
name = top;
position = "{321, 742}";
}
);
paths = (
{
closed = 1;
nodes = (
"440 359 LINE",
"439 362 OFFCURVE",
"440 365 OFFCURVE",
"444 366 CURVE SMOOTH",
"513 384 OFFCURVE",
"596 435 OFFCURVE",
"596 558 CURVE SMOOTH",
"596 680 OFFCURVE",
"512 742 OFFCURVE",
"368 742 CURVE SMOOTH",
"110 742 LINE SMOOTH",
"103 742 OFFCURVE",
"101 740 OFFCURVE",
"101 732 CURVE SMOOTH",
"101 9 LINE SMOOTH",
"101 3 OFFCURVE",
"103 0 OFFCURVE",
"111 0 CURVE SMOOTH",
"137 0 LINE SMOOTH",
"145 0 OFFCURVE",
"147 3 OFFCURVE",
"147 11 CURVE SMOOTH",
"147 344 LINE SMOOTH",
"147 351 OFFCURVE",
"150 355 OFFCURVE",
"159 355 CURVE SMOOTH",
"375 355 LINE SMOOTH",
"388 355 OFFCURVE",
"393 352 OFFCURVE",
"396 345 CURVE SMOOTH",
"538 9 LINE SMOOTH",
"541 3 OFFCURVE",
"543 0 OFFCURVE",
"550 0 CURVE SMOOTH",
"578 0 LINE SMOOTH",
"585 0 OFFCURVE",
"589 7 OFFCURVE",
"586 14 CURVE SMOOTH"
);
},
{
closed = 1;
nodes = (
"154 395 LINE SMOOTH",
"149 395 OFFCURVE",
"147 398 OFFCURVE",
"147 404 CURVE SMOOTH",
"147 694 LINE SMOOTH",
"147 700 OFFCURVE",
"150 702 OFFCURVE",
"158 702 CURVE SMOOTH",
"367 702 LINE SMOOTH",
"488 702 OFFCURVE",
"548 653 OFFCURVE",
"548 551 CURVE SMOOTH",
"548 439 OFFCURVE",
"476 395 OFFCURVE",
"333 395 CURVE SMOOTH"
);
}
);
};
layerId = "91AB5BCA-6A50-42DA-B2F7-8181BF189245";
paths = (
{
closed = 1;
nodes = (
"107 0 LINE",
"156 344 LINE",
"379 344 LINE",
"465 0 LINE",
"506 0 LINE",
"418 353 LINE",
"485 371 OFFCURVE",
"570 423 OFFCURVE",
"587 544 CURVE SMOOTH",
"603 663 OFFCURVE",
"536 723 OFFCURVE",
"407 723 CURVE SMOOTH",
"173 723 LINE",
"71 0 LINE"
);
},
{
closed = 1;
nodes = (
"203 683 LINE",
"401 683 LINE SMOOTH",
"510 683 OFFCURVE",
"561 640 OFFCURVE",
"547 537 CURVE SMOOTH",
"532 428 OFFCURVE",
"457 385 OFFCURVE",
"329 385 CURVE SMOOTH",
"161 385 LINE"
);
}
);
width = 621;
}
);
leftKerningGroup = N;
leftMetricsKey = N;
rightKerningGroup = R;
unicode = 0052;
},
{
glyphname = S;
lastChange = "2019-04-15 22:07:59 +0000";
layers = (
{
anchors = (
{
name = bottom;
position = "{323, 0}";
},
{
name = top;
position = "{433, 723}";
}
);
background = {
anchors = (
{
name = bottom;
position = "{376, 0}";
},
{
name = top;
position = "{376, 742}";
}
);
paths = (
{
closed = 1;
nodes = (
"529 529 OFFCURVE",
"535 528 OFFCURVE",
"545 535 CURVE SMOOTH",
"654 614 LINE SMOOTH",
"667 624 OFFCURVE",
"660 635 OFFCURVE",
"654 644 CURVE SMOOTH",
"608 709 OFFCURVE",
"495 752 OFFCURVE",
"376 752 CURVE SMOOTH",
"187 752 OFFCURVE",
"68 645 OFFCURVE",
"68 515 CURVE SMOOTH",
"68 410 OFFCURVE",
"144 323 OFFCURVE",
"264 293 CURVE SMOOTH",
"416 256 LINE SMOOTH",
"459 246 OFFCURVE",
"479 226 OFFCURVE",
"479 202 CURVE SMOOTH",
"479 165 OFFCURVE",
"431 144 OFFCURVE",
"358 144 CURVE SMOOTH",
"279 144 OFFCURVE",
"240 167 OFFCURVE",
"196 224 CURVE SMOOTH",
"188 234 OFFCURVE",
"176 238 OFFCURVE",
"158 226 CURVE SMOOTH",
"55 155 LINE SMOOTH",
"41 144 OFFCURVE",
"41 136 OFFCURVE",
"49 122 CURVE SMOOTH",
"96 43 OFFCURVE",
"229 -10 OFFCURVE",
"375 -10 CURVE SMOOTH",
"572 -10 OFFCURVE",
"695 86 OFFCURVE",
"695 234 CURVE SMOOTH",
"695 337 OFFCURVE",
"637 421 OFFCURVE",
"512 452 CURVE SMOOTH",
"346 495 LINE SMOOTH",
"296 507 OFFCURVE",
"282 528 OFFCURVE",
"282 546 CURVE SMOOTH",
"282 571 OFFCURVE",
"309 597 OFFCURVE",
"384 597 CURVE SMOOTH",
"462 597 OFFCURVE",
"491 569 OFFCURVE",
"515 543 CURVE SMOOTH"
);
}
);
};
guideLines = (
{
angle = 214.3236;
position = "{679, 302}";
}
);
layerId = "258ED206-D907-4350-8EBA-CBDDA1C16BF7";
paths = (
{
closed = 1;
nodes = (
"505 -10 OFFCURVE",
"654 82 OFFCURVE",
"672 205 CURVE SMOOTH",
"683 277 OFFCURVE",
"690 407 OFFCURVE",
"487 443 CURVE SMOOTH",
"378 462 LINE SMOOTH",
"317 473 OFFCURVE",
"304 492 OFFCURVE",
"309 525 CURVE SMOOTH",
"313 551 OFFCURVE",
"340 582 OFFCURVE",
"416 582 CURVE SMOOTH",
"483 582 OFFCURVE",
"520 560 OFFCURVE",
"517 504 CURVE",
"713 504 LINE",
"718 623 OFFCURVE",
"610 732 OFFCURVE",
"434 732 CURVE SMOOTH",
"269 732 OFFCURVE",
"119 647 OFFCURVE",
"98 501 CURVE SMOOTH",
"82 378 OFFCURVE",
"145 306 OFFCURVE",
"255 288 CURVE SMOOTH",
"364 269 LINE SMOOTH",
"423 259 OFFCURVE",
"481 249 OFFCURVE",
"475 205 CURVE SMOOTH",
"467 154 OFFCURVE",
"407 139 OFFCURVE",
"346 139 CURVE SMOOTH",
"279 139 OFFCURVE",
"239 169 OFFCURVE",
"236 220 CURVE",
"35 220 LINE",
"23 59 OFFCURVE",
"174 -10 OFFCURVE",
"325 -10 CURVE SMOOTH"
);
}
);
width = 720;
},
{
anchors = (
{
name = bottom;
position = "{269, 0}";
},
{
name = top;
position = "{376, 723}";
}
);
background = {
anchors = (
{
name = bottom;
position = "{338, 0}";
},
{
name = top;
position = "{334, 742}";
}
);
paths = (
{
closed = 1;
nodes = (
"521 620 OFFCURVE",
"523 618 OFFCURVE",
"528 622 CURVE SMOOTH",
"550 642 LINE SMOOTH",
"556 647 OFFCURVE",
"554 652 OFFCURVE",
"550 656 CURVE SMOOTH",
"493 716 OFFCURVE",
"426 752 OFFCURVE",
"333 752 CURVE SMOOTH",
"196 752 OFFCURVE",
"101 681 OFFCURVE",
"101 556 CURVE SMOOTH",
"101 492 OFFCURVE",
"131 421 OFFCURVE",
"239 380 CURVE SMOOTH",
"390 322 LINE SMOOTH",
"499 280 OFFCURVE",
"522 239 OFFCURVE",
"522 180 CURVE SMOOTH",
"522 73 OFFCURVE",
"443 32 OFFCURVE",
"324 32 CURVE SMOOTH",
"217 32 OFFCURVE",
"169 69 OFFCURVE",
"113 141 CURVE SMOOTH",
"108 147 OFFCURVE",
"103 148 OFFCURVE",
"93 141 CURVE SMOOTH",
"82 133 LINE SMOOTH",
"72 126 OFFCURVE",
"71 120 OFFCURVE",
"76 113 CURVE SMOOTH",
"135 29 OFFCURVE",
"213 -10 OFFCURVE",
"324 -10 CURVE SMOOTH",
"475 -10 OFFCURVE",
"568 60 OFFCURVE",
"568 182 CURVE SMOOTH",
"568 266 OFFCURVE",
"525 326 OFFCURVE",
"407 369 CURVE SMOOTH",
"269 419 LINE SMOOTH",
"162 458 OFFCURVE",
"147 518 OFFCURVE",
"147 557 CURVE SMOOTH",
"147 656 OFFCURVE",
"221 710 OFFCURVE",
"330 710 CURVE SMOOTH",
"414 710 OFFCURVE",
"475 674 OFFCURVE",
"515 627 CURVE SMOOTH"
);
}
);
};
layerId = "91AB5BCA-6A50-42DA-B2F7-8181BF189245";
paths = (
{
closed = 1;
nodes = (
"436 -10 OFFCURVE",
"527 75 OFFCURVE",
"541 177 CURVE SMOOTH",
"553 259 OFFCURVE",
"525 334 OFFCURVE",
"425 364 CURVE SMOOTH",
"289 404 LINE SMOOTH",
"188 434 OFFCURVE",
"159 471 OFFCURVE",
"168 533 CURVE SMOOTH",
"183 643 OFFCURVE",
"292 691 OFFCURVE",
"371 691 CURVE SMOOTH",
"462 691 OFFCURVE",
"539 650 OFFCURVE",
"541 532 CURVE",
"579 540 LINE",
"584 640 OFFCURVE",
"530 732 OFFCURVE",
"379 732 CURVE SMOOTH",
"245 732 OFFCURVE",
"144 646 OFFCURVE",
"128 532 CURVE SMOOTH",
"116 446 OFFCURVE",
"165 399 OFFCURVE",
"259 372 CURVE SMOOTH",
"402 332 LINE SMOOTH",
"484 309 OFFCURVE",
"512 252 OFFCURVE",
"501 175 CURVE SMOOTH",
"489 90 OFFCURVE",
"400 29 OFFCURVE",
"284 29 CURVE SMOOTH",
"186 29 OFFCURVE",
"102 78 OFFCURVE",
"96 176 CURVE",
"56 167 LINE",
"60 55 OFFCURVE",
"157 -10 OFFCURVE",
"278 -10 CURVE SMOOTH"
);
}
);
width = 631;
}
);
leftKerningGroup = S;
rightKerningGroup = S;
unicode = 0053;
},
{
glyphname = Schwa;
lastChange = "2019-04-15 22:22:15 +0000";
layers = (
{
background = {
paths = (
{
closed = 1;
nodes = (
"523 431 OFFCURVE",
"516 425 OFFCURVE",
"503 425 CURVE SMOOTH",
"70 425 LINE SMOOTH",
"48 425 OFFCURVE",
"47 414 OFFCURVE",
"47 392 CURVE SMOOTH",
"47 136 OFFCURVE",
"168 -10 OFFCURVE",
"401 -10 CURVE SMOOTH",
"594 -10 OFFCURVE",
"763 158 OFFCURVE",
"763 380 CURVE SMOOTH",
"763 599 OFFCURVE",
"626 752 OFFCURVE",
"404 752 CURVE SMOOTH",
"258 752 OFFCURVE",
"152 689 OFFCURVE",
"90 567 CURVE SMOOTH",
"82 551 OFFCURVE",
"83 542 OFFCURVE",
"95 536 CURVE SMOOTH",
"233 468 LINE SMOOTH",
"250 459 OFFCURVE",
"256 462 OFFCURVE",
"260 469 CURVE SMOOTH",
"306 544 OFFCURVE",
"344 578 OFFCURVE",
"406 578 CURVE SMOOTH",
"504 578 OFFCURVE",
"523 506 OFFCURVE",
"523 447 CURVE SMOOTH"
);
},
{
closed = 1;
nodes = (
"509 192 OFFCURVE",
"480 146 OFFCURVE",
"399 146 CURVE SMOOTH",
"331 146 OFFCURVE",
"290 201 OFFCURVE",
"290 267 CURVE SMOOTH",
"290 282 OFFCURVE",
"295 285 OFFCURVE",
"312 285 CURVE SMOOTH",
"521 284 LINE"
);
}
);
};
layerId = "258ED206-D907-4350-8EBA-CBDDA1C16BF7";
paths = (
{
closed = 1;
nodes = (
"532 -10 OFFCURVE",
"721 154 OFFCURVE",
"754 371 CURVE SMOOTH",
"786 584 OFFCURVE",
"677 733 OFFCURVE",
"461 733 CURVE SMOOTH",
"320 733 OFFCURVE",
"208 672 OFFCURVE",
"130 553 CURVE SMOOTH",
"120 537 OFFCURVE",
"119 528 OFFCURVE",
"130 523 CURVE SMOOTH",
"253 456 LINE SMOOTH",
"269 448 OFFCURVE",
"275 450 OFFCURVE",
"280 457 CURVE SMOOTH",
"336 530 OFFCURVE",
"378 564 OFFCURVE",
"438 564 CURVE SMOOTH",
"533 564 OFFCURVE",
"540 493 OFFCURVE",
"532 436 CURVE SMOOTH",
"529 420 OFFCURVE",
"521 414 OFFCURVE",
"509 414 CURVE SMOOTH",
"90 414 LINE SMOOTH",
"68 414 OFFCURVE",
"66 404 OFFCURVE",
"62 382 CURVE SMOOTH",
"24 133 OFFCURVE",
"120 -10 OFFCURVE",
"346 -10 CURVE SMOOTH"
);
},
{
closed = 1;
nodes = (
"301 142 OFFCURVE",
"270 196 OFFCURVE",
"279 260 CURVE SMOOTH",
"282 275 OFFCURVE",
"287 278 OFFCURVE",
"303 278 CURVE SMOOTH",
"505 277 LINE",
"481 187 OFFCURVE",
"445 142 OFFCURVE",
"367 142 CURVE SMOOTH"
);
}
);
width = 783;
},
{
background = {
paths = (
{
closed = 1;
nodes = (
"612 381 OFFCURVE",
"611 380 OFFCURVE",
"606 380 CURVE SMOOTH",
"71 380 LINE SMOOTH",
"63 380 OFFCURVE",
"63 375 OFFCURVE",
"63 369 CURVE SMOOTH",
"63 174 OFFCURVE",
"129 -10 OFFCURVE",
"364 -10 CURVE SMOOTH",
"593 -10 OFFCURVE",
"664 180 OFFCURVE",
"664 366 CURVE SMOOTH",
"664 531 OFFCURVE",
"614 752 OFFCURVE",
"364 752 CURVE SMOOTH",
"136 752 OFFCURVE",
"92 560 OFFCURVE",
"77 522 CURVE SMOOTH",
"75 517 OFFCURVE",
"74 514 OFFCURVE",
"78 513 CURVE SMOOTH",
"116 500 LINE SMOOTH",
"120 499 OFFCURVE",
"122 498 OFFCURVE",
"123 500 CURVE SMOOTH",
"137 531 OFFCURVE",
"155 709 OFFCURVE",
"364 709 CURVE SMOOTH",
"582 709 OFFCURVE",
"612 504 OFFCURVE",
"612 386 CURVE SMOOTH"
);
},
{
closed = 1;
nodes = (
"609 191 OFFCURVE",
"560 33 OFFCURVE",
"364 33 CURVE SMOOTH",
"167 33 OFFCURVE",
"115 192 OFFCURVE",
"115 332 CURVE SMOOTH",
"115 336 OFFCURVE",
"117 338 OFFCURVE",
"123 338 CURVE SMOOTH",
"612 338 LINE"
);
}
);
};
layerId = "91AB5BCA-6A50-42DA-B2F7-8181BF189245";
paths = (
{
closed = 1;
nodes = (
"507 -10 OFFCURVE",
"596 176 OFFCURVE",
"622 357 CURVE SMOOTH",
"645 518 OFFCURVE",
"631 733 OFFCURVE",
"406 733 CURVE SMOOTH",
"202 733 OFFCURVE",
"136 546 OFFCURVE",
"117 509 CURVE SMOOTH",
"115 504 OFFCURVE",
"113 501 OFFCURVE",
"117 500 CURVE SMOOTH",
"149 488 LINE SMOOTH",
"153 487 OFFCURVE",
"154 486 OFFCURVE",
"155 488 CURVE SMOOTH",
"173 518 OFFCURVE",
"213 691 OFFCURVE",
"400 691 CURVE SMOOTH",
"595 691 OFFCURVE",
"595 491 OFFCURVE",
"579 376 CURVE SMOOTH",
"578 371 OFFCURVE",
"577 371 OFFCURVE",
"572 371 CURVE SMOOTH",
"92 371 LINE SMOOTH",
"85 371 OFFCURVE",
"84 366 OFFCURVE",
"83 360 CURVE SMOOTH",
"57 170 OFFCURVE",
"91 -10 OFFCURVE",
"302 -10 CURVE SMOOTH"
);
},
{
closed = 1;
nodes = (
"131 32 OFFCURVE",
"106 187 OFFCURVE",
"125 324 CURVE SMOOTH",
"126 328 OFFCURVE",
"128 330 OFFCURVE",
"133 330 CURVE SMOOTH",
"572 330 LINE",
"549 186 OFFCURVE",
"483 32 OFFCURVE",
"308 32 CURVE SMOOTH"
);
}
);
width = 677;
}
);
leftKerningGroup = e;
leftMetricsKey = O;
rightKerningGroup = e;
rightMetricsKey = O;
unicode = 018F;
},
{
glyphname = T;
lastChange = "2019-04-15 22:22:15 +0000";
layers = (
{
anchors = (
{
name = bottom;
position = "{283, 0}";
},
{
name = top;
position = "{393, 723}";
}
);
background = {
anchors = (
{
name = bottom;
position = "{342, 0}";
},
{
name = top;
position = "{342, 742}";
}
);
paths = (
{
closed = 1;
nodes = (
"18 586 OFFCURVE",
"27 581 OFFCURVE",
"41 581 CURVE SMOOTH",
"217 581 LINE SMOOTH",
"225 581 OFFCURVE",
"228 577 OFFCURVE",
"228 567 CURVE SMOOTH",
"228 20 LINE SMOOTH",
"228 7 OFFCURVE",
"235 0 OFFCURVE",
"246 0 CURVE SMOOTH",
"436 0 LINE SMOOTH",
"447 0 OFFCURVE",
"455 7 OFFCURVE",
"455 22 CURVE SMOOTH",
"455 571 LINE SMOOTH",
"455 578 OFFCURVE",
"459 581 OFFCURVE",
"467 581 CURVE SMOOTH",
"644 581 LINE SMOOTH",
"657 581 OFFCURVE",
"666 586 OFFCURVE",
"666 600 CURVE SMOOTH",
"666 719 LINE SMOOTH",
"666 732 OFFCURVE",
"658 742 OFFCURVE",
"641 742 CURVE SMOOTH",
"43 742 LINE SMOOTH",
"26 742 OFFCURVE",
"18 732 OFFCURVE",
"18 719 CURVE SMOOTH",
"18 600 LINE SMOOTH"
);
}
);
};
layerId = "258ED206-D907-4350-8EBA-CBDDA1C16BF7";
paths = (
{
closed = 1;
nodes = (
"370 0 LINE",
"454 552 LINE",
"660 552 LINE",
"686 723 LINE",
"83 723 LINE",
"57 552 LINE",
"260 552 LINE",
"177 0 LINE"
);
}
);
width = 637;
},
{
anchors = (
{
name = bottom;
position = "{226, 2}";
},
{
name = top;
position = "{327, 723}";
}
);
background = {
anchors = (
{
name = bottom;
position = "{285, 0}";
},
{
name = top;
position = "{285, 742}";
}
);
paths = (
{
closed = 1;
nodes = (
"9 703 OFFCURVE",
"11 702 OFFCURVE",
"17 702 CURVE SMOOTH",
"251 702 LINE SMOOTH",
"259 702 OFFCURVE",
"261 701 OFFCURVE",
"261 693 CURVE SMOOTH",
"261 10 LINE SMOOTH",
"261 2 OFFCURVE",
"263 0 OFFCURVE",
"271 0 CURVE SMOOTH",
"298 0 LINE SMOOTH",
"305 0 OFFCURVE",
"307 2 OFFCURVE",
"307 10 CURVE SMOOTH",
"307 693 LINE SMOOTH",
"307 701 OFFCURVE",
"309 702 OFFCURVE",
"317 702 CURVE SMOOTH",
"530 702 LINE SMOOTH",
"536 702 OFFCURVE",
"538 703 OFFCURVE",
"538 709 CURVE SMOOTH",
"538 735 LINE SMOOTH",
"538 740 OFFCURVE",
"536 742 OFFCURVE",
"531 742 CURVE SMOOTH",
"16 742 LINE SMOOTH",
"11 742 OFFCURVE",
"9 740 OFFCURVE",
"9 735 CURVE SMOOTH",
"9 709 LINE SMOOTH"
);
}
);
};
layerId = "91AB5BCA-6A50-42DA-B2F7-8181BF189245";
paths = (
{
closed = 1;
nodes = (
"242 0 LINE",
"338 683 LINE",
"548 683 LINE",
"553 723 LINE",
"79 723 LINE",
"74 683 LINE",
"302 683 LINE",
"206 0 LINE"
);
}
);
width = 502;
}
);
leftKerningGroup = T;
rightKerningGroup = T;
unicode = 0054;
},
{
glyphname = Tbar;
lastChange = "2019-04-15 22:22:15 +0000";
layers = (
{
background = {
components = (
{
name = T;
transform = "{1, 0, 0, 1, -22, 0}";
}
);
paths = (
{
closed = 1;
nodes = (
"532 414 OFFCURVE",
"525 422 OFFCURVE",
"514 422 CURVE SMOOTH",
"113 422 LINE SMOOTH",
"101 422 OFFCURVE",
"94 414 OFFCURVE",
"94 399 CURVE SMOOTH",
"94 306 LINE SMOOTH",
"94 289 OFFCURVE",
"100 281 OFFCURVE",
"120 281 CURVE SMOOTH",
"499 281 LINE SMOOTH",
"522 281 OFFCURVE",
"532 289 OFFCURVE",
"532 309 CURVE SMOOTH",
"532 402 LINE SMOOTH"
);
}
);
};
components = (
{
name = T;
}
);
layerId = "258ED206-D907-4350-8EBA-CBDDA1C16BF7";
paths = (
{
closed = 1;
nodes = (
"526 274 LINE",
"546 411 LINE",
"119 411 LINE",
"99 274 LINE"
);
}
);
width = 637;
},
{
background = {
components = (
{
name = T;
transform = "{1, 0, 0, 1, 4, 0}";
}
);
guideLines = (
{
angle = 90;
position = "{179, 188}";
showMeasurement = 1;
}
);
paths = (
{
closed = 1;
nodes = (
"508 399 OFFCURVE",
"506 402 OFFCURVE",
"501 402 CURVE SMOOTH",
"149 402 LINE SMOOTH",
"144 402 OFFCURVE",
"142 399 OFFCURVE",
"142 393 CURVE SMOOTH",
"142 370 LINE SMOOTH",
"142 363 OFFCURVE",
"144 360 OFFCURVE",
"152 360 CURVE SMOOTH",
"495 360 LINE SMOOTH",
"504 360 OFFCURVE",
"508 363 OFFCURVE",
"508 371 CURVE SMOOTH",
"508 394 LINE SMOOTH"
);
}
);
};
components = (
{
name = T;
}
);
guideLines = (
{
angle = 90;
position = "{233, 175}";
showMeasurement = 1;
}
);
layerId = "91AB5BCA-6A50-42DA-B2F7-8181BF189245";
paths = (
{
closed = 1;
nodes = (
"464 351 LINE",
"464 392 LINE",
"107 392 LINE",
"107 351 LINE"
);
}
);
width = 502;
}
);
leftKerningGroup = T;
leftMetricsKey = T;
rightKerningGroup = T;
rightMetricsKey = T;
unicode = 0166;
},
{
glyphname = U;
lastChange = "2019-04-15 22:22:15 +0000";
layers = (
{
anchors = (
{
name = bottom;
position = "{339, 0}";
},
{
name = horn;
position = "{699, 547}";
},
{
name = ogonek;
position = "{420, 12}";
},
{
name = top;
position = "{449, 723}";
}
);
background = {
anchors = (
{
name = ogonek;
position = "{490, 10}";
},
{
name = top;
position = "{395, 742}";
}
);
paths = (
{
closed = 1;
nodes = (
"698 721 LINE SMOOTH",
"698 734 OFFCURVE",
"692 742 OFFCURVE",
"680 742 CURVE SMOOTH",
"530 742 LINE SMOOTH",
"518 742 OFFCURVE",
"511 734 OFFCURVE",
"511 719 CURVE SMOOTH",
"511 292 LINE SMOOTH",
"511 181 OFFCURVE",
"457 149 OFFCURVE",
"395 149 CURVE SMOOTH",
"327 149 OFFCURVE",
"285 187 OFFCURVE",
"285 289 CURVE SMOOTH",
"285 721 LINE SMOOTH",
"285 734 OFFCURVE",
"279 742 OFFCURVE",
"267 742 CURVE SMOOTH",
"77 742 LINE SMOOTH",
"66 742 OFFCURVE",
"58 734 OFFCURVE",
"58 719 CURVE SMOOTH",
"58 313 LINE SMOOTH",
"58 104 OFFCURVE",
"139 -10 OFFCURVE",
"378 -10 CURVE SMOOTH",
"569 -10 OFFCURVE",
"698 62 OFFCURVE",
"698 293 CURVE SMOOTH"
);
}
);
};
layerId = "258ED206-D907-4350-8EBA-CBDDA1C16BF7";
paths = (
{
closed = 1;
nodes = (
"569 -10 OFFCURVE",
"667 115 OFFCURVE",
"695 299 CURVE SMOOTH",
"759 723 LINE",
"563 723 LINE",
"498 291 LINE SMOOTH",
"483 191 OFFCURVE",
"422 153 OFFCURVE",
"363 153 CURVE SMOOTH",
"302 153 OFFCURVE",
"254 191 OFFCURVE",
"269 291 CURVE SMOOTH",
"335 723 LINE",
"139 723 LINE",
"75 299 LINE SMOOTH",
"47 115 OFFCURVE",
"106 -10 OFFCURVE",
"338 -10 CURVE SMOOTH"
);
}
);
width = 749;
},
{
anchors = (
{
name = bottom;
position = "{289, 2}";
},
{
name = horn;
position = "{582, 606}";
},
{
name = ogonek;
position = "{356, 9}";
},
{
name = top;
position = "{393, 723}";
}
);
background = {
anchors = (
{
name = ogonek;
position = "{421, 9}";
},
{
name = top;
position = "{353, 742}";
}
);
paths = (
{
closed = 1;
nodes = (
"596 733 LINE SMOOTH",
"596 739 OFFCURVE",
"594 742 OFFCURVE",
"588 742 CURVE SMOOTH",
"564 742 LINE SMOOTH",
"558 742 OFFCURVE",
"556 739 OFFCURVE",
"556 733 CURVE SMOOTH",
"556 229 LINE SMOOTH",
"556 97 OFFCURVE",
"489 32 OFFCURVE",
"351 32 CURVE SMOOTH",
"215 32 OFFCURVE",
"148 96 OFFCURVE",
"148 226 CURVE SMOOTH",
"148 732 LINE SMOOTH",
"148 740 OFFCURVE",
"146 742 OFFCURVE",
"138 742 CURVE SMOOTH",
"110 742 LINE SMOOTH",
"104 742 OFFCURVE",
"102 739 OFFCURVE",
"102 731 CURVE SMOOTH",
"102 245 LINE SMOOTH",
"102 71 OFFCURVE",
"181 -10 OFFCURVE",
"349 -10 CURVE SMOOTH",
"515 -10 OFFCURVE",
"596 69 OFFCURVE",
"596 230 CURVE SMOOTH"
);
}
);
};
layerId = "91AB5BCA-6A50-42DA-B2F7-8181BF189245";
paths = (
{
closed = 1;
nodes = (
"437 -10 OFFCURVE",
"520 67 OFFCURVE",
"542 224 CURVE SMOOTH",
"612 723 LINE",
"576 723 LINE",
"506 222 LINE SMOOTH",
"488 94 OFFCURVE",
"417 28 OFFCURVE",
"294 28 CURVE SMOOTH",
"172 28 OFFCURVE",
"123 96 OFFCURVE",
"141 222 CURVE SMOOTH",
"211 723 LINE",
"172 723 LINE",
"104 239 LINE SMOOTH",
"80 69 OFFCURVE",
"138 -10 OFFCURVE",
"289 -10 CURVE SMOOTH"
);
}
);
width = 654;
}
);
leftKerningGroup = U;
rightKerningGroup = U;
unicode = 0055;
},
{
glyphname = V;
lastChange = "2019-04-15 22:22:15 +0000";
layers = (
{
background = {
paths = (
{
closed = 1;
nodes = (
"554 742 LINE SMOOTH",
"542 742 OFFCURVE",
"531 734 OFFCURVE",
"528 721 CURVE SMOOTH",
"403 283 LINE SMOOTH",
"400 273 OFFCURVE",
"396 273 OFFCURVE",
"393 282 CURVE SMOOTH",
"259 721 LINE SMOOTH",
"255 734 OFFCURVE",
"246 742 OFFCURVE",
"234 742 CURVE SMOOTH",
"41 742 LINE SMOOTH",
"25 742 OFFCURVE",
"16 728 OFFCURVE",
"22 713 CURVE SMOOTH",
"254 25 LINE SMOOTH",
"259 8 OFFCURVE",
"271 0 OFFCURVE",
"291 0 CURVE SMOOTH",
"453 0 LINE SMOOTH",
"473 0 OFFCURVE",
"485 8 OFFCURVE",
"490 25 CURVE SMOOTH",
"722 713 LINE SMOOTH",
"727 728 OFFCURVE",
"719 742 OFFCURVE",
"703 742 CURVE SMOOTH"
);
}
);
};
guideLines = (
{
angle = -108.62;
position = "{373, 211}";
}
);
layerId = "258ED206-D907-4350-8EBA-CBDDA1C16BF7";
paths = (
{
closed = 1;
nodes = (
"421 0 LINE",
"774 723 LINE",
"591 723 LINE",
"350 228 LINE",
"258 723 LINE",
"76 723 LINE",
"209 0 LINE"
);
}
);
width = 720;
},
{
background = {
paths = (
{
closed = 1;
nodes = (
"562 742 LINE SMOOTH",
"556 742 OFFCURVE",
"553 740 OFFCURVE",
"551 735 CURVE SMOOTH",
"307 65 LINE SMOOTH",
"302 51 OFFCURVE",
"296 51 OFFCURVE",
"291 64 CURVE SMOOTH",
"54 734 LINE SMOOTH",
"52 740 OFFCURVE",
"49 742 OFFCURVE",
"41 742 CURVE SMOOTH",
"18 742 LINE SMOOTH",
"11 742 OFFCURVE",
"8 738 OFFCURVE",
"10 732 CURVE SMOOTH",
"265 10 LINE SMOOTH",
"267 3 OFFCURVE",
"273 0 OFFCURVE",
"284 0 CURVE SMOOTH",
"316 0 LINE SMOOTH",
"325 0 OFFCURVE",
"329 3 OFFCURVE",
"332 11 CURVE SMOOTH",
"594 733 LINE SMOOTH",
"596 738 OFFCURVE",
"593 742 OFFCURVE",
"587 742 CURVE SMOOTH"
);
}
);
};
layerId = "91AB5BCA-6A50-42DA-B2F7-8181BF189245";
paths = (
{
closed = 1;
nodes = (
"266 0 LINE",
"609 723 LINE",
"570 723 LINE",
"245 41 LINE",
"118 723 LINE",
"79 723 LINE",
"213 0 LINE"
);
}
);
width = 557;
}
);
leftKerningGroup = V;
rightKerningGroup = V;
unicode = 0056;
},
{
glyphname = W;
lastChange = "2019-04-15 22:22:15 +0000";
layers = (
{
anchors = (
{
name = top;
position = "{554, 723}";
}
);
background = {
anchors = (
{
name = top;
position = "{527, 742}";
}
);
paths = (
{
closed = 1;
nodes = (
"907 742 LINE SMOOTH",
"886 742 OFFCURVE",
"878 734 OFFCURVE",
"875 721 CURVE SMOOTH",
"773 339 LINE SMOOTH",
"771 331 OFFCURVE",
"764 333 OFFCURVE",
"762 341 CURVE SMOOTH",
"652 721 LINE SMOOTH",
"648 734 OFFCURVE",
"641 742 OFFCURVE",
"620 742 CURVE SMOOTH",
"480 742 LINE SMOOTH",
"459 742 OFFCURVE",
"451 734 OFFCURVE",
"448 721 CURVE SMOOTH",
"343 346 LINE SMOOTH",
"340 335 OFFCURVE",
"335 335 OFFCURVE",
"331 350 CURVE SMOOTH",
"225 721 LINE SMOOTH",
"221 734 OFFCURVE",
"214 742 OFFCURVE",
"193 742 CURVE SMOOTH",
"28 742 LINE SMOOTH",
"2 742 OFFCURVE",
"-8 725 OFFCURVE",
"-2 702 CURVE SMOOTH",
"202 25 LINE SMOOTH",
"208 8 OFFCURVE",
"218 0 OFFCURVE",
"238 0 CURVE SMOOTH",
"381 0 LINE SMOOTH",
"402 0 OFFCURVE",
"412 8 OFFCURVE",
"417 25 CURVE SMOOTH",
"520 375 LINE SMOOTH",
"527 395 OFFCURVE",
"532 393 OFFCURVE",
"536 377 CURVE SMOOTH",
"640 25 LINE SMOOTH",
"645 8 OFFCURVE",
"656 0 OFFCURVE",
"676 0 CURVE SMOOTH",
"814 0 LINE SMOOTH",
"834 0 OFFCURVE",
"844 8 OFFCURVE",
"850 25 CURVE SMOOTH",
"1053 702 LINE SMOOTH",
"1059 725 OFFCURVE",
"1049 742 OFFCURVE",
"1023 742 CURVE SMOOTH"
);
}
);
};
guideLines = (
{
angle = -73.94;
position = "{226, 670}";
},
{
angle = 74.3834;
position = "{429, 670}";
}
);
layerId = "258ED206-D907-4350-8EBA-CBDDA1C16BF7";
paths = (
{
closed = 1;
nodes = (
"330 0 LINE",
"504 393 LINE",
"558 0 LINE",
"702 0 LINE",
"1027 723 LINE",
"840 723 LINE",
"674 335 LINE",
"621 723 LINE",
"486 723 LINE",
"320 335 LINE",
"268 723 LINE",
"81 723 LINE",
"188 0 LINE"
);
}
);
width = 978;
},
{
anchors = (
{
name = top;
position = "{499, 723}";
}
);
background = {
anchors = (
{
name = top;
position = "{467, 742}";
}
);
guideLines = (
{
position = "{1, 125}";
showMeasurement = 1;
}
);
paths = (
{
closed = 1;
nodes = (
"889 742 LINE SMOOTH",
"883 742 OFFCURVE",
"878 740 OFFCURVE",
"877 735 CURVE SMOOTH",
"688 72 LINE SMOOTH",
"684 58 OFFCURVE",
"680 58 OFFCURVE",
"676 71 CURVE SMOOTH",
"491 734 LINE SMOOTH",
"489 740 OFFCURVE",
"487 742 OFFCURVE",
"479 742 CURVE SMOOTH",
"454 742 LINE SMOOTH",
"445 742 OFFCURVE",
"442 738 OFFCURVE",
"441 735 CURVE SMOOTH",
"252 72 LINE SMOOTH",
"248 58 OFFCURVE",
"244 58 OFFCURVE",
"240 71 CURVE SMOOTH",
"55 734 LINE SMOOTH",
"53 740 OFFCURVE",
"51 742 OFFCURVE",
"43 742 CURVE SMOOTH",
"18 742 LINE SMOOTH",
"11 742 OFFCURVE",
"8 738 OFFCURVE",
"10 732 CURVE SMOOTH",
"212 10 LINE SMOOTH",
"214 3 OFFCURVE",
"220 0 OFFCURVE",
"230 0 CURVE SMOOTH",
"262 0 LINE SMOOTH",
"272 0 OFFCURVE",
"276 3 OFFCURVE",
"278 11 CURVE SMOOTH",
"463 658 LINE SMOOTH",
"464 662 OFFCURVE",
"466 662 OFFCURVE",
"467 658 CURVE SMOOTH",
"648 10 LINE SMOOTH",
"650 3 OFFCURVE",
"656 0 OFFCURVE",
"666 0 CURVE SMOOTH",
"698 0 LINE SMOOTH",
"708 0 OFFCURVE",
"712 3 OFFCURVE",
"714 11 CURVE SMOOTH",
"921 733 LINE SMOOTH",
"922 738 OFFCURVE",
"920 742 OFFCURVE",
"914 742 CURVE SMOOTH"
);
}
);
};
guideLines = (
{
position = "{74, 116}";
showMeasurement = 1;
}
);
layerId = "91AB5BCA-6A50-42DA-B2F7-8181BF189245";
paths = (
{
closed = 1;
nodes = (
"226 0 LINE",
"487 648 LINE",
"563 0 LINE",
"613 0 LINE",
"906 723 LINE",
"867 723 LINE",
"596 49 LINE",
"516 723 LINE",
"480 723 LINE",
"209 49 LINE",
"134 723 LINE",
"93 723 LINE",
"178 0 LINE"
);
}
);
width = 869;
}
);
leftKerningGroup = W;
rightKerningGroup = W;
unicode = 0057;
},
{
glyphname = X;
lastChange = "2019-04-15 22:22:15 +0000";
layers = (
{
background = {
paths = (
{
closed = 1;
nodes = (
"504 403 LINE",
"726 742 LINE",
"509 742 LINE",
"395 541 LINE",
"281 742 LINE",
"26 742 LINE",
"262 374 LINE",
"53 51 LINE SMOOTH",
"27 11 OFFCURVE",
"38 0 OFFCURVE",
"66 0 CURVE SMOOTH",
"240 0 LINE",
"373 233 LINE",
"509 0 LINE",
"719 0 LINE SMOOTH",
"747 0 OFFCURVE",
"758 12 OFFCURVE",
"733 51 CURVE SMOOTH"
);
}
);
};
layerId = "258ED206-D907-4350-8EBA-CBDDA1C16BF7";
paths = (
{
closed = 1;
nodes = (
"186 0 LINE",
"349 227 LINE",
"447 0 LINE",
"688 0 LINE",
"495 393 LINE",
"759 723 LINE",
"557 723 LINE",
"417 527 LINE",
"335 723 LINE",
"96 723 LINE",
"270 365 LINE",
"-20 0 LINE"
);
}
);
width = 740;
},
{
background = {
guideLines = (
{
angle = 90;
position = "{35, 437}";
},
{
angle = 90;
position = "{546, 372}";
},
{
position = "{1, 716}";
showMeasurement = 1;
},
{
position = "{-5, 32}";
showMeasurement = 1;
},
{
position = "{65, 454}";
showMeasurement = 1;
},
{
position = "{63, 290}";
showMeasurement = 1;
},
{
angle = 236.602;
position = "{278, 374}";
},
{
angle = 123.344;
position = "{335, 374}";
},
{
angle = 56.5817;
position = "{323, 370}";
},
{
angle = 123.4;
position = "{288, 370}";
}
);
paths = (
{
closed = 1;
nodes = (
"337 374 LINE SMOOTH",
"333 380 OFFCURVE",
"334 384 OFFCURVE",
"338 390 CURVE SMOOTH",
"572 736 LINE SMOOTH",
"574 739 OFFCURVE",
"574 742 OFFCURVE",
"570 742 CURVE SMOOTH",
"529 742 LINE SMOOTH",
"525 742 OFFCURVE",
"523 741 OFFCURVE",
"521 738 CURVE SMOOTH",
"314 431 LINE SMOOTH",
"307 421 OFFCURVE",
"303 422 OFFCURVE",
"297 430 CURVE SMOOTH",
"90 738 LINE SMOOTH",
"88 741 OFFCURVE",
"87 742 OFFCURVE",
"81 742 CURVE SMOOTH",
"42 742 LINE SMOOTH",
"38 742 OFFCURVE",
"37 737 OFFCURVE",
"39 734 CURVE SMOOTH",
"271 391 LINE SMOOTH",
"276 383 OFFCURVE",
"277 377 OFFCURVE",
"272 370 CURVE SMOOTH",
"30 10 LINE SMOOTH",
"25 2 OFFCURVE",
"27 0 OFFCURVE",
"33 0 CURVE SMOOTH",
"69 0 LINE SMOOTH",
"72 0 OFFCURVE",
"75 1 OFFCURVE",
"77 4 CURVE SMOOTH",
"294 324 LINE SMOOTH",
"304 339 OFFCURVE",
"308 338 OFFCURVE",
"315 327 CURVE SMOOTH",
"535 4 LINE SMOOTH",
"537 1 OFFCURVE",
"538 0 OFFCURVE",
"542 0 CURVE SMOOTH",
"578 0 LINE SMOOTH",
"584 0 OFFCURVE",
"588 2 OFFCURVE",
"582 10 CURVE SMOOTH"
);
}
);
};
guideLines = (
{
angle = 90;
position = "{106, 405}";
},
{
angle = 90;
position = "{556, 345}";
},
{
position = "{76, 664}";
showMeasurement = 1;
},
{
position = "{71, 29}";
showMeasurement = 1;
},
{
position = "{132, 421}";
showMeasurement = 1;
},
{
position = "{130, 269}";
showMeasurement = 1;
},
{
angle = 236.602;
position = "{320, 347}";
},
{
angle = 123.344;
position = "{369, 347}";
},
{
angle = 56.5817;
position = "{360, 343}";
},
{
angle = 123.4;
position = "{328, 343}";
}
);
layerId = "91AB5BCA-6A50-42DA-B2F7-8181BF189245";
paths = (
{
closed = 1;
nodes = (
"38 0 LINE",
"293 332 LINE",
"454 0 LINE",
"500 0 LINE",
"321 371 LINE",
"590 723 LINE",
"544 723 LINE",
"303 408 LINE",
"152 723 LINE",
"104 723 LINE",
"274 371 LINE",
"-8 0 LINE"
);
}
);
width = 564;
}
);
leftKerningGroup = X;
rightKerningGroup = X;
unicode = 0058;
},
{
glyphname = Y;
lastChange = "2019-04-15 22:22:15 +0000";
layers = (
{
anchors = (
{
name = bottom;
position = "{311, 0}";
},
{
name = top;
position = "{446, 723}";
}
);
background = {
anchors = (
{
name = top;
position = "{394, 742}";
}
);
paths = (
{
closed = 1;
nodes = (
"567 742 LINE SMOOTH",
"548 742 OFFCURVE",
"541 738 OFFCURVE",
"533 721 CURVE SMOOTH",
"412 498 LINE SMOOTH",
"405 486 OFFCURVE",
"401 487 OFFCURVE",
"395 499 CURVE SMOOTH",
"272 721 LINE SMOOTH",
"263 737 OFFCURVE",
"258 742 OFFCURVE",
"238 742 CURVE SMOOTH",
"37 742 LINE SMOOTH",
"16 742 OFFCURVE",
"9 730 OFFCURVE",
"19 714 CURVE SMOOTH",
"253 332 LINE SMOOTH",
"262 317 OFFCURVE",
"267 309 OFFCURVE",
"267 288 CURVE SMOOTH",
"267 25 LINE SMOOTH",
"267 8 OFFCURVE",
"273 0 OFFCURVE",
"293 0 CURVE SMOOTH",
"461 0 LINE SMOOTH",
"484 0 OFFCURVE",
"494 8 OFFCURVE",
"494 29 CURVE SMOOTH",
"494 275 LINE SMOOTH",
"494 317 OFFCURVE",
"495 327 OFFCURVE",
"504 341 CURVE SMOOTH",
"738 719 LINE SMOOTH",
"746 732 OFFCURVE",
"741 742 OFFCURVE",
"724 742 CURVE SMOOTH"
);
}
);
};
guideLines = (
{
angle = 58.823;
position = "{500, 670}";
}
);
layerId = "258ED206-D907-4350-8EBA-CBDDA1C16BF7";
paths = (
{
closed = 1;
nodes = (
"407 0 LINE",
"453 301 LINE",
"773 723 LINE",
"562 723 LINE",
"382 466 LINE",
"279 723 LINE",
"70 723 LINE",
"259 301 LINE",
"214 0 LINE"
);
}
);
width = 714;
},
{
anchors = (
{
name = bottom;
position = "{213, 0}";
},
{
name = top;
position = "{313, 725}";
}
);
background = {
anchors = (
{
name = top;
position = "{266, 742}";
}
);
paths = (
{
closed = 1;
nodes = (
"508 742 LINE SMOOTH",
"499 742 OFFCURVE",
"497 741 OFFCURVE",
"492 733 CURVE SMOOTH",
"283 374 LINE SMOOTH",
"275 361 OFFCURVE",
"268 360 OFFCURVE",
"259 376 CURVE SMOOTH",
"49 733 LINE SMOOTH",
"45 740 OFFCURVE",
"42 742 OFFCURVE",
"33 742 CURVE SMOOTH",
"10 742 LINE SMOOTH",
"0 742 OFFCURVE",
"-2 737 OFFCURVE",
"2 730 CURVE SMOOTH",
"246 315 LINE SMOOTH",
"250 308 OFFCURVE",
"251 305 OFFCURVE",
"251 295 CURVE SMOOTH",
"251 11 LINE SMOOTH",
"251 4 OFFCURVE",
"254 0 OFFCURVE",
"263 0 CURVE SMOOTH",
"282 0 LINE SMOOTH",
"293 0 OFFCURVE",
"297 4 OFFCURVE",
"297 13 CURVE SMOOTH",
"297 306 LINE SMOOTH",
"297 316 OFFCURVE",
"297 320 OFFCURVE",
"301 326 CURVE SMOOTH",
"540 731 LINE SMOOTH",
"544 737 OFFCURVE",
"541 742 OFFCURVE",
"534 742 CURVE SMOOTH"
);
}
);
};
guideLines = (
{
angle = 239.8907;
position = "{221, 335}";
},
{
angle = -59.5603;
position = "{186, 328}";
}
);
layerId = "91AB5BCA-6A50-42DA-B2F7-8181BF189245";
paths = (
{
closed = 1;
nodes = (
"230 0 LINE",
"274 311 LINE",
"551 723 LINE",
"511 723 LINE",
"262 351 LINE",
"114 723 LINE",
"74 723 LINE",
"238 312 LINE",
"195 0 LINE"
);
}
);
width = 495;
}
);
leftKerningGroup = Y;
rightKerningGroup = Y;
unicode = 0059;
},
{
glyphname = Z;
lastChange = "2019-04-15 22:07:59 +0000";
layers = (
{
anchors = (
{
name = bottom;
position = "{320, 0}";
},
{
name = top;
position = "{453, 723}";
}
);
background = {
anchors = (
{
name = bottom;
position = "{373, 0}";
},
{
name = top;
position = "{397, 742}";
}
);
paths = (
{
closed = 1;
nodes = (
"703 0 LINE",
"703 166 LINE",
"362 166 LINE",
"709 654 LINE",
"709 742 LINE",
"85 742 LINE",
"85 577 LINE",
"392 577 LINE",
"52 91 LINE",
"52 0 LINE"
);
}
);
};
layerId = "258ED206-D907-4350-8EBA-CBDDA1C16BF7";
paths = (
{
closed = 1;
nodes = (
"620 0 LINE",
"645 162 LINE",
"305 162 LINE",
"723 638 LINE",
"736 723 LINE",
"151 723 LINE",
"126 563 LINE",
"433 563 LINE",
"23 89 LINE",
"9 0 LINE"
);
}
);
width = 711;
},
{
anchors = (
{
name = bottom;
position = "{249, 0}";
},
{
name = top;
position = "{344, 723}";
}
);
background = {
anchors = (
{
name = bottom;
position = "{310, 0}";
},
{
name = top;
position = "{303, 742}";
}
);
paths = (
{
closed = 1;
nodes = (
"542 0 LINE",
"542 40 LINE",
"108 40 LINE",
"542 715 LINE",
"542 742 LINE",
"63 742 LINE",
"63 702 LINE",
"484 702 LINE",
"53 28 LINE",
"53 0 LINE"
);
}
);
};
guideLines = (
{
angle = 237.1304;
position = "{458, 659}";
}
);
layerId = "91AB5BCA-6A50-42DA-B2F7-8181BF189245";
paths = (
{
closed = 1;
nodes = (
"457 0 LINE",
"463 39 LINE",
"70 39 LINE",
"555 693 LINE",
"559 723 LINE",
"129 723 LINE",
"124 684 LINE",
"506 684 LINE",
"24 31 LINE",
"19 0 LINE"
);
}
);
width = 549;
}
);
leftKerningGroup = Z;
rightKerningGroup = Z;
unicode = 005A;
},
{
glyphname = a;
lastChange = "2019-04-15 22:11:46 +0000";
layers = (
{
anchors = (
{
name = bottom;
position = "{253, 0}";
},
{
name = ogonek;
position = "{460, 10}";
},
{
name = top;
position = "{332, 517}";
}
);
background = {
anchors = (
{
name = ogonek;
position = "{493, 10}";
},
{
name = top;
position = "{281, 530}";
}
);
guideLines = (
{
angle = 90;
position = "{331, 102}";
}
);
paths = (
{
closed = 1;
nodes = (
"324 56 OFFCURVE",
"332 55 OFFCURVE",
"334 42 CURVE SMOOTH",
"335 35 LINE SMOOTH",
"338 16 OFFCURVE",
"343 0 OFFCURVE",
"361 0 CURVE SMOOTH",
"498 0 LINE SMOOTH",
"517 0 OFFCURVE",
"521 7 OFFCURVE",
"521 27 CURVE SMOOTH",
"521 375 LINE SMOOTH",
"521 473 OFFCURVE",
"466 540 OFFCURVE",
"281 540 CURVE SMOOTH",
"150 540 OFFCURVE",
"59 506 OFFCURVE",
"29 421 CURVE SMOOTH",
"20 396 OFFCURVE",
"26 391 OFFCURVE",
"36 389 CURVE SMOOTH",
"167 363 LINE SMOOTH",
"185 360 OFFCURVE",
"189 363 OFFCURVE",
"194 374 CURVE SMOOTH",
"211 411 OFFCURVE",
"244 421 OFFCURVE",
"272 421 CURVE SMOOTH",
"312 421 OFFCURVE",
"331 400 OFFCURVE",
"331 363 CURVE SMOOTH",
"331 346 LINE SMOOTH",
"331 334 OFFCURVE",
"321 332 OFFCURVE",
"316 332 CURVE SMOOTH",
"309 332 LINE SMOOTH",
"120 332 OFFCURVE",
"2 253 OFFCURVE",
"2 136 CURVE SMOOTH",
"2 53 OFFCURVE",
"62 -10 OFFCURVE",
"162 -10 CURVE SMOOTH",
"224 -10 OFFCURVE",
"271 12 OFFCURVE",
"307 42 CURVE SMOOTH"
);
},
{
closed = 1;
nodes = (
"331 171 LINE SMOOTH",
"331 156 OFFCURVE",
"320 145 OFFCURVE",
"308 135 CURVE SMOOTH",
"297 126 OFFCURVE",
"279 116 OFFCURVE",
"253 116 CURVE SMOOTH",
"217 116 OFFCURVE",
"196 135 OFFCURVE",
"196 163 CURVE SMOOTH",
"196 219 OFFCURVE",
"280 242 OFFCURVE",
"312 242 CURVE SMOOTH",
"316 242 LINE SMOOTH",
"328 242 OFFCURVE",
"331 236 OFFCURVE",
"331 224 CURVE SMOOTH"
);
}
);
};
guideLines = (
{
angle = 270;
position = "{328, 93}";
},
{
angle = 270;
position = "{293, 516}";
}
);
layerId = "258ED206-D907-4350-8EBA-CBDDA1C16BF7";
paths = (
{
closed = 1;
nodes = (
"234 -10 OFFCURVE",
"280 12 OFFCURVE",
"322 82 CURVE",
"326 0 LINE",
"486 0 LINE",
"542 366 LINE SMOOTH",
"556 461 OFFCURVE",
"512 527 OFFCURVE",
"334 527 CURVE SMOOTH",
"201 527 OFFCURVE",
"87 478 OFFCURVE",
"62 356 CURVE",
"219 356 LINE",
"240 391 OFFCURVE",
"279 400 OFFCURVE",
"306 401 CURVE SMOOTH",
"344 402 OFFCURVE",
"360 387 OFFCURVE",
"355 354 CURVE SMOOTH",
"352 332 LINE",
"312 332 LINE SMOOTH",
"125 332 OFFCURVE",
"29 267 OFFCURVE",
"12 155 CURVE SMOOTH",
"-4 48 OFFCURVE",
"67 -10 OFFCURVE",
"165 -10 CURVE SMOOTH"
);
},
{
closed = 1;
nodes = (
"218 113 OFFCURVE",
"191 136 OFFCURVE",
"197 175 CURVE SMOOTH",
"204 226 OFFCURVE",
"276 240 OFFCURVE",
"307 240 CURVE SMOOTH",
"338 240 LINE",
"328 175 LINE",
"322 142 OFFCURVE",
"289 113 OFFCURVE",
"251 113 CURVE SMOOTH"
);
}
);
width = 573;
},
{
anchors = (
{
name = bottom;
position = "{217, 0}";
},
{
name = ogonek;
position = "{384, 14}";
},
{
name = top;
position = "{289, 517}";
}
);
background = {
anchors = (
{
name = ogonek;
position = "{447, 14}";
},
{
name = top;
position = "{262, 530}";
}
);
paths = (
{
closed = 1;
nodes = (
"409 78 OFFCURVE",
"413 77 OFFCURVE",
"414 70 CURVE SMOOTH",
"416 9 LINE SMOOTH",
"416 2 OFFCURVE",
"419 0 OFFCURVE",
"425 0 CURVE SMOOTH",
"443 0 LINE SMOOTH",
"449 0 OFFCURVE",
"453 2 OFFCURVE",
"453 10 CURVE SMOOTH",
"453 367 LINE SMOOTH",
"453 475 OFFCURVE",
"379 540 OFFCURVE",
"266 540 CURVE SMOOTH",
"171 540 OFFCURVE",
"104 493 OFFCURVE",
"62 431 CURVE SMOOTH",
"58 426 OFFCURVE",
"59 423 OFFCURVE",
"62 421 CURVE SMOOTH",
"86 406 LINE SMOOTH",
"90 403 OFFCURVE",
"92 405 OFFCURVE",
"96 410 CURVE SMOOTH",
"141 470 OFFCURVE",
"195 502 OFFCURVE",
"264 502 CURVE SMOOTH",
"354 502 OFFCURVE",
"413 448 OFFCURVE",
"413 363 CURVE SMOOTH",
"413 332 LINE SMOOTH",
"413 323 OFFCURVE",
"407 318 OFFCURVE",
"396 317 CURVE SMOOTH",
"291 308 LINE SMOOTH",
"127 294 OFFCURVE",
"44 236 OFFCURVE",
"44 135 CURVE SMOOTH",
"44 45 OFFCURVE",
"109 -10 OFFCURVE",
"214 -10 CURVE SMOOTH",
"288 -10 OFFCURVE",
"349 17 OFFCURVE",
"404 72 CURVE SMOOTH"
);
},
{
closed = 1;
nodes = (
"413 171 LINE SMOOTH",
"413 141 OFFCURVE",
"393 107 OFFCURVE",
"356 77 CURVE SMOOTH",
"318 47 OFFCURVE",
"269 28 OFFCURVE",
"220 28 CURVE SMOOTH",
"139 28 OFFCURVE",
"86 69 OFFCURVE",
"86 138 CURVE SMOOTH",
"86 215 OFFCURVE",
"153 261 OFFCURVE",
"310 273 CURVE SMOOTH",
"399 280 LINE SMOOTH",
"408 281 OFFCURVE",
"413 277 OFFCURVE",
"413 266 CURVE SMOOTH"
);
}
);
};
guideLines = (
{
position = "{354, 208}";
showMeasurement = 1;
}
);
hints = (
{
horizontal = 1;
place = "{3509, 151}";
type = Stem;
}
);
layerId = "91AB5BCA-6A50-42DA-B2F7-8181BF189245";
paths = (
{
closed = 1;
nodes = (
"242 -10 OFFCURVE",
"313 14 OFFCURVE",
"367 100 CURVE",
"355 0 LINE",
"388 0 LINE",
"438 358 LINE SMOOTH",
"453 463 OFFCURVE",
"391 527 OFFCURVE",
"290 527 CURVE SMOOTH",
"179 527 OFFCURVE",
"108 452 OFFCURVE",
"93 379 CURVE",
"132 379 LINE",
"152 450 OFFCURVE",
"214 489 OFFCURVE",
"283 489 CURVE SMOOTH",
"364 489 OFFCURVE",
"414 440 OFFCURVE",
"402 357 CURVE SMOOTH",
"395 307 LINE",
"285 303 LINE SMOOTH",
"126 297 OFFCURVE",
"55 248 OFFCURVE",
"39 132 CURVE SMOOTH",
"27 44 OFFCURVE",
"78 -10 OFFCURVE",
"172 -10 CURVE SMOOTH"
);
},
{
closed = 1;
nodes = (
"110 27 OFFCURVE",
"68 67 OFFCURVE",
"77 135 CURVE SMOOTH",
"90 225 OFFCURVE",
"145 263 OFFCURVE",
"297 266 CURVE SMOOTH",
"389 268 LINE",
"375 167 LINE SMOOTH",
"365 97 OFFCURVE",
"262 27 OFFCURVE",
"183 27 CURVE SMOOTH"
);
}
);
width = 506;
}
);
leftKerningGroup = a;
rightKerningGroup = n;
unicode = 0061;
},
{
glyphname = ae;
lastChange = "2019-04-15 22:22:15 +0000";
layers = (
{
anchors = (
{
name = top;
position = "{492, 517}";
}
);
background = {
anchors = (
{
name = top;
position = "{445, 530}";
}
);
paths = (
{
closed = 1;
nodes = (
"867 229 LINE SMOOTH",
"884 230 OFFCURVE",
"885 237 OFFCURVE",
"885 254 CURVE SMOOTH",
"885 435 OFFCURVE",
"770 540 OFFCURVE",
"613 540 CURVE SMOOTH",
"561 540 OFFCURVE",
"511 526 OFFCURVE",
"468 500 CURVE",
"430 525 OFFCURVE",
"371 539 OFFCURVE",
"282 540 CURVE SMOOTH",
"129 540 OFFCURVE",
"72 499 OFFCURVE",
"34 421 CURVE SMOOTH",
"29 410 OFFCURVE",
"32 391 OFFCURVE",
"41 389 CURVE SMOOTH",
"172 363 LINE SMOOTH",
"190 360 OFFCURVE",
"194 361 OFFCURVE",
"199 374 CURVE",
"216 411 OFFCURVE",
"249 421 OFFCURVE",
"277 421 CURVE SMOOTH",
"317 421 OFFCURVE",
"336 400 OFFCURVE",
"336 363 CURVE SMOOTH",
"336 346 LINE SMOOTH",
"336 334 OFFCURVE",
"326 332 OFFCURVE",
"318 332 CURVE",
"295 331 LINE SMOOTH",
"103 322 OFFCURVE",
"7 250 OFFCURVE",
"7 143 CURVE SMOOTH",
"7 52 OFFCURVE",
"67 -10 OFFCURVE",
"180 -10 CURVE SMOOTH",
"272 -10 OFFCURVE",
"337 12 OFFCURVE",
"398 71 CURVE SMOOTH",
"402 75 OFFCURVE",
"405 75 OFFCURVE",
"409 71 CURVE SMOOTH",
"459 20 OFFCURVE",
"533 -10 OFFCURVE",
"617 -10 CURVE SMOOTH",
"729 -10 OFFCURVE",
"797 17 OFFCURVE",
"869 118 CURVE",
"878 129 OFFCURVE",
"875 138 OFFCURVE",
"865 142 CURVE SMOOTH",
"774 179 LINE SMOOTH",
"761 184 OFFCURVE",
"758 183 OFFCURVE",
"753 178 CURVE SMOOTH",
"709 135 OFFCURVE",
"678 122 OFFCURVE",
"644 122 CURVE SMOOTH",
"586 122 OFFCURVE",
"541 151 OFFCURVE",
"541 212 CURVE SMOOTH",
"541 224 OFFCURVE",
"546 229 OFFCURVE",
"556 229 CURVE SMOOTH"
);
},
{
closed = 1;
nodes = (
"672 423 OFFCURVE",
"691 372 OFFCURVE",
"691 346 CURVE SMOOTH",
"691 334 OFFCURVE",
"687 332 OFFCURVE",
"674 332 CURVE SMOOTH",
"544 333 LINE",
"543 395 OFFCURVE",
"581 423 OFFCURVE",
"622 423 CURVE SMOOTH"
);
},
{
closed = 1;
nodes = (
"336 160 LINE SMOOTH",
"336 127 OFFCURVE",
"299 108 OFFCURVE",
"261 108 CURVE SMOOTH",
"222 108 OFFCURVE",
"201 127 OFFCURVE",
"201 156 CURVE SMOOTH",
"201 205 OFFCURVE",
"266 230 OFFCURVE",
"304 233 CURVE SMOOTH",
"318 234 LINE SMOOTH",
"330 234 OFFCURVE",
"336 228 OFFCURVE",
"336 216 CURVE SMOOTH"
);
}
);
};
layerId = "258ED206-D907-4350-8EBA-CBDDA1C16BF7";
paths = (
{
closed = 1;
nodes = (
"245 -10 OFFCURVE",
"311 12 OFFCURVE",
"379 69 CURVE SMOOTH",
"383 73 OFFCURVE",
"386 73 OFFCURVE",
"389 69 CURVE SMOOTH",
"430 20 OFFCURVE",
"497 -10 OFFCURVE",
"579 -10 CURVE SMOOTH",
"692 -10 OFFCURVE",
"766 20 OFFCURVE",
"857 132 CURVE",
"747 180 LINE",
"694 134 OFFCURVE",
"660 119 OFFCURVE",
"624 119 CURVE SMOOTH",
"569 119 OFFCURVE",
"530 152 OFFCURVE",
"541 223 CURVE",
"874 223 LINE",
"903 415 OFFCURVE",
"808 527 OFFCURVE",
"656 527 CURVE SMOOTH",
"607 527 OFFCURVE",
"556 513 OFFCURVE",
"510 488 CURVE",
"477 512 OFFCURVE",
"422 526 OFFCURVE",
"336 527 CURVE SMOOTH",
"181 527 OFFCURVE",
"113 477 OFFCURVE",
"60 383 CURVE",
"222 350 LINE",
"247 398 OFFCURVE",
"284 410 OFFCURVE",
"314 410 CURVE SMOOTH",
"353 410 OFFCURVE",
"367 390 OFFCURVE",
"362 354 CURVE SMOOTH",
"358 325 LINE",
"317 323 LINE SMOOTH",
"130 314 OFFCURVE",
"26 244 OFFCURVE",
"10 139 CURVE SMOOTH",
"-3 51 OFFCURVE",
"46 -10 OFFCURVE",
"156 -10 CURVE SMOOTH"
);
},
{
closed = 1;
nodes = (
"214 105 OFFCURVE",
"197 124 OFFCURVE",
"201 152 CURVE SMOOTH",
"208 200 OFFCURVE",
"275 224 OFFCURVE",
"312 227 CURVE SMOOTH",
"343 229 LINE",
"332 156 LINE SMOOTH",
"327 124 OFFCURVE",
"288 105 OFFCURVE",
"252 105 CURVE SMOOTH"
);
},
{
closed = 1;
nodes = (
"559 325 LINE",
"567 385 OFFCURVE",
"608 412 OFFCURVE",
"648 412 CURVE SMOOTH",
"697 412 OFFCURVE",
"706 354 OFFCURVE",
"701 324 CURVE"
);
}
);
width = 906;
},
{
anchors = (
{
name = top;
position = "{456, 517}";
}
);
background = {
anchors = (
{
name = top;
position = "{432, 530}";
}
);
paths = (
{
closed = 1;
nodes = (
"842 254 LINE SMOOTH",
"856 254 OFFCURVE",
"860 261 OFFCURVE",
"860 274 CURVE SMOOTH",
"860 444 OFFCURVE",
"768 540 OFFCURVE",
"631 540 CURVE SMOOTH",
"537 540 OFFCURVE",
"465 500 OFFCURVE",
"425 421 CURVE",
"405 501 OFFCURVE",
"349 540 OFFCURVE",
"250 540 CURVE SMOOTH",
"165 540 OFFCURVE",
"88 500 OFFCURVE",
"45 431 CURVE SMOOTH",
"42 426 OFFCURVE",
"42 423 OFFCURVE",
"45 421 CURVE SMOOTH",
"67 406 LINE SMOOTH",
"71 403 OFFCURVE",
"73 404 OFFCURVE",
"78 410 CURVE SMOOTH",
"124 470 OFFCURVE",
"178 502 OFFCURVE",
"242 502 CURVE SMOOTH",
"342 502 OFFCURVE",
"396 448 OFFCURVE",
"396 363 CURVE SMOOTH",
"396 332 LINE SMOOTH",
"396 323 OFFCURVE",
"390 318 OFFCURVE",
"378 317 CURVE SMOOTH",
"266 308 LINE SMOOTH",
"103 294 OFFCURVE",
"27 234 OFFCURVE",
"27 136 CURVE SMOOTH",
"27 45 OFFCURVE",
"89 -10 OFFCURVE",
"193 -10 CURVE SMOOTH",
"324 -10 OFFCURVE",
"382 62 OFFCURVE",
"418 108 CURVE SMOOTH",
"420 111 OFFCURVE",
"421 111 OFFCURVE",
"423 108 CURVE SMOOTH",
"452 65 OFFCURVE",
"506 -10 OFFCURVE",
"628 -10 CURVE SMOOTH",
"725 -10 OFFCURVE",
"806 37 OFFCURVE",
"840 100 CURVE SMOOTH",
"843 106 OFFCURVE",
"842 108 OFFCURVE",
"839 110 CURVE SMOOTH",
"817 125 LINE SMOOTH",
"812 128 OFFCURVE",
"811 127 OFFCURVE",
"806 121 CURVE SMOOTH",
"777 81 OFFCURVE",
"734 28 OFFCURVE",
"630 28 CURVE SMOOTH",
"518 28 OFFCURVE",
"430 134 OFFCURVE",
"430 228 CURVE SMOOTH",
"430 249 OFFCURVE",
"433 253 OFFCURVE",
"450 253 CURVE SMOOTH"
);
},
{
closed = 1;
nodes = (
"738 502 OFFCURVE",
"817 414 OFFCURVE",
"817 306 CURVE SMOOTH",
"817 294 OFFCURVE",
"816 290 OFFCURVE",
"800 290 CURVE SMOOTH",
"432 291 LINE",
"433 418 OFFCURVE",
"518 502 OFFCURVE",
"628 502 CURVE SMOOTH"
);
},
{
closed = 1;
nodes = (
"396 177 LINE",
"396 99 OFFCURVE",
"310 34 OFFCURVE",
"203 29 CURVE SMOOTH",
"119 25 OFFCURVE",
"70 71 OFFCURVE",
"70 138 CURVE SMOOTH",
"70 215 OFFCURVE",
"136 260 OFFCURVE",
"286 272 CURVE SMOOTH",
"381 279 LINE SMOOTH",
"394 280 OFFCURVE",
"396 275 OFFCURVE",
"396 265 CURVE SMOOTH"
);
}
);
};
hints = (
{
horizontal = 1;
place = "{3526, 168}";
type = Stem;
}
);
layerId = "91AB5BCA-6A50-42DA-B2F7-8181BF189245";
paths = (
{
closed = 1;
nodes = (
"286 -10 OFFCURVE",
"348 60 OFFCURVE",
"386 105 CURVE SMOOTH",
"389 108 OFFCURVE",
"390 108 OFFCURVE",
"391 105 CURVE SMOOTH",
"411 63 OFFCURVE",
"448 -10 OFFCURVE",
"558 -10 CURVE SMOOTH",
"647 -10 OFFCURVE",
"728 39 OFFCURVE",
"768 104 CURVE",
"743 126 LINE",
"710 83 OFFCURVE",
"662 27 OFFCURVE",
"565 27 CURVE SMOOTH",
"465 27 OFFCURVE",
"402 143 OFFCURVE",
"416 247 CURVE",
"803 248 LINE",
"828 426 OFFCURVE",
"759 527 OFFCURVE",
"636 527 CURVE SMOOTH",
"552 527 OFFCURVE",
"483 488 OFFCURVE",
"436 410 CURVE",
"428 488 OFFCURVE",
"383 527 OFFCURVE",
"295 527 CURVE SMOOTH",
"217 527 OFFCURVE",
"141 485 OFFCURVE",
"91 413 CURVE",
"116 392 LINE",
"168 455 OFFCURVE",
"223 489 OFFCURVE",
"282 489 CURVE SMOOTH",
"372 489 OFFCURVE",
"413 437 OFFCURVE",
"401 354 CURVE SMOOTH",
"395 310 LINE",
"277 300 LINE SMOOTH",
"130 287 OFFCURVE",
"52 228 OFFCURVE",
"39 133 CURVE SMOOTH",
"26 44 OFFCURVE",
"75 -10 OFFCURVE",
"168 -10 CURVE SMOOTH"
);
},
{
closed = 1;
nodes = (
"106 24 OFFCURVE",
"69 69 OFFCURVE",
"78 135 CURVE SMOOTH",
"88 210 OFFCURVE",
"154 254 OFFCURVE",
"290 265 CURVE SMOOTH",
"390 273 LINE",
"376 173 LINE",
"365 97 OFFCURVE",
"279 33 OFFCURVE",
"182 28 CURVE SMOOTH"
);
},
{
closed = 1;
nodes = (
"424 284 LINE",
"442 408 OFFCURVE",
"530 489 OFFCURVE",
"628 489 CURVE SMOOTH",
"727 489 OFFCURVE",
"785 397 OFFCURVE",
"769 283 CURVE"
);
}
);
width = 859;
}
);
leftKerningGroup = a;
leftMetricsKey = a;
rightKerningGroup = e;
rightMetricsKey = e;
unicode = 00E6;
},
{
glyphname = b;
lastChange = "2019-04-15 22:11:46 +0000";
layers = (
{
background = {
paths = (
{
closed = 1;
nodes = (
"174 0 OFFCURVE",
"182 7 OFFCURVE",
"187 23 CURVE SMOOTH",
"203 70 LINE SMOOTH",
"206 78 OFFCURVE",
"210 79 OFFCURVE",
"216 73 CURVE SMOOTH",
"255 22 OFFCURVE",
"309 -10 OFFCURVE",
"372 -10 CURVE SMOOTH",
"518 -10 OFFCURVE",
"599 99 OFFCURVE",
"599 269 CURVE SMOOTH",
"599 436 OFFCURVE",
"523 540 OFFCURVE",
"393 540 CURVE SMOOTH",
"348 540 OFFCURVE",
"307 527 OFFCURVE",
"266 488 CURVE SMOOTH",
"256 480 OFFCURVE",
"247 480 OFFCURVE",
"247 496 CURVE SMOOTH",
"247 721 LINE SMOOTH",
"247 734 OFFCURVE",
"241 742 OFFCURVE",
"229 742 CURVE SMOOTH",
"66 742 LINE SMOOTH",
"55 742 OFFCURVE",
"47 734 OFFCURVE",
"47 719 CURVE SMOOTH",
"47 25 LINE SMOOTH",
"47 8 OFFCURVE",
"53 0 OFFCURVE",
"74 0 CURVE SMOOTH",
"161 0 LINE SMOOTH"
);
},
{
closed = 1;
nodes = (
"267 403 OFFCURVE",
"290 418 OFFCURVE",
"321 418 CURVE SMOOTH",
"370 418 OFFCURVE",
"397 381 OFFCURVE",
"397 265 CURVE SMOOTH",
"397 148 OFFCURVE",
"370 107 OFFCURVE",
"318 107 CURVE SMOOTH",
"276 107 OFFCURVE",
"247 135 OFFCURVE",
"247 185 CURVE SMOOTH",
"247 378 LINE"
);
}
);
};
layerId = "258ED206-D907-4350-8EBA-CBDDA1C16BF7";
paths = (
{
closed = 1;
nodes = (
"468 -10 OFFCURVE",
"563 97 OFFCURVE",
"588 262 CURVE SMOOTH",
"613 425 OFFCURVE",
"555 527 OFFCURVE",
"428 527 CURVE SMOOTH",
"378 527 OFFCURVE",
"318 502 OFFCURVE",
"274 439 CURVE",
"320 743 LINE",
"126 743 LINE",
"14 0 LINE",
"150 0 LINE",
"180 72 LINE",
"200 16 OFFCURVE",
"262 -10 OFFCURVE",
"326 -10 CURVE SMOOTH"
);
},
{
closed = 1;
nodes = (
"252 126 OFFCURVE",
"233 168 OFFCURVE",
"247 264 CURVE",
"247 264 LINE",
"261 353 OFFCURVE",
"294 390 OFFCURVE",
"338 390 CURVE SMOOTH",
"378 390 OFFCURVE",
"408 368 OFFCURVE",
"392 264 CURVE SMOOTH",
"377 160 OFFCURVE",
"341 126 OFFCURVE",
"295 126 CURVE"
);
}
);
width = 615;
},
{
background = {
paths = (
{
closed = 1;
nodes = (
"130 0 OFFCURVE",
"133 3 OFFCURVE",
"133 13 CURVE SMOOTH",
"135 64 LINE SMOOTH",
"135 73 OFFCURVE",
"140 74 OFFCURVE",
"145 67 CURVE SMOOTH",
"157 50 OFFCURVE",
"207 -10 OFFCURVE",
"310 -10 CURVE SMOOTH",
"454 -10 OFFCURVE",
"538 96 OFFCURVE",
"538 267 CURVE SMOOTH",
"538 416 OFFCURVE",
"474 540 OFFCURVE",
"321 540 CURVE SMOOTH",
"215 540 OFFCURVE",
"159 482 OFFCURVE",
"149 473 CURVE SMOOTH",
"140 465 OFFCURVE",
"136 465 OFFCURVE",
"136 478 CURVE SMOOTH",
"136 731 LINE SMOOTH",
"136 739 OFFCURVE",
"134 742 OFFCURVE",
"128 742 CURVE SMOOTH",
"105 742 LINE SMOOTH",
"99 742 OFFCURVE",
"96 739 OFFCURVE",
"96 732 CURVE SMOOTH",
"96 13 LINE SMOOTH",
"96 3 OFFCURVE",
"99 0 OFFCURVE",
"107 0 CURVE SMOOTH",
"118 0 LINE SMOOTH"
);
},
{
closed = 1;
nodes = (
"176 463 OFFCURVE",
"240 502 OFFCURVE",
"314 502 CURVE SMOOTH",
"432 502 OFFCURVE",
"495 409 OFFCURVE",
"495 267 CURVE SMOOTH",
"495 103 OFFCURVE",
"410 28 OFFCURVE",
"306 28 CURVE SMOOTH",
"222 28 OFFCURVE",
"136 96 OFFCURVE",
"136 177 CURVE SMOOTH",
"136 415 LINE"
);
}
);
};
layerId = "91AB5BCA-6A50-42DA-B2F7-8181BF189245";
paths = (
{
closed = 1;
nodes = (
"389 -10 OFFCURVE",
"468 94 OFFCURVE",
"492 260 CURVE SMOOTH",
"512 406 OFFCURVE",
"471 527 OFFCURVE",
"334 527 CURVE SMOOTH",
"215 527 OFFCURVE",
"166 442 OFFCURVE",
"154 420 CURVE",
"199 743 LINE",
"163 743 LINE",
"59 0 LINE",
"91 0 LINE",
"109 106 LINE",
"113 82 OFFCURVE",
"132 -10 OFFCURVE",
"259 -10 CURVE SMOOTH"
);
},
{
closed = 1;
nodes = (
"165 27 OFFCURVE",
"111 104 OFFCURVE",
"120 178 CURVE",
"142 339 LINE",
"149 361 OFFCURVE",
"181 489 OFFCURVE",
"325 489 CURVE SMOOTH",
"433 489 OFFCURVE",
"473 399 OFFCURVE",
"453 260 CURVE SMOOTH",
"431 100 OFFCURVE",
"357 27 OFFCURVE",
"263 27 CURVE SMOOTH"
);
}
);
width = 547;
}
);
leftKerningGroup = h;
leftMetricsKey = n;
rightKerningGroup = o;
rightMetricsKey = o;
unicode = 0062;
},
{
glyphname = c;
lastChange = "2019-04-15 22:22:15 +0000";
layers = (
{
anchors = (
{
name = bottom;
position = "{244, 0}";
},
{
name = top;
position = "{324, 517}";
}
);
background = {
anchors = (
{
name = bottom;
position = "{272, 0}";
},
{
name = top;
position = "{273, 530}";
}
);
paths = (
{
closed = 1;
nodes = (
"115 540 OFFCURVE",
"-4 428 OFFCURVE",
"-4 263 CURVE SMOOTH",
"-4 101 OFFCURVE",
"113 -10 OFFCURVE",
"273 -10 CURVE SMOOTH",
"435 -10 OFFCURVE",
"501 105 OFFCURVE",
"511 157 CURVE SMOOTH",
"515 172 OFFCURVE",
"513 178 OFFCURVE",
"502 180 CURVE SMOOTH",
"408 198 LINE SMOOTH",
"395 200 OFFCURVE",
"391 198 OFFCURVE",
"388 193 CURVE SMOOTH",
"363 148 OFFCURVE",
"344 114 OFFCURVE",
"289 114 CURVE SMOOTH",
"232 114 OFFCURVE",
"198 154 OFFCURVE",
"198 265 CURVE SMOOTH",
"198 372 OFFCURVE",
"229 414 OFFCURVE",
"278 414 CURVE SMOOTH",
"326 414 OFFCURVE",
"335 376 OFFCURVE",
"339 351 CURVE SMOOTH",
"341 340 OFFCURVE",
"345 336 OFFCURVE",
"356 337 CURVE SMOOTH",
"493 344 LINE SMOOTH",
"510 345 OFFCURVE",
"516 353 OFFCURVE",
"511 370 CURVE SMOOTH",
"495 447 OFFCURVE",
"416 540 OFFCURVE",
"273 540 CURVE SMOOTH"
);
}
);
};
guideLines = (
{
angle = -0.5577;
position = "{-481, 167}";
},
{
position = "{523, 123}";
},
{
angle = 3.769;
position = "{418, 307}";
}
);
layerId = "258ED206-D907-4350-8EBA-CBDDA1C16BF7";
paths = (
{
closed = 1;
nodes = (
"384 -10 OFFCURVE",
"482 90 OFFCURVE",
"498 200 CURVE",
"346 200 LINE",
"340 179 OFFCURVE",
"318 124 OFFCURVE",
"269 124 CURVE SMOOTH",
"220 124 OFFCURVE",
"190 173 OFFCURVE",
"203 258 CURVE SMOOTH",
"216 341 OFFCURVE",
"255 383 OFFCURVE",
"305 383 CURVE SMOOTH",
"354 383 OFFCURVE",
"361 335 OFFCURVE",
"360 306 CURVE",
"517 306 LINE",
"532 422 OFFCURVE",
"471 527 OFFCURVE",
"325 527 CURVE SMOOTH",
"176 527 OFFCURVE",
"49 416 OFFCURVE",
"25 256 CURVE SMOOTH",
"1 98 OFFCURVE",
"97 -10 OFFCURVE",
"244 -10 CURVE SMOOTH"
);
}
);
width = 537;
},
{
anchors = (
{
name = bottom;
position = "{226, 0}";
},
{
name = top;
position = "{297, 517}";
}
);
background = {
anchors = (
{
name = bottom;
position = "{272, 0}";
},
{
name = top;
position = "{270, 530}";
}
);
paths = (
{
closed = 1;
nodes = (
"130 540 OFFCURVE",
"31 425 OFFCURVE",
"31 263 CURVE SMOOTH",
"31 100 OFFCURVE",
"128 -10 OFFCURVE",
"271 -10 CURVE SMOOTH",
"356 -10 OFFCURVE",
"428 29 OFFCURVE",
"476 107 CURVE SMOOTH",
"478 111 OFFCURVE",
"477 115 OFFCURVE",
"474 117 CURVE SMOOTH",
"451 132 LINE SMOOTH",
"447 135 OFFCURVE",
"445 134 OFFCURVE",
"441 128 CURVE SMOOTH",
"397 60 OFFCURVE",
"343 28 OFFCURVE",
"275 28 CURVE SMOOTH",
"153 28 OFFCURVE",
"73 123 OFFCURVE",
"73 265 CURVE SMOOTH",
"73 407 OFFCURVE",
"153 502 OFFCURVE",
"276 502 CURVE SMOOTH",
"332 502 OFFCURVE",
"377 478 OFFCURVE",
"432 411 CURVE SMOOTH",
"436 406 OFFCURVE",
"440 405 OFFCURVE",
"443 407 CURVE SMOOTH",
"467 423 LINE SMOOTH",
"470 425 OFFCURVE",
"471 427 OFFCURVE",
"467 433 CURVE SMOOTH",
"421 499 OFFCURVE",
"360 540 OFFCURVE",
"271 540 CURVE SMOOTH"
);
}
);
};
layerId = "91AB5BCA-6A50-42DA-B2F7-8181BF189245";
paths = (
{
closed = 1;
nodes = (
"302 -10 OFFCURVE",
"388 28 OFFCURVE",
"425 138 CURVE",
"387 138 LINE",
"360 61 OFFCURVE",
"297 27 OFFCURVE",
"233 27 CURVE SMOOTH",
"125 27 OFFCURVE",
"74 119 OFFCURVE",
"93 258 CURVE SMOOTH",
"113 396 OFFCURVE",
"192 489 OFFCURVE",
"299 489 CURVE SMOOTH",
"359 489 OFFCURVE",
"411 459 OFFCURVE",
"420 377 CURVE",
"459 379 LINE",
"454 483 OFFCURVE",
"380 527 OFFCURVE",
"300 527 CURVE SMOOTH",
"171 527 OFFCURVE",
"78 415 OFFCURVE",
"55 256 CURVE SMOOTH",
"33 98 OFFCURVE",
"95 -10 OFFCURVE",
"224 -10 CURVE SMOOTH"
);
}
);
width = 496;
}
);
leftKerningGroup = o;
leftMetricsKey = e;
rightKerningGroup = o;
unicode = 0063;
},
{
glyphname = d;
lastChange = "2019-04-15 22:11:46 +0000";
layers = (
{
anchors = (
{
name = bottom;
position = "{257, 0}";
},
{
name = center;
position = "{296, 258}";
},
{
name = topright;
position = "{613, 517}";
}
);
background = {
anchors = (
{
name = bottom;
position = "{303, 0}";
},
{
name = center;
position = "{303, 265}";
},
{
name = topright;
position = "{589, 530}";
}
);
paths = (
{
closed = 1;
nodes = (
"544 0 LINE SMOOTH",
"565 0 OFFCURVE",
"571 8 OFFCURVE",
"571 25 CURVE SMOOTH",
"571 719 LINE SMOOTH",
"571 734 OFFCURVE",
"563 742 OFFCURVE",
"552 742 CURVE SMOOTH",
"390 742 LINE SMOOTH",
"378 742 OFFCURVE",
"372 734 OFFCURVE",
"372 721 CURVE SMOOTH",
"372 496 LINE SMOOTH",
"372 480 OFFCURVE",
"363 480 OFFCURVE",
"353 488 CURVE SMOOTH",
"312 528 OFFCURVE",
"274 540 OFFCURVE",
"229 540 CURVE SMOOTH",
"119 540 OFFCURVE",
"19 431 OFFCURVE",
"19 263 CURVE SMOOTH",
"19 82 OFFCURVE",
"101 -10 OFFCURVE",
"219 -10 CURVE SMOOTH",
"281 -10 OFFCURVE",
"320 10 OFFCURVE",
"359 46 CURVE SMOOTH",
"366 52 OFFCURVE",
"374 51 OFFCURVE",
"374 42 CURVE SMOOTH",
"374 23 LINE SMOOTH",
"374 6 OFFCURVE",
"386 0 OFFCURVE",
"399 0 CURVE SMOOTH"
);
},
{
closed = 1;
nodes = (
"371 176 LINE SMOOTH",
"371 137 OFFCURVE",
"340 110 OFFCURVE",
"301 110 CURVE SMOOTH",
"250 110 OFFCURVE",
"221 149 OFFCURVE",
"221 264 CURVE SMOOTH",
"221 380 OFFCURVE",
"254 416 OFFCURVE",
"301 416 CURVE SMOOTH",
"332 416 OFFCURVE",
"350 403 OFFCURVE",
"371 378 CURVE"
);
}
);
};
layerId = "258ED206-D907-4350-8EBA-CBDDA1C16BF7";
paths = (
{
closed = 1;
nodes = (
"288 -10 OFFCURVE",
"344 34 OFFCURVE",
"377 106 CURVE",
"384 0 LINE",
"521 0 LINE",
"634 743 LINE",
"440 743 LINE",
"397 458 LINE",
"373 511 OFFCURVE",
"316 527 OFFCURVE",
"265 527 CURVE SMOOTH",
"139 527 OFFCURVE",
"50 425 OFFCURVE",
"26 262 CURVE SMOOTH",
"0 97 OFFCURVE",
"63 -10 OFFCURVE",
"205 -10 CURVE SMOOTH"
);
},
{
closed = 1;
nodes = (
"227 126 OFFCURVE",
"197 160 OFFCURVE",
"213 264 CURVE SMOOTH",
"228 368 OFFCURVE",
"271 390 OFFCURVE",
"310 390 CURVE SMOOTH",
"353 390 OFFCURVE",
"383 364 OFFCURVE",
"371 284 CURVE",
"364 239 LINE",
"352 162 OFFCURVE",
"315 126 OFFCURVE",
"272 126 CURVE"
);
}
);
width = 612;
},
{
anchors = (
{
name = bottom;
position = "{228, 0}";
},
{
name = center;
position = "{275, 258}";
},
{
name = topright;
position = "{621, 723}";
}
);
background = {
anchors = (
{
name = bottom;
position = "{288, 0}";
},
{
name = center;
position = "{300, 265}";
},
{
name = topright;
position = "{613, 742}";
}
);
paths = (
{
closed = 1;
nodes = (
"475 0 LINE SMOOTH",
"484 0 OFFCURVE",
"487 3 OFFCURVE",
"487 12 CURVE SMOOTH",
"487 733 LINE SMOOTH",
"487 739 OFFCURVE",
"484 742 OFFCURVE",
"479 742 CURVE SMOOTH",
"456 742 LINE SMOOTH",
"449 742 OFFCURVE",
"447 739 OFFCURVE",
"447 732 CURVE SMOOTH",
"447 493 LINE SMOOTH",
"447 480 OFFCURVE",
"445 476 OFFCURVE",
"433 486 CURVE SMOOTH",
"402 510 OFFCURVE",
"359 540 OFFCURVE",
"286 540 CURVE SMOOTH",
"139 540 OFFCURVE",
"43 425 OFFCURVE",
"43 255 CURVE SMOOTH",
"43 78 OFFCURVE",
"146 -10 OFFCURVE",
"274 -10 CURVE SMOOTH",
"370 -10 OFFCURVE",
"421 49 OFFCURVE",
"437 66 CURVE SMOOTH",
"445 74 OFFCURVE",
"449 73 OFFCURVE",
"449 62 CURVE SMOOTH",
"449 11 LINE SMOOTH",
"449 4 OFFCURVE",
"452 0 OFFCURVE",
"459 0 CURVE SMOOTH"
);
},
{
closed = 1;
nodes = (
"447 170 LINE SMOOTH",
"447 110 OFFCURVE",
"375 28 OFFCURVE",
"279 28 CURVE SMOOTH",
"177 28 OFFCURVE",
"85 100 OFFCURVE",
"85 259 CURVE SMOOTH",
"85 411 OFFCURVE",
"170 502 OFFCURVE",
"287 502 CURVE SMOOTH",
"348 502 OFFCURVE",
"398 474 OFFCURVE",
"447 426 CURVE"
);
}
);
};
layerId = "91AB5BCA-6A50-42DA-B2F7-8181BF189245";
paths = (
{
closed = 1;
nodes = (
"339 -10 OFFCURVE",
"384 82 OFFCURVE",
"395 106 CURVE",
"383 0 LINE",
"415 0 LINE",
"520 743 LINE",
"484 743 LINE",
"440 428 LINE",
"433 450 OFFCURVE",
"399 527 OFFCURVE",
"288 527 CURVE SMOOTH",
"151 527 OFFCURVE",
"76 406 OFFCURVE",
"55 260 CURVE SMOOTH",
"32 94 OFFCURVE",
"83 -10 OFFCURVE",
"212 -10 CURVE SMOOTH"
);
},
{
closed = 1;
nodes = (
"125 27 OFFCURVE",
"71 100 OFFCURVE",
"94 260 CURVE SMOOTH",
"113 399 OFFCURVE",
"179 489 OFFCURVE",
"286 489 CURVE SMOOTH",
"420 489 OFFCURVE",
"426 361 OFFCURVE",
"427 339 CURVE",
"404 178 LINE",
"392 104 OFFCURVE",
"317 27 OFFCURVE",
"218 27 CURVE SMOOTH"
);
}
);
width = 542;
}
);
leftKerningGroup = o;
leftMetricsKey = e;
rightKerningGroup = u;
rightMetricsKey = u;
unicode = 0064;
},
{
glyphname = eth;
lastChange = "2019-04-15 22:22:15 +0000";
layers = (
{
background = {
paths = (
{
closed = 1;
nodes = (
"578 440 OFFCURVE",
"503 582 OFFCURVE",
"379 669 CURVE",
"425 695 LINE SMOOTH",
"431 699 OFFCURVE",
"432 704 OFFCURVE",
"429 709 CURVE SMOOTH",
"408 747 LINE SMOOTH",
"404 752 OFFCURVE",
"397 754 OFFCURVE",
"390 749 CURVE SMOOTH",
"315 707 LINE",
"278 726 OFFCURVE",
"237 740 OFFCURVE",
"194 750 CURVE SMOOTH",
"182 753 OFFCURVE",
"180 752 OFFCURVE",
"173 746 CURVE SMOOTH",
"89 677 LINE SMOOTH",
"82 671 OFFCURVE",
"85 665 OFFCURVE",
"91 663 CURVE SMOOTH",
"121 653 OFFCURVE",
"148 641 OFFCURVE",
"173 628 CURVE",
"102 589 LINE SMOOTH",
"95 586 OFFCURVE",
"92 578 OFFCURVE",
"100 567 CURVE SMOOTH",
"115 543 LINE SMOOTH",
"122 532 OFFCURVE",
"128 530 OFFCURVE",
"139 536 CURVE SMOOTH",
"235 590 LINE",
"263 569 OFFCURVE",
"282 551 OFFCURVE",
"301 525 CURVE SMOOTH",
"303 522 OFFCURVE",
"303 520 OFFCURVE",
"299 520 CURVE SMOOTH",
"141 520 OFFCURVE",
"20 409 OFFCURVE",
"20 252 CURVE SMOOTH",
"20 103 OFFCURVE",
"134 -10 OFFCURVE",
"298 -10 CURVE SMOOTH",
"465 -10 OFFCURVE",
"578 102 OFFCURVE",
"578 282 CURVE SMOOTH"
);
},
{
closed = 1;
nodes = (
"246 118 OFFCURVE",
"222 162 OFFCURVE",
"222 256 CURVE SMOOTH",
"222 351 OFFCURVE",
"246 396 OFFCURVE",
"299 396 CURVE SMOOTH",
"353 396 OFFCURVE",
"376 351 OFFCURVE",
"376 256 CURVE SMOOTH",
"376 163 OFFCURVE",
"353 118 OFFCURVE",
"299 118 CURVE SMOOTH"
);
}
);
};
layerId = "258ED206-D907-4350-8EBA-CBDDA1C16BF7";
paths = (
{
closed = 1;
nodes = (
"415 -10 OFFCURVE",
"541 99 OFFCURVE",
"568 275 CURVE SMOOTH",
"591 429 OFFCURVE",
"540 567 OFFCURVE",
"432 652 CURVE",
"491 683 LINE",
"469 737 LINE",
"376 689 LINE",
"340 709 OFFCURVE",
"298 723 OFFCURVE",
"253 734 CURVE",
"141 651 LINE",
"172 640 OFFCURVE",
"201 627 OFFCURVE",
"228 612 CURVE",
"140 568 LINE",
"165 515 LINE",
"282 575 LINE",
"305 555 OFFCURVE",
"322 537 OFFCURVE",
"336 512 CURVE SMOOTH",
"337 509 OFFCURVE",
"337 507 OFFCURVE",
"333 507 CURVE SMOOTH",
"180 507 OFFCURVE",
"46 399 OFFCURVE",
"23 246 CURVE SMOOTH",
"1 100 OFFCURVE",
"95 -10 OFFCURVE",
"253 -10 CURVE SMOOTH"
);
},
{
closed = 1;
nodes = (
"223 115 OFFCURVE",
"205 158 OFFCURVE",
"219 250 CURVE SMOOTH",
"233 342 OFFCURVE",
"264 386 OFFCURVE",
"314 386 CURVE SMOOTH",
"367 386 OFFCURVE",
"382 342 OFFCURVE",
"368 250 CURVE SMOOTH",
"355 159 OFFCURVE",
"326 115 OFFCURVE",
"273 115 CURVE SMOOTH"
);
}
);
width = 593;
},
{
background = {
paths = (
{
closed = 1;
nodes = (
"538 422 OFFCURVE",
"483 563 OFFCURVE",
"327 669 CURVE",
"417 719 LINE SMOOTH",
"420 721 OFFCURVE",
"420 724 OFFCURVE",
"418 727 CURVE SMOOTH",
"406 749 LINE SMOOTH",
"405 751 OFFCURVE",
"400 752 OFFCURVE",
"397 750 CURVE SMOOTH",
"293 692 LINE",
"258 713 OFFCURVE",
"221 731 OFFCURVE",
"177 749 CURVE SMOOTH",
"168 753 OFFCURVE",
"165 751 OFFCURVE",
"159 747 CURVE SMOOTH",
"141 735 LINE SMOOTH",
"136 731 OFFCURVE",
"137 726 OFFCURVE",
"142 724 CURVE SMOOTH",
"184 707 OFFCURVE",
"221 689 OFFCURVE",
"255 670 CURVE",
"100 583 LINE SMOOTH",
"97 581 OFFCURVE",
"95 578 OFFCURVE",
"99 572 CURVE SMOOTH",
"108 558 LINE SMOOTH",
"112 552 OFFCURVE",
"115 550 OFFCURVE",
"121 553 CURVE SMOOTH",
"289 648 LINE",
"375 590 OFFCURVE",
"428 523 OFFCURVE",
"459 451 CURVE",
"416 494 OFFCURVE",
"357 520 OFFCURVE",
"286 520 CURVE SMOOTH",
"150 520 OFFCURVE",
"52 408 OFFCURVE",
"52 252 CURVE SMOOTH",
"52 98 OFFCURVE",
"149 -10 OFFCURVE",
"293 -10 CURVE SMOOTH",
"447 -10 OFFCURVE",
"538 101 OFFCURVE",
"538 255 CURVE SMOOTH"
);
},
{
closed = 1;
nodes = (
"181 28 OFFCURVE",
"94 128 OFFCURVE",
"94 254 CURVE SMOOTH",
"94 380 OFFCURVE",
"181 482 OFFCURVE",
"296 482 CURVE SMOOTH",
"410 482 OFFCURVE",
"496 381 OFFCURVE",
"496 254 CURVE SMOOTH",
"496 127 OFFCURVE",
"412 28 OFFCURVE",
"297 28 CURVE SMOOTH"
);
}
);
};
layerId = "91AB5BCA-6A50-42DA-B2F7-8181BF189245";
paths = (
{
closed = 1;
nodes = (
"371 -10 OFFCURVE",
"468 98 OFFCURVE",
"489 249 CURVE SMOOTH",
"512 411 OFFCURVE",
"482 549 OFFCURVE",
"356 652 CURVE",
"447 703 LINE",
"437 735 LINE",
"329 675 LINE",
"298 696 OFFCURVE",
"265 716 OFFCURVE",
"225 734 CURVE",
"189 710 LINE",
"228 692 OFFCURVE",
"262 674 OFFCURVE",
"292 653 CURVE",
"135 566 LINE",
"148 535 LINE",
"319 632 LINE",
"389 575 OFFCURVE",
"426 510 OFFCURVE",
"444 440 CURVE",
"412 482 OFFCURVE",
"363 507 OFFCURVE",
"299 507 CURVE SMOOTH",
"177 507 OFFCURVE",
"74 398 OFFCURVE",
"53 246 CURVE SMOOTH",
"32 96 OFFCURVE",
"103 -10 OFFCURVE",
"233 -10 CURVE SMOOTH"
);
},
{
closed = 1;
nodes = (
"137 27 OFFCURVE",
"73 125 OFFCURVE",
"91 248 CURVE SMOOTH",
"108 371 OFFCURVE",
"199 470 OFFCURVE",
"303 470 CURVE SMOOTH",
"405 470 OFFCURVE",
"469 371 OFFCURVE",
"451 248 CURVE SMOOTH",
"434 124 OFFCURVE",
"345 27 OFFCURVE",
"242 27 CURVE SMOOTH"
);
}
);
width = 545;
}
);
leftKerningGroup = o;
leftMetricsKey = o;
rightKerningGroup = o;
rightMetricsKey = o;
unicode = 00F0;
},
{
glyphname = dcroat;
lastChange = "2019-04-15 22:28:11 +0000";
layers = (
{
background = {
components = (
{
name = d;
transform = "{1, 0, 0, 1, -38, 0}";
}
);
paths = (
{
closed = 1;
nodes = (
"575 680 OFFCURVE",
"569 687 OFFCURVE",
"559 687 CURVE SMOOTH",
"220 687 LINE SMOOTH",
"210 687 OFFCURVE",
"204 680 OFFCURVE",
"204 667 CURVE SMOOTH",
"204 602 LINE SMOOTH",
"204 587 OFFCURVE",
"209 580 OFFCURVE",
"226 580 CURVE SMOOTH",
"546 580 LINE SMOOTH",
"566 580 OFFCURVE",
"575 587 OFFCURVE",
"575 604 CURVE SMOOTH",
"575 669 LINE SMOOTH"
);
}
);
};
components = (
{
name = d;
}
);
layerId = "258ED206-D907-4350-8EBA-CBDDA1C16BF7";
paths = (
{
closed = 1;
nodes = (
"662 566 LINE",
"676 670 LINE",
"314 670 LINE",
"300 566 LINE"
);
}
);
width = 656;
},
{
background = {
components = (
{
name = d;
transform = "{1, 0, 0, 1, 4, 0}";
}
);
paths = (
{
closed = 1;
nodes = (
"581 660 OFFCURVE",
"579 662 OFFCURVE",
"576 662 CURVE SMOOTH",
"297 662 LINE SMOOTH",
"294 662 OFFCURVE",
"292 660 OFFCURVE",
"292 655 CURVE SMOOTH",
"292 635 LINE SMOOTH",
"292 629 OFFCURVE",
"293 627 OFFCURVE",
"299 627 CURVE SMOOTH",
"571 627 LINE SMOOTH",
"578 627 OFFCURVE",
"581 629 OFFCURVE",
"581 635 CURVE SMOOTH",
"581 656 LINE SMOOTH"
);
}
);
};
components = (
{
name = d;
}
);
layerId = "91AB5BCA-6A50-42DA-B2F7-8181BF189245";
paths = (
{
closed = 1;
nodes = (
"565 611 LINE",
"565 645 LINE",
"284 645 LINE",
"284 611 LINE"
);
}
);
width = 564;
}
);
leftKerningGroup = o;
leftMetricsKey = d;
rightMetricsKey = t;
unicode = 0111;
},
{
glyphname = e;
lastChange = "2019-04-15 22:22:15 +0000";
layers = (
{
anchors = (
{
name = bottom;
position = "{251, 0}";
},
{
name = ogonek;
position = "{379, 25}";
},
{
name = top;
position = "{326, 517}";
}
);
background = {
anchors = (
{
name = bottom;
position = "{278, 0}";
},
{
name = ogonek;
position = "{407, 26}";
},
{
name = top;
position = "{275, 530}";
}
);
paths = (
{
closed = 1;
nodes = (
"201 224 OFFCURVE",
"206 229 OFFCURVE",
"216 229 CURVE SMOOTH",
"527 229 LINE SMOOTH",
"544 230 OFFCURVE",
"545 237 OFFCURVE",
"545 254 CURVE SMOOTH",
"545 435 OFFCURVE",
"430 540 OFFCURVE",
"273 540 CURVE SMOOTH",
"125 540 OFFCURVE",
"-5 426 OFFCURVE",
"-5 256 CURVE SMOOTH",
"-5 99 OFFCURVE",
"117 -10 OFFCURVE",
"277 -10 CURVE SMOOTH",
"389 -10 OFFCURVE",
"457 17 OFFCURVE",
"529 118 CURVE SMOOTH",
"538 129 OFFCURVE",
"535 138 OFFCURVE",
"525 142 CURVE SMOOTH",
"434 179 LINE SMOOTH",
"421 184 OFFCURVE",
"418 183 OFFCURVE",
"413 178 CURVE SMOOTH",
"369 135 OFFCURVE",
"338 122 OFFCURVE",
"304 122 CURVE SMOOTH",
"246 122 OFFCURVE",
"201 151 OFFCURVE",
"201 212 CURVE SMOOTH"
);
},
{
closed = 1;
nodes = (
"203 395 OFFCURVE",
"241 423 OFFCURVE",
"282 423 CURVE SMOOTH",
"332 423 OFFCURVE",
"351 372 OFFCURVE",
"351 346 CURVE SMOOTH",
"351 334 OFFCURVE",
"347 332 OFFCURVE",
"334 332 CURVE SMOOTH",
"204 333 LINE"
);
}
);
};
layerId = "258ED206-D907-4350-8EBA-CBDDA1C16BF7";
paths = (
{
closed = 1;
nodes = (
"368 -10 OFFCURVE",
"495 61 OFFCURVE",
"528 176 CURVE",
"357 176 LINE",
"335 136 OFFCURVE",
"305 126 OFFCURVE",
"269 126 CURVE SMOOTH",
"227 126 OFFCURVE",
"197 152 OFFCURVE",
"208 214 CURVE",
"532 214 LINE",
"539 259 LINE",
"562 412 OFFCURVE",
"495 527 OFFCURVE",
"327 527 CURVE SMOOTH",
"162 527 OFFCURVE",
"46 400 OFFCURVE",
"24 252 CURVE SMOOTH",
"0 95 OFFCURVE",
"93 -10 OFFCURVE",
"253 -10 CURVE SMOOTH"
);
},
{
closed = 1;
nodes = (
"229 362 OFFCURVE",
"267 396 OFFCURVE",
"307 396 CURVE SMOOTH",
"356 396 OFFCURVE",
"376 362 OFFCURVE",
"370 323 CURVE",
"223 323 LINE"
);
}
);
width = 567;
},
{
anchors = (
{
name = bottom;
position = "{221, 0}";
},
{
name = ogonek;
position = "{310, 18}";
},
{
name = top;
position = "{295, 517}";
}
);
background = {
anchors = (
{
name = bottom;
position = "{270, 0}";
},
{
name = ogonek;
position = "{363, 18}";
},
{
name = top;
position = "{267, 530}";
}
);
paths = (
{
closed = 1;
nodes = (
"68 247 OFFCURVE",
"70 254 OFFCURVE",
"74 254 CURVE SMOOTH",
"485 254 LINE SMOOTH",
"500 254 OFFCURVE",
"498 266 OFFCURVE",
"498 274 CURVE SMOOTH",
"498 442 OFFCURVE",
"410 540 OFFCURVE",
"269 540 CURVE SMOOTH",
"128 540 OFFCURVE",
"26 436 OFFCURVE",
"26 261 CURVE SMOOTH",
"26 100 OFFCURVE",
"125 -10 OFFCURVE",
"269 -10 CURVE SMOOTH",
"363 -10 OFFCURVE",
"433 27 OFFCURVE",
"479 100 CURVE SMOOTH",
"482 104 OFFCURVE",
"481 108 OFFCURVE",
"478 110 CURVE SMOOTH",
"455 125 LINE SMOOTH",
"451 128 OFFCURVE",
"448 127 OFFCURVE",
"444 121 CURVE SMOOTH",
"408 61 OFFCURVE",
"349 28 OFFCURVE",
"269 28 CURVE SMOOTH",
"157 28 OFFCURVE",
"68 127 OFFCURVE",
"68 240 CURVE SMOOTH"
);
},
{
closed = 1;
nodes = (
"68 390 OFFCURVE",
"136 502 OFFCURVE",
"268 502 CURVE SMOOTH",
"384 502 OFFCURVE",
"456 414 OFFCURVE",
"456 304 CURVE SMOOTH",
"456 293 OFFCURVE",
"453 290 OFFCURVE",
"439 290 CURVE SMOOTH",
"69 290 LINE"
);
}
);
};
guideLines = (
{
angle = 88.4926;
position = "{209, 483}";
}
);
layerId = "91AB5BCA-6A50-42DA-B2F7-8181BF189245";
paths = (
{
closed = 1;
nodes = (
"311 -10 OFFCURVE",
"388 33 OFFCURVE",
"429 138 CURVE",
"391 138 LINE",
"361 69 OFFCURVE",
"306 29 OFFCURVE",
"232 29 CURVE SMOOTH",
"112 29 OFFCURVE",
"75 131 OFFCURVE",
"91 248 CURVE",
"450 248 LINE",
"454 277 LINE",
"477 436 OFFCURVE",
"418 527 OFFCURVE",
"296 527 CURVE SMOOTH",
"167 527 OFFCURVE",
"78 425 OFFCURVE",
"54 254 CURVE SMOOTH",
"30 85 OFFCURVE",
"102 -10 OFFCURVE",
"226 -10 CURVE SMOOTH"
);
},
{
closed = 1;
nodes = (
"111 384 OFFCURVE",
"174 488 OFFCURVE",
"290 488 CURVE SMOOTH",
"397 488 OFFCURVE",
"434 402 OFFCURVE",
"418 287 CURVE",
"98 287 LINE"
);
}
);
width = 506;
}
);
leftKerningGroup = o;
rightKerningGroup = o;
unicode = 0065;
},
{
glyphname = f;
lastChange = "2019-04-15 22:22:15 +0000";
layers = (
{
background = {
paths = (
{
closed = 1;
nodes = (
"302 530 LINE SMOOTH",
"294 530 OFFCURVE",
"289 533 OFFCURVE",
"289 543 CURVE SMOOTH",
"289 561 LINE SMOOTH",
"289 589 OFFCURVE",
"311 612 OFFCURVE",
"334 612 CURVE SMOOTH",
"377 612 LINE SMOOTH",
"389 612 OFFCURVE",
"395 621 OFFCURVE",
"395 632 CURVE",
"394 716 LINE",
"394 732 OFFCURVE",
"384 742 OFFCURVE",
"365 742 CURVE SMOOTH",
"252 742 LINE SMOOTH",
"155 742 OFFCURVE",
"94 688 OFFCURVE",
"94 601 CURVE SMOOTH",
"94 548 LINE SMOOTH",
"94 535 OFFCURVE",
"91 530 OFFCURVE",
"80 530 CURVE SMOOTH",
"32 530 LINE SMOOTH",
"15 530 OFFCURVE",
"8 520 OFFCURVE",
"8 508 CURVE SMOOTH",
"8 414 LINE SMOOTH",
"8 400 OFFCURVE",
"16 395 OFFCURVE",
"30 395 CURVE SMOOTH",
"86 395 LINE SMOOTH",
"92 395 OFFCURVE",
"94 392 OFFCURVE",
"94 385 CURVE SMOOTH",
"94 20 LINE SMOOTH",
"94 7 OFFCURVE",
"101 0 OFFCURVE",
"112 0 CURVE SMOOTH",
"275 0 LINE SMOOTH",
"287 0 OFFCURVE",
"294 7 OFFCURVE",
"294 22 CURVE SMOOTH",
"294 383 LINE SMOOTH",
"294 391 OFFCURVE",
"299 395 OFFCURVE",
"306 395 CURVE SMOOTH",
"368 395 LINE SMOOTH",
"381 395 OFFCURVE",
"390 400 OFFCURVE",
"390 414 CURVE SMOOTH",
"390 508 LINE SMOOTH",
"390 520 OFFCURVE",
"382 530 OFFCURVE",
"365 530 CURVE SMOOTH"
);
}
);
};
layerId = "258ED206-D907-4350-8EBA-CBDDA1C16BF7";
paths = (
{
closed = 1;
nodes = (
"247 0 LINE",
"306 385 LINE",
"399 385 LINE",
"419 517 LINE",
"322 517 LINE",
"326 547 LINE SMOOTH",
"332 585 OFFCURVE",
"345 597 OFFCURVE",
"377 597 CURVE SMOOTH",
"436 597 LINE",
"455 723 LINE",
"317 723 LINE SMOOTH",
"223 723 OFFCURVE",
"156 671 OFFCURVE",
"143 586 CURVE SMOOTH",
"132 517 LINE",
"50 517 LINE",
"30 385 LINE",
"112 385 LINE",
"54 0 LINE"
);
}
);
width = 392;
},
{
background = {
paths = (
{
closed = 1;
nodes = (
"221 530 LINE SMOOTH",
"216 530 OFFCURVE",
"214 532 OFFCURVE",
"214 537 CURVE SMOOTH",
"214 627 LINE SMOOTH",
"214 678 OFFCURVE",
"227 707 OFFCURVE",
"277 707 CURVE SMOOTH",
"357 707 LINE SMOOTH",
"362 707 OFFCURVE",
"365 709 OFFCURVE",
"365 714 CURVE SMOOTH",
"365 735 LINE SMOOTH",
"365 740 OFFCURVE",
"363 742 OFFCURVE",
"359 742 CURVE SMOOTH",
"287 742 LINE SMOOTH",
"207 742 OFFCURVE",
"174 700 OFFCURVE",
"174 618 CURVE SMOOTH",
"174 537 LINE SMOOTH",
"174 532 OFFCURVE",
"172 530 OFFCURVE",
"167 530 CURVE SMOOTH",
"54 530 LINE SMOOTH",
"50 530 OFFCURVE",
"48 528 OFFCURVE",
"48 524 CURVE SMOOTH",
"48 501 LINE SMOOTH",
"48 497 OFFCURVE",
"50 495 OFFCURVE",
"54 495 CURVE SMOOTH",
"168 495 LINE SMOOTH",
"172 495 OFFCURVE",
"174 492 OFFCURVE",
"174 488 CURVE SMOOTH",
"174 10 LINE SMOOTH",
"174 3 OFFCURVE",
"176 0 OFFCURVE",
"182 0 CURVE SMOOTH",
"205 0 LINE SMOOTH",
"211 0 OFFCURVE",
"214 3 OFFCURVE",
"214 11 CURVE SMOOTH",
"214 488 LINE SMOOTH",
"214 493 OFFCURVE",
"216 495 OFFCURVE",
"221 495 CURVE SMOOTH",
"354 495 LINE SMOOTH",
"358 495 OFFCURVE",
"360 497 OFFCURVE",
"360 501 CURVE SMOOTH",
"360 524 LINE SMOOTH",
"360 528 OFFCURVE",
"358 530 OFFCURVE",
"355 530 CURVE SMOOTH"
);
}
);
};
layerId = "91AB5BCA-6A50-42DA-B2F7-8181BF189245";
paths = (
{
closed = 1;
nodes = (
"157 0 LINE",
"224 483 LINE",
"355 483 LINE",
"360 517 LINE",
"229 517 LINE",
"242 611 LINE SMOOTH",
"249 661 OFFCURVE",
"265 689 OFFCURVE",
"310 689 CURVE SMOOTH",
"389 689 LINE",
"393 723 LINE",
"324 723 LINE SMOOTH",
"252 723 OFFCURVE",
"217 683 OFFCURVE",
"205 603 CURVE SMOOTH",
"193 517 LINE",
"80 517 LINE",
"75 483 LINE",
"189 483 LINE",
"121 0 LINE"
);
}
);
width = 371;
}
);
leftKerningGroup = f;
rightKerningGroup = f;
unicode = 0066;
},
{
glyphname = g;
lastChange = "2019-04-15 22:11:46 +0000";
layers = (
{
anchors = (
{
name = top;
position = "{347, 517}";
}
);
background = {
anchors = (
{
name = top;
position = "{287, 530}";
}
);
paths = (
{
closed = 1;
nodes = (
"567 562 OFFCURVE",
"511 534 OFFCURVE",
"484 496 CURVE SMOOTH",
"477 486 OFFCURVE",
"463 485 OFFCURVE",
"453 493 CURVE SMOOTH",
"420 519 OFFCURVE",
"362 538 OFFCURVE",
"286 538 CURVE SMOOTH",
"107 538 OFFCURVE",
"16 469 OFFCURVE",
"16 373 CURVE SMOOTH",
"16 312 OFFCURVE",
"54 265 OFFCURVE",
"120 237 CURVE SMOOTH",
"130 231 OFFCURVE",
"123 228 OFFCURVE",
"117 225 CURVE SMOOTH",
"63 202 OFFCURVE",
"8 169 OFFCURVE",
"8 122 CURVE SMOOTH",
"8 81 OFFCURVE",
"39 56 OFFCURVE",
"74 39 CURVE SMOOTH",
"82 35 OFFCURVE",
"84 31 OFFCURVE",
"74 28 CURVE SMOOTH",
"21 13 OFFCURVE",
"-23 -8 OFFCURVE",
"-23 -53 CURVE SMOOTH",
"-23 -137 OFFCURVE",
"79 -175 OFFCURVE",
"288 -175 CURVE SMOOTH",
"489 -175 OFFCURVE",
"591 -99 OFFCURVE",
"591 3 CURVE SMOOTH",
"591 85 OFFCURVE",
"525 143 OFFCURVE",
"377 152 CURVE SMOOTH",
"225 161 LINE SMOOTH",
"196 163 OFFCURVE",
"181 167 OFFCURVE",
"181 182 CURVE SMOOTH",
"181 198 OFFCURVE",
"208 209 OFFCURVE",
"274 209 CURVE SMOOTH",
"442 209 OFFCURVE",
"531 284 OFFCURVE",
"531 374 CURVE SMOOTH",
"531 384 OFFCURVE",
"529 395 OFFCURVE",
"526 405 CURVE SMOOTH",
"522 419 OFFCURVE",
"527 428 OFFCURVE",
"546 428 CURVE SMOOTH",
"558 428 OFFCURVE",
"577 425 OFFCURVE",
"590 421 CURVE SMOOTH",
"605 416 OFFCURVE",
"616 424 OFFCURVE",
"616 447 CURVE SMOOTH",
"616 537 LINE SMOOTH",
"616 555 OFFCURVE",
"607 562 OFFCURVE",
"596 562 CURVE SMOOTH"
);
},
{
closed = 1;
nodes = (
"222 300 OFFCURVE",
"194 334 OFFCURVE",
"194 370 CURVE SMOOTH",
"194 411 OFFCURVE",
"222 445 OFFCURVE",
"272 445 CURVE SMOOTH",
"328 445 OFFCURVE",
"350 411 OFFCURVE",
"350 370 CURVE SMOOTH",
"350 335 OFFCURVE",
"328 300 OFFCURVE",
"272 300 CURVE SMOOTH"
);
},
{
closed = 1;
nodes = (
"395 0 OFFCURVE",
"418 -16 OFFCURVE",
"418 -35 CURVE SMOOTH",
"418 -64 OFFCURVE",
"376 -86 OFFCURVE",
"298 -86 CURVE SMOOTH",
"173 -86 OFFCURVE",
"138 -64 OFFCURVE",
"138 -27 CURVE SMOOTH",
"138 -6 OFFCURVE",
"164 10 OFFCURVE",
"207 8 CURVE SMOOTH",
"352 2 LINE SMOOTH"
);
}
);
};
layerId = "258ED206-D907-4350-8EBA-CBDDA1C16BF7";
paths = (
{
closed = 1;
nodes = (
"438 -171 OFFCURVE",
"548 -97 OFFCURVE",
"563 3 CURVE SMOOTH",
"575 83 OFFCURVE",
"522 148 OFFCURVE",
"382 158 CURVE SMOOTH",
"338 161 OFFCURVE",
"298 163 OFFCURVE",
"280 164 CURVE SMOOTH",
"230 167 OFFCURVE",
"198 167 OFFCURVE",
"200 181 CURVE",
"201 186 OFFCURVE",
"205 188 OFFCURVE",
"216 190 CURVE",
"232 188 OFFCURVE",
"268 187 OFFCURVE",
"284 187 CURVE SMOOTH",
"447 187 OFFCURVE",
"547 277 OFFCURVE",
"560 365 CURVE SMOOTH",
"561 371 OFFCURVE",
"562 390 OFFCURVE",
"560 405 CURVE",
"650 417 LINE",
"671 555 LINE",
"611 531 OFFCURVE",
"533 503 OFFCURVE",
"492 488 CURVE",
"458 508 OFFCURVE",
"420 525 OFFCURVE",
"347 525 CURVE SMOOTH",
"207 525 OFFCURVE",
"77 468 OFFCURVE",
"61 364 CURVE SMOOTH",
"53 309 OFFCURVE",
"79 243 OFFCURVE",
"148 210 CURVE",
"66 199 OFFCURVE",
"22 160 OFFCURVE",
"16 119 CURVE SMOOTH",
"7 62 OFFCURVE",
"62 40 OFFCURVE",
"75 32 CURVE",
"67 30 OFFCURVE",
"-30 15 OFFCURVE",
"-40 -52 CURVE SMOOTH",
"-50 -118 OFFCURVE",
"41 -171 OFFCURVE",
"243 -171 CURVE SMOOTH"
);
},
{
closed = 1;
nodes = (
"190 -69 OFFCURVE",
"147 -62 OFFCURVE",
"152 -29 CURVE SMOOTH",
"154 -12 OFFCURVE",
"171 11 OFFCURVE",
"224 8 CURVE SMOOTH",
"316 2 LINE SMOOTH",
"356 -1 OFFCURVE",
"377 -15 OFFCURVE",
"374 -37 CURVE SMOOTH",
"371 -56 OFFCURVE",
"356 -69 OFFCURVE",
"289 -69 CURVE SMOOTH"
);
},
{
closed = 1;
nodes = (
"268 289 OFFCURVE",
"248 318 OFFCURVE",
"254 357 CURVE SMOOTH",
"260 396 OFFCURVE",
"290 430 OFFCURVE",
"327 430 CURVE SMOOTH",
"363 430 OFFCURVE",
"383 396 OFFCURVE",
"377 357 CURVE SMOOTH",
"371 318 OFFCURVE",
"342 289 OFFCURVE",
"305 289 CURVE SMOOTH"
);
}
);
width = 633;
},
{
anchors = (
{
name = top;
position = "{309, 517}";
}
);
background = {
anchors = (
{
name = top;
position = "{268, 530}";
}
);
guideLines = (
{
angle = 90;
position = "{264, 374}";
showMeasurement = 1;
}
);
paths = (
{
closed = 1;
nodes = (
"482 530 OFFCURVE",
"452 507 OFFCURVE",
"432 492 CURVE SMOOTH",
"425 487 OFFCURVE",
"421 487 OFFCURVE",
"414 493 CURVE SMOOTH",
"380 522 OFFCURVE",
"337 538 OFFCURVE",
"271 538 CURVE SMOOTH",
"139 538 OFFCURVE",
"61 475 OFFCURVE",
"61 369 CURVE SMOOTH",
"61 307 OFFCURVE",
"85 266 OFFCURVE",
"140 235 CURVE SMOOTH",
"147 231 OFFCURVE",
"149 225 OFFCURVE",
"141 223 CURVE SMOOTH",
"91 207 OFFCURVE",
"74 181 OFFCURVE",
"74 159 CURVE SMOOTH",
"74 137 OFFCURVE",
"85 121 OFFCURVE",
"112 109 CURVE SMOOTH",
"119 106 OFFCURVE",
"119 102 OFFCURVE",
"112 98 CURVE SMOOTH",
"49 63 OFFCURVE",
"20 21 OFFCURVE",
"20 -27 CURVE SMOOTH",
"20 -120 OFFCURVE",
"106 -175 OFFCURVE",
"260 -175 CURVE SMOOTH",
"411 -175 OFFCURVE",
"499 -119 OFFCURVE",
"499 -19 CURVE SMOOTH",
"499 60 OFFCURVE",
"452 110 OFFCURVE",
"345 116 CURVE SMOOTH",
"225 123 LINE SMOOTH",
"148 127 OFFCURVE",
"116 136 OFFCURVE",
"116 160 CURVE SMOOTH",
"116 184 OFFCURVE",
"149 209 OFFCURVE",
"264 209 CURVE SMOOTH",
"405 209 OFFCURVE",
"466 280 OFFCURVE",
"466 369 CURVE SMOOTH",
"466 411 OFFCURVE",
"452 434 OFFCURVE",
"445 451 CURVE SMOOTH",
"442 458 OFFCURVE",
"447 464 OFFCURVE",
"465 474 CURVE SMOOTH",
"481 483 OFFCURVE",
"494 487 OFFCURVE",
"520 488 CURVE SMOOTH",
"534 489 OFFCURVE",
"537 495 OFFCURVE",
"537 504 CURVE SMOOTH",
"537 517 LINE SMOOTH",
"537 526 OFFCURVE",
"533 530 OFFCURVE",
"518 530 CURVE SMOOTH"
);
},
{
closed = 1;
nodes = (
"160 247 OFFCURVE",
"101 290 OFFCURVE",
"101 371 CURVE SMOOTH",
"101 453 OFFCURVE",
"161 500 OFFCURVE",
"265 500 CURVE SMOOTH",
"371 500 OFFCURVE",
"426 454 OFFCURVE",
"426 371 CURVE SMOOTH",
"426 289 OFFCURVE",
"373 247 OFFCURVE",
"265 247 CURVE SMOOTH"
);
},
{
closed = 1;
nodes = (
"428 70 OFFCURVE",
"457 36 OFFCURVE",
"457 -19 CURVE SMOOTH",
"457 -101 OFFCURVE",
"391 -137 OFFCURVE",
"269 -137 CURVE SMOOTH",
"138 -137 OFFCURVE",
"62 -96 OFFCURVE",
"62 -23 CURVE SMOOTH",
"62 43 OFFCURVE",
"136 88 OFFCURVE",
"168 86 CURVE SMOOTH",
"344 75 LINE SMOOTH"
);
}
);
};
guideLines = (
{
angle = 90;
position = "{304, 347}";
showMeasurement = 1;
}
);
layerId = "91AB5BCA-6A50-42DA-B2F7-8181BF189245";
paths = (
{
closed = 1;
nodes = (
"340 -171 OFFCURVE",
"427 -116 OFFCURVE",
"440 -19 CURVE SMOOTH",
"451 59 OFFCURVE",
"416 107 OFFCURVE",
"321 113 CURVE SMOOTH",
"276 116 OFFCURVE",
"241 118 OFFCURVE",
"214 120 CURVE SMOOTH",
"139 126 OFFCURVE",
"118 134 OFFCURVE",
"121 156 CURVE SMOOTH",
"124 178 OFFCURVE",
"156 202 OFFCURVE",
"251 204 CURVE SMOOTH",
"254 204 OFFCURVE",
"257 204 OFFCURVE",
"261 204 CURVE SMOOTH",
"387 204 OFFCURVE",
"452 273 OFFCURVE",
"464 360 CURVE SMOOTH",
"468 386 OFFCURVE",
"462 426 OFFCURVE",
"455 446 CURVE",
"542 466 LINE",
"551 524 LINE",
"538 519 OFFCURVE",
"454 482 OFFCURVE",
"441 476 CURVE",
"409 509 OFFCURVE",
"371 525 OFFCURVE",
"312 525 CURVE SMOOTH",
"194 525 OFFCURVE",
"115 463 OFFCURVE",
"101 360 CURVE SMOOTH",
"92 295 OFFCURVE",
"108 257 OFFCURVE",
"163 222 CURVE",
"115 207 OFFCURVE",
"87 183 OFFCURVE",
"83 155 CURVE SMOOTH",
"79 124 OFFCURVE",
"99 113 OFFCURVE",
"115 101 CURVE",
"99 88 OFFCURVE",
"21 52 OFFCURVE",
"10 -26 CURVE SMOOTH",
"-3 -117 OFFCURVE",
"67 -171 OFFCURVE",
"205 -171 CURVE SMOOTH"
);
},
{
closed = 1;
nodes = (
"100 -134 OFFCURVE",
"38 -94 OFFCURVE",
"48 -22 CURVE SMOOTH",
"57 42 OFFCURVE",
"129 86 OFFCURVE",
"158 84 CURVE SMOOTH",
"314 73 LINE SMOOTH",
"389 68 OFFCURVE",
"410 35 OFFCURVE",
"403 -19 CURVE SMOOTH",
"391 -98 OFFCURVE",
"327 -134 OFFCURVE",
"218 -134 CURVE SMOOTH"
);
},
{
closed = 1;
nodes = (
"172 241 OFFCURVE",
"126 283 OFFCURVE",
"137 362 CURVE SMOOTH",
"148 442 OFFCURVE",
"208 488 OFFCURVE",
"302 488 CURVE SMOOTH",
"388 488 OFFCURVE",
"441 448 OFFCURVE",
"428 362 CURVE SMOOTH",
"417 282 OFFCURVE",
"364 241 OFFCURVE",
"267 241 CURVE SMOOTH"
);
}
);
width = 564;
}
);
leftKerningGroup = g;
rightKerningGroup = g;
unicode = 0067;
},
{
glyphname = gcommaaccent;
lastChange = "2019-04-15 22:11:46 +0000";
layers = (
{
anchors = (
{
name = _top;
position = "{277, 536}";
}
);
background = {
anchors = (
{
name = _top;
position = "{265, 550}";
}
);
components = (
{
name = g;
transform = "{1, 0, 0, 1, -38, 0}";
}
);
paths = (
{
closed = 1;
nodes = (
"312 599 LINE SMOOTH",
"322 599 OFFCURVE",
"330 605 OFFCURVE",
"330 619 CURVE SMOOTH",
"330 680 LINE SMOOTH",
"330 696 OFFCURVE",
"324 702 OFFCURVE",
"307 702 CURVE SMOOTH",
"298 702 LINE SMOOTH",
"284 702 OFFCURVE",
"278 717 OFFCURVE",
"289 731 CURVE SMOOTH",
"322 776 LINE SMOOTH",
"328 784 OFFCURVE",
"321 796 OFFCURVE",
"310 796 CURVE SMOOTH",
"292 796 LINE SMOOTH",
"274 796 OFFCURVE",
"267 793 OFFCURVE",
"259 782 CURVE SMOOTH",
"205 715 LINE SMOOTH",
"204 712 OFFCURVE",
"201 707 OFFCURVE",
"201 702 CURVE SMOOTH",
"201 615 LINE SMOOTH",
"201 605 OFFCURVE",
"207 599 OFFCURVE",
"218 599 CURVE SMOOTH"
);
}
);
};
components = (
{
name = g;
}
);
layerId = "258ED206-D907-4350-8EBA-CBDDA1C16BF7";
paths = (
{
closed = 1;
nodes = (
"340 584 LINE",
"340 684 LINE",
"279 684 LINE",
"347 776 LINE",
"281 776 LINE",
"214 692 LINE",
"214 584 LINE"
);
}
);
width = 633;
},
{
anchors = (
{
name = _top;
position = "{279, 536}";
}
);
background = {
anchors = (
{
name = _top;
position = "{287, 550}";
}
);
components = (
{
name = g;
transform = "{1, 0, 0, 1, 4, 0}";
}
);
paths = (
{
closed = 1;
nodes = (
"306 632 LINE SMOOTH",
"310 632 OFFCURVE",
"313 634 OFFCURVE",
"313 640 CURVE SMOOTH",
"313 706 LINE SMOOTH",
"313 713 OFFCURVE",
"311 715 OFFCURVE",
"305 715 CURVE SMOOTH",
"297 715 LINE SMOOTH",
"292 715 OFFCURVE",
"290 718 OFFCURVE",
"293 724 CURVE SMOOTH",
"318 778 LINE SMOOTH",
"320 782 OFFCURVE",
"318 786 OFFCURVE",
"314 786 CURVE SMOOTH",
"301 786 LINE SMOOTH",
"293 786 OFFCURVE",
"290 785 OFFCURVE",
"287 780 CURVE SMOOTH",
"256 721 LINE SMOOTH",
"256 720 OFFCURVE",
"255 717 OFFCURVE",
"255 715 CURVE SMOOTH",
"255 639 LINE SMOOTH",
"255 634 OFFCURVE",
"257 632 OFFCURVE",
"261 632 CURVE SMOOTH"
);
}
);
};
components = (
{
name = g;
}
);
layerId = "91AB5BCA-6A50-42DA-B2F7-8181BF189245";
paths = (
{
closed = 1;
nodes = (
"304 616 LINE",
"304 697 LINE",
"281 697 LINE",
"313 766 LINE",
"282 766 LINE",
"248 701 LINE",
"248 616 LINE"
);
}
);
width = 564;
}
);
leftKerningGroup = g;
leftMetricsKey = g;
rightKerningGroup = g;
rightMetricsKey = g;
unicode = 0123;
},
{
glyphname = h;
lastChange = "2019-04-15 22:11:46 +0000";
layers = (
{
anchors = (
{
name = bottom;
position = "{270, 0}";
},
{
name = top;
position = "{483, 517}";
}
);
background = {
anchors = (
{
name = bottom;
position = "{313, 0}";
},
{
name = top;
position = "{452, 530}";
}
);
paths = (
{
closed = 1;
nodes = (
"216 0 LINE SMOOTH",
"240 0 OFFCURVE",
"249 8 OFFCURVE",
"249 29 CURVE SMOOTH",
"249 349 LINE",
"268 383 OFFCURVE",
"292 399 OFFCURVE",
"323 399 CURVE SMOOTH",
"355 399 OFFCURVE",
"375 381 OFFCURVE",
"375 351 CURVE SMOOTH",
"375 25 LINE SMOOTH",
"375 6 OFFCURVE",
"381 0 OFFCURVE",
"398 0 CURVE SMOOTH",
"545 0 LINE SMOOTH",
"566 0 OFFCURVE",
"575 10 OFFCURVE",
"575 30 CURVE SMOOTH",
"575 375 LINE SMOOTH",
"575 481 OFFCURVE",
"518 540 OFFCURVE",
"419 540 CURVE SMOOTH",
"366 540 OFFCURVE",
"316 523 OFFCURVE",
"259 468 CURVE SMOOTH",
"251 461 OFFCURVE",
"246 464 OFFCURVE",
"246 472 CURVE SMOOTH",
"246 721 LINE SMOOTH",
"246 734 OFFCURVE",
"240 742 OFFCURVE",
"228 742 CURVE SMOOTH",
"68 742 LINE SMOOTH",
"56 742 OFFCURVE",
"49 733 OFFCURVE",
"49 719 CURVE SMOOTH",
"49 25 LINE SMOOTH",
"49 7 OFFCURVE",
"56 0 OFFCURVE",
"75 0 CURVE SMOOTH"
);
}
);
};
layerId = "258ED206-D907-4350-8EBA-CBDDA1C16BF7";
paths = (
{
closed = 1;
nodes = (
"208 0 LINE",
"257 321 LINE",
"261 350 OFFCURVE",
"296 370 OFFCURVE",
"325 370 CURVE SMOOTH",
"354 370 OFFCURVE",
"383 352 OFFCURVE",
"378 323 CURVE SMOOTH",
"329 0 LINE",
"523 0 LINE",
"576 346 LINE SMOOTH",
"591 449 OFFCURVE",
"518 517 OFFCURVE",
"422 517 CURVE SMOOTH",
"341 517 OFFCURVE",
"305 483 OFFCURVE",
"277 453 CURVE",
"321 743 LINE",
"127 743 LINE",
"14 0 LINE"
);
}
);
width = 610;
},
{
anchors = (
{
name = bottom;
position = "{249, 0}";
},
{
name = top;
position = "{342, 517}";
}
);
background = {
anchors = (
{
name = bottom;
position = "{311, 0}";
},
{
name = top;
position = "{333, 530}";
}
);
paths = (
{
closed = 1;
nodes = (
"130 0 LINE SMOOTH",
"136 0 OFFCURVE",
"139 3 OFFCURVE",
"139 9 CURVE SMOOTH",
"139 410 LINE",
"219 471 OFFCURVE",
"266 502 OFFCURVE",
"337 502 CURVE SMOOTH",
"424 502 OFFCURVE",
"460 455 OFFCURVE",
"460 377 CURVE SMOOTH",
"460 9 LINE SMOOTH",
"460 3 OFFCURVE",
"463 0 OFFCURVE",
"469 0 CURVE SMOOTH",
"491 0 LINE SMOOTH",
"497 0 OFFCURVE",
"500 3 OFFCURVE",
"500 10 CURVE SMOOTH",
"500 393 LINE SMOOTH",
"500 480 OFFCURVE",
"445 540 OFFCURVE",
"338 540 CURVE SMOOTH",
"265 540 OFFCURVE",
"220 511 OFFCURVE",
"144 457 CURVE SMOOTH",
"138 452 OFFCURVE",
"136 453 OFFCURVE",
"136 460 CURVE SMOOTH",
"136 734 LINE SMOOTH",
"136 740 OFFCURVE",
"134 742 OFFCURVE",
"128 742 CURVE SMOOTH",
"107 742 LINE SMOOTH",
"101 742 OFFCURVE",
"99 739 OFFCURVE",
"99 733 CURVE SMOOTH",
"99 9 LINE SMOOTH",
"99 3 OFFCURVE",
"102 0 OFFCURVE",
"108 0 CURVE SMOOTH"
);
}
);
};
layerId = "91AB5BCA-6A50-42DA-B2F7-8181BF189245";
paths = (
{
closed = 1;
nodes = (
"95 0 LINE",
"146 360 LINE",
"158 448 OFFCURVE",
"237 489 OFFCURVE",
"321 489 CURVE SMOOTH",
"402 489 OFFCURVE",
"446 444 OFFCURVE",
"435 368 CURVE SMOOTH",
"383 0 LINE",
"419 0 LINE",
"473 383 LINE SMOOTH",
"485 468 OFFCURVE",
"422 527 OFFCURVE",
"328 527 CURVE SMOOTH",
"250 527 OFFCURVE",
"186 489 OFFCURVE",
"154 440 CURVE",
"197 743 LINE",
"164 743 LINE",
"59 0 LINE"
);
}
);
width = 546;
}
);
leftKerningGroup = h;
leftMetricsKey = n;
rightKerningGroup = n;
rightMetricsKey = n;
unicode = 0068;
},
{
glyphname = hbar;
lastChange = "2019-04-15 22:22:15 +0000";
layers = (
{
background = {
components = (
{
name = h;
transform = "{1, 0, 0, 1, 61, 0}";
}
);
paths = (
{
closed = 1;
nodes = (
"432 680 OFFCURVE",
"426 687 OFFCURVE",
"416 687 CURVE SMOOTH",
"77 687 LINE SMOOTH",
"67 687 OFFCURVE",
"61 680 OFFCURVE",
"61 667 CURVE SMOOTH",
"61 602 LINE SMOOTH",
"61 587 OFFCURVE",
"66 580 OFFCURVE",
"83 580 CURVE SMOOTH",
"403 580 LINE SMOOTH",
"423 580 OFFCURVE",
"432 587 OFFCURVE",
"432 604 CURVE SMOOTH",
"432 669 LINE SMOOTH"
);
}
);
};
components = (
{
name = h;
transform = "{1, 0, 0, 1, 99, 0}";
}
);
layerId = "258ED206-D907-4350-8EBA-CBDDA1C16BF7";
paths = (
{
closed = 1;
nodes = (
"441 566 LINE",
"441 670 LINE",
"80 670 LINE",
"80 566 LINE"
);
}
);
width = 709;
},
{
background = {
components = (
{
name = h;
transform = "{1, 0, 0, 1, 54, 0}";
}
);
paths = (
{
closed = 1;
nodes = (
"363 660 OFFCURVE",
"361 662 OFFCURVE",
"358 662 CURVE SMOOTH",
"79 662 LINE SMOOTH",
"76 662 OFFCURVE",
"74 660 OFFCURVE",
"74 655 CURVE SMOOTH",
"74 635 LINE SMOOTH",
"74 629 OFFCURVE",
"75 627 OFFCURVE",
"81 627 CURVE SMOOTH",
"353 627 LINE SMOOTH",
"360 627 OFFCURVE",
"363 629 OFFCURVE",
"363 635 CURVE SMOOTH",
"363 656 LINE SMOOTH"
);
}
);
};
components = (
{
name = h;
transform = "{1, 0, 0, 1, 50, 0}";
}
);
layerId = "91AB5BCA-6A50-42DA-B2F7-8181BF189245";
paths = (
{
closed = 1;
nodes = (
"354 611 LINE",
"354 645 LINE",
"72 645 LINE",
"72 611 LINE"
);
}
);
width = 596;
}
);
leftKerningGroup = h;
rightKerningGroup = n;
rightMetricsKey = h;
unicode = 0127;
},
{
glyphname = i;
lastChange = "2019-04-15 22:22:15 +0000";
layers = (
{
anchors = (
{
name = bottom;
position = "{112, 0}";
}
);
background = {
paths = (
{
closed = 1;
nodes = (
"252 522 OFFCURVE",
"245 530 OFFCURVE",
"234 530 CURVE SMOOTH",
"71 530 LINE SMOOTH",
"59 530 OFFCURVE",
"52 522 OFFCURVE",
"52 507 CURVE SMOOTH",
"52 25 LINE SMOOTH",
"52 8 OFFCURVE",
"58 0 OFFCURVE",
"78 0 CURVE SMOOTH",
"219 0 LINE SMOOTH",
"242 0 OFFCURVE",
"252 8 OFFCURVE",
"252 29 CURVE SMOOTH",
"252 510 LINE SMOOTH"
);
},
{
closed = 1;
nodes = (
"252 734 OFFCURVE",
"245 742 OFFCURVE",
"234 742 CURVE SMOOTH",
"71 742 LINE SMOOTH",
"59 742 OFFCURVE",
"52 734 OFFCURVE",
"52 719 CURVE SMOOTH",
"52 600 LINE SMOOTH",
"52 583 OFFCURVE",
"58 574 OFFCURVE",
"78 574 CURVE SMOOTH",
"219 574 LINE SMOOTH",
"242 574 OFFCURVE",
"252 583 OFFCURVE",
"252 603 CURVE SMOOTH",
"252 721 LINE SMOOTH"
);
}
);
};
layerId = "258ED206-D907-4350-8EBA-CBDDA1C16BF7";
paths = (
{
closed = 1;
nodes = (
"208 0 LINE",
"286 517 LINE",
"93 517 LINE",
"14 0 LINE"
);
},
{
closed = 1;
nodes = (
"296 579 LINE",
"321 743 LINE",
"127 743 LINE",
"102 579 LINE"
);
}
);
width = 299;
},
{
anchors = (
{
name = bottom;
position = "{85, 0}";
}
);
background = {
paths = (
{
closed = 1;
nodes = (
"159 528 OFFCURVE",
"157 530 OFFCURVE",
"150 530 CURVE SMOOTH",
"128 530 LINE SMOOTH",
"121 530 OFFCURVE",
"119 528 OFFCURVE",
"119 520 CURVE SMOOTH",
"119 10 LINE SMOOTH",
"119 2 OFFCURVE",
"121 0 OFFCURVE",
"130 0 CURVE SMOOTH",
"147 0 LINE SMOOTH",
"157 0 OFFCURVE",
"159 2 OFFCURVE",
"159 12 CURVE SMOOTH",
"159 520 LINE SMOOTH"
);
},
{
closed = 1;
nodes = (
"164 737 OFFCURVE",
"159 742 OFFCURVE",
"152 742 CURVE SMOOTH",
"126 742 LINE SMOOTH",
"119 742 OFFCURVE",
"114 737 OFFCURVE",
"114 729 CURVE SMOOTH",
"114 658 LINE SMOOTH",
"114 650 OFFCURVE",
"116 644 OFFCURVE",
"125 644 CURVE SMOOTH",
"152 644 LINE SMOOTH",
"162 644 OFFCURVE",
"164 650 OFFCURVE",
"164 660 CURVE SMOOTH",
"164 729 LINE SMOOTH"
);
}
);
};
layerId = "91AB5BCA-6A50-42DA-B2F7-8181BF189245";
paths = (
{
closed = 1;
nodes = (
"104 0 LINE",
"176 517 LINE",
"140 517 LINE",
"68 0 LINE"
);
},
{
closed = 1;
nodes = (
"198 647 LINE",
"207 707 LINE",
"163 707 LINE",
"154 647 LINE"
);
}
);
width = 243;
}
);
leftKerningGroup = n;
rightKerningGroup = d;
unicode = 0069;
},
{
glyphname = idotless;
lastChange = "2019-04-15 22:22:15 +0000";
layers = (
{
anchors = (
{
name = ogonek;
position = "{182, 9}";
},
{
name = top;
position = "{193, 517}";
}
);
background = {
anchors = (
{
name = ogonek;
position = "{207, 9}";
},
{
name = top;
position = "{139, 530}";
}
);
paths = (
{
closed = 1;
nodes = (
"235 522 OFFCURVE",
"228 530 OFFCURVE",
"217 530 CURVE SMOOTH",
"54 530 LINE SMOOTH",
"42 530 OFFCURVE",
"35 522 OFFCURVE",
"35 507 CURVE SMOOTH",
"35 25 LINE SMOOTH",
"35 8 OFFCURVE",
"41 0 OFFCURVE",
"61 0 CURVE SMOOTH",
"202 0 LINE SMOOTH",
"225 0 OFFCURVE",
"235 8 OFFCURVE",
"235 29 CURVE SMOOTH",
"235 510 LINE SMOOTH"
);
}
);
};
layerId = "258ED206-D907-4350-8EBA-CBDDA1C16BF7";
paths = (
{
closed = 1;
nodes = (
"208 0 LINE",
"287 517 LINE",
"93 517 LINE",
"14 0 LINE"
);
}
);
width = 297;
},
{
anchors = (
{
name = ogonek;
position = "{94, 13}";
},
{
name = top;
position = "{153, 517}";
}
);
background = {
anchors = (
{
name = ogonek;
position = "{133, 13}";
},
{
name = top;
position = "{121, 530}";
}
);
paths = (
{
closed = 1;
nodes = (
"141 528 OFFCURVE",
"139 530 OFFCURVE",
"132 530 CURVE SMOOTH",
"110 530 LINE SMOOTH",
"103 530 OFFCURVE",
"101 528 OFFCURVE",
"101 520 CURVE SMOOTH",
"101 10 LINE SMOOTH",
"101 2 OFFCURVE",
"103 0 OFFCURVE",
"112 0 CURVE SMOOTH",
"129 0 LINE SMOOTH",
"139 0 OFFCURVE",
"141 2 OFFCURVE",
"141 12 CURVE SMOOTH",
"141 520 LINE SMOOTH"
);
}
);
};
layerId = "91AB5BCA-6A50-42DA-B2F7-8181BF189245";
paths = (
{
closed = 1;
nodes = (
"99 0 LINE",
"172 517 LINE",
"136 517 LINE",
"63 0 LINE"
);
}
);
width = 235;
}
);
leftKerningGroup = n;
leftMetricsKey = i;
rightKerningGroup = d;
rightMetricsKey = i;
unicode = 0131;
},
{
glyphname = j;
lastChange = "2019-04-15 22:22:15 +0000";
layers = (
{
background = {
paths = (
{
closed = 1;
nodes = (
"258 510 LINE SMOOTH",
"258 522 OFFCURVE",
"252 530 OFFCURVE",
"240 530 CURVE SMOOTH",
"78 530 LINE SMOOTH",
"66 530 OFFCURVE",
"58 522 OFFCURVE",
"58 507 CURVE SMOOTH",
"58 36 LINE SMOOTH",
"58 2 OFFCURVE",
"47 -6 OFFCURVE",
"34 -10 CURVE SMOOTH",
"-1 -16 LINE SMOOTH",
"-14 -19 OFFCURVE",
"-21 -32 OFFCURVE",
"-21 -43 CURVE SMOOTH",
"-20 -145 LINE SMOOTH",
"-20 -166 OFFCURVE",
"-8 -170 OFFCURVE",
"48 -170 CURVE SMOOTH",
"190 -170 OFFCURVE",
"258 -103 OFFCURVE",
"258 29 CURVE SMOOTH"
);
},
{
closed = 1;
nodes = (
"258 734 OFFCURVE",
"252 742 OFFCURVE",
"240 742 CURVE SMOOTH",
"78 742 LINE SMOOTH",
"66 742 OFFCURVE",
"58 734 OFFCURVE",
"58 719 CURVE SMOOTH",
"58 600 LINE SMOOTH",
"58 583 OFFCURVE",
"65 574 OFFCURVE",
"85 574 CURVE SMOOTH",
"226 574 LINE SMOOTH",
"226 574 OFFCURVE",
"258 583 OFFCURVE",
"258 603 CURVE SMOOTH",
"258 721 LINE SMOOTH"
);
}
);
};
layerId = "258ED206-D907-4350-8EBA-CBDDA1C16BF7";
paths = (
{
closed = 1;
nodes = (
"134 -166 OFFCURVE",
"210 -100 OFFCURVE",
"229 28 CURVE SMOOTH",
"304 517 LINE",
"110 517 LINE",
"36 28 LINE",
"33 7 OFFCURVE",
"21 -6 OFFCURVE",
"-17 -14 CURVE",
"-48 -19 LINE",
"-67 -149 LINE",
"-67 -149 OFFCURVE",
"-54 -166 OFFCURVE",
"-3 -166 CURVE"
);
},
{
closed = 1;
nodes = (
"313 579 LINE",
"338 743 LINE",
"144 743 LINE",
"119 579 LINE"
);
}
);
width = 324;
},
{
background = {
paths = (
{
closed = 1;
nodes = (
"142 520 LINE SMOOTH",
"142 527 OFFCURVE",
"140 530 OFFCURVE",
"134 530 CURVE SMOOTH",
"112 530 LINE SMOOTH",
"105 530 OFFCURVE",
"102 527 OFFCURVE",
"102 520 CURVE SMOOTH",
"102 -46 LINE SMOOTH",
"102 -110 OFFCURVE",
"81 -132 OFFCURVE",
"28 -133 CURVE SMOOTH",
"-30 -134 LINE SMOOTH",
"-34 -134 OFFCURVE",
"-36 -136 OFFCURVE",
"-36 -140 CURVE SMOOTH",
"-36 -161 LINE SMOOTH",
"-36 -169 OFFCURVE",
"-30 -170 OFFCURVE",
"29 -170 CURVE SMOOTH",
"120 -170 OFFCURVE",
"142 -133 OFFCURVE",
"142 -51 CURVE SMOOTH"
);
},
{
closed = 1;
nodes = (
"147 737 OFFCURVE",
"142 742 OFFCURVE",
"135 742 CURVE SMOOTH",
"109 742 LINE SMOOTH",
"102 742 OFFCURVE",
"97 737 OFFCURVE",
"97 729 CURVE SMOOTH",
"97 658 LINE SMOOTH",
"97 650 OFFCURVE",
"99 644 OFFCURVE",
"108 644 CURVE SMOOTH",
"135 644 LINE SMOOTH",
"145 644 OFFCURVE",
"147 650 OFFCURVE",
"147 660 CURVE SMOOTH",
"147 729 LINE SMOOTH"
);
}
);
};
layerId = "91AB5BCA-6A50-42DA-B2F7-8181BF189245";
paths = (
{
closed = 1;
nodes = (
"50 -166 OFFCURVE",
"74 -130 OFFCURVE",
"85 -50 CURVE SMOOTH",
"165 517 LINE",
"129 517 LINE",
"50 -45 LINE SMOOTH",
"41 -107 OFFCURVE",
"20 -129 OFFCURVE",
"-28 -130 CURVE SMOOTH",
"-85 -131 LINE",
"-89 -157 LINE SMOOTH",
"-89 -157 OFFCURVE",
"-86 -166 OFFCURVE",
"-32 -166 CURVE SMOOTH"
);
},
{
closed = 1;
nodes = (
"188 647 LINE",
"196 707 LINE",
"152 707 LINE",
"144 647 LINE"
);
}
);
width = 222;
}
);
leftKerningGroup = n;
rightKerningGroup = d;
unicode = 006A;
},
{
glyphname = jdotless;
lastChange = "2019-04-15 22:22:15 +0000";
layers = (
{
anchors = (
{
name = top;
position = "{199, 517}";
}
);
background = {
anchors = (
{
name = top;
position = "{133, 530}";
}
);
paths = (
{
closed = 1;
nodes = (
"233 510 LINE SMOOTH",
"233 522 OFFCURVE",
"227 530 OFFCURVE",
"215 530 CURVE SMOOTH",
"53 530 LINE SMOOTH",
"41 530 OFFCURVE",
"33 522 OFFCURVE",
"33 507 CURVE SMOOTH",
"33 36 LINE SMOOTH",
"33 2 OFFCURVE",
"22 -6 OFFCURVE",
"9 -10 CURVE SMOOTH",
"-26 -16 LINE SMOOTH",
"-39 -19 OFFCURVE",
"-46 -32 OFFCURVE",
"-46 -43 CURVE SMOOTH",
"-45 -145 LINE SMOOTH",
"-45 -166 OFFCURVE",
"-33 -170 OFFCURVE",
"23 -170 CURVE SMOOTH",
"165 -170 OFFCURVE",
"233 -103 OFFCURVE",
"233 29 CURVE SMOOTH"
);
}
);
};
layerId = "258ED206-D907-4350-8EBA-CBDDA1C16BF7";
paths = (
{
closed = 1;
nodes = (
"127 -166 OFFCURVE",
"203 -100 OFFCURVE",
"223 28 CURVE SMOOTH",
"297 517 LINE",
"103 517 LINE",
"29 28 LINE",
"26 7 OFFCURVE",
"13 -6 OFFCURVE",
"-25 -14 CURVE",
"-55 -19 LINE",
"-74 -149 LINE",
"-74 -149 OFFCURVE",
"-62 -166 OFFCURVE",
"-11 -166 CURVE"
);
}
);
width = 329;
},
{
anchors = (
{
name = top;
position = "{132, 517}";
}
);
background = {
anchors = (
{
name = top;
position = "{93, 530}";
}
);
paths = (
{
closed = 1;
nodes = (
"113 520 LINE SMOOTH",
"113 527 OFFCURVE",
"111 530 OFFCURVE",
"105 530 CURVE SMOOTH",
"83 530 LINE SMOOTH",
"76 530 OFFCURVE",
"73 527 OFFCURVE",
"73 520 CURVE SMOOTH",
"73 -46 LINE SMOOTH",
"73 -110 OFFCURVE",
"52 -132 OFFCURVE",
"-1 -133 CURVE SMOOTH",
"-59 -134 LINE SMOOTH",
"-63 -134 OFFCURVE",
"-65 -136 OFFCURVE",
"-65 -140 CURVE SMOOTH",
"-65 -161 LINE SMOOTH",
"-65 -169 OFFCURVE",
"-59 -170 OFFCURVE",
"0 -170 CURVE SMOOTH",
"91 -170 OFFCURVE",
"113 -133 OFFCURVE",
"113 -51 CURVE SMOOTH"
);
}
);
};
layerId = "91AB5BCA-6A50-42DA-B2F7-8181BF189245";
paths = (
{
closed = 1;
nodes = (
"34 -166 OFFCURVE",
"59 -130 OFFCURVE",
"70 -50 CURVE SMOOTH",
"150 517 LINE",
"114 517 LINE",
"35 -45 LINE SMOOTH",
"26 -107 OFFCURVE",
"4 -129 OFFCURVE",
"-43 -130 CURVE SMOOTH",
"-101 -131 LINE",
"-105 -157 LINE SMOOTH",
"-106 -165 OFFCURVE",
"-101 -166 OFFCURVE",
"-47 -166 CURVE SMOOTH"
);
}
);
width = 201;
}
);
leftKerningGroup = n;
rightKerningGroup = d;
unicode = 0237;
},
{
glyphname = k;
lastChange = "2019-04-15 22:22:15 +0000";
layers = (
{
anchors = (
{
name = bottom;
position = "{265, 0}";
}
);
background = {
anchors = (
{
name = bottom;
position = "{309, 0}";
}
);
paths = (
{
closed = 1;
nodes = (
"462 337 LINE SMOOTH",
"453 355 OFFCURVE",
"455 361 OFFCURVE",
"464 372 CURVE SMOOTH",
"593 501 LINE SMOOTH",
"606 515 OFFCURVE",
"602 530 OFFCURVE",
"579 530 CURVE SMOOTH",
"442 530 LINE SMOOTH",
"432 530 OFFCURVE",
"421 523 OFFCURVE",
"411 513 CURVE SMOOTH",
"261 344 LINE SMOOTH",
"253 335 OFFCURVE",
"249 340 OFFCURVE",
"249 346 CURVE SMOOTH",
"249 721 LINE SMOOTH",
"249 734 OFFCURVE",
"243 742 OFFCURVE",
"231 742 CURVE SMOOTH",
"68 742 LINE SMOOTH",
"57 742 OFFCURVE",
"49 734 OFFCURVE",
"49 719 CURVE SMOOTH",
"49 25 LINE SMOOTH",
"49 8 OFFCURVE",
"55 0 OFFCURVE",
"76 0 CURVE SMOOTH",
"217 0 LINE SMOOTH",
"240 0 OFFCURVE",
"249 8 OFFCURVE",
"249 29 CURVE SMOOTH",
"249 130 LINE SMOOTH",
"249 146 OFFCURVE",
"252 153 OFFCURVE",
"258 158 CURVE SMOOTH",
"306 203 LINE SMOOTH",
"316 213 OFFCURVE",
"321 211 OFFCURVE",
"327 198 CURVE SMOOTH",
"399 26 LINE SMOOTH",
"406 10 OFFCURVE",
"415 0 OFFCURVE",
"432 0 CURVE SMOOTH",
"603 0 LINE SMOOTH",
"621 0 OFFCURVE",
"628 17 OFFCURVE",
"622 28 CURVE SMOOTH"
);
}
);
};
guideLines = (
{
angle = 50.4927;
position = "{262, 343}";
},
{
angle = 122;
position = "{403, 0}";
}
);
layerId = "258ED206-D907-4350-8EBA-CBDDA1C16BF7";
paths = (
{
closed = 1;
nodes = (
"207 0 LINE",
"230 146 LINE",
"274 190 LINE",
"363 0 LINE",
"551 0 LINE",
"408 303 LINE",
"629 517 LINE",
"427 517 LINE",
"259 343 LINE",
"320 743 LINE",
"126 743 LINE",
"14 0 LINE"
);
}
);
width = 601;
},
{
anchors = (
{
name = bottom;
position = "{222, 0}";
}
);
background = {
anchors = (
{
name = bottom;
position = "{280, 0}";
}
);
paths = (
{
closed = 1;
nodes = (
"313 331 LINE SMOOTH",
"310 336 OFFCURVE",
"311 339 OFFCURVE",
"314 342 CURVE SMOOTH",
"483 515 LINE SMOOTH",
"492 524 OFFCURVE",
"491 530 OFFCURVE",
"481 530 CURVE SMOOTH",
"449 530 LINE SMOOTH",
"442 530 OFFCURVE",
"439 528 OFFCURVE",
"432 520 CURVE",
"148 229 LINE SMOOTH",
"140 221 OFFCURVE",
"138 222 OFFCURVE",
"138 234 CURVE SMOOTH",
"138 732 LINE SMOOTH",
"138 740 OFFCURVE",
"136 742 OFFCURVE",
"129 742 CURVE SMOOTH",
"107 742 LINE SMOOTH",
"100 742 OFFCURVE",
"98 740 OFFCURVE",
"98 732 CURVE SMOOTH",
"98 10 LINE SMOOTH",
"98 2 OFFCURVE",
"100 0 OFFCURVE",
"109 0 CURVE SMOOTH",
"126 0 LINE SMOOTH",
"136 0 OFFCURVE",
"138 2 OFFCURVE",
"138 12 CURVE SMOOTH",
"138 152 LINE SMOOTH",
"138 159 OFFCURVE",
"140 164 OFFCURVE",
"145 169 CURVE SMOOTH",
"273 299 LINE SMOOTH",
"278 304 OFFCURVE",
"279 302 OFFCURVE",
"281 299 CURVE SMOOTH",
"463 7 LINE SMOOTH",
"466 2 OFFCURVE",
"469 0 OFFCURVE",
"475 0 CURVE SMOOTH",
"506 0 LINE SMOOTH",
"515 0 OFFCURVE",
"516 4 OFFCURVE",
"511 12 CURVE SMOOTH"
);
}
);
};
guideLines = (
{
angle = 121.8697;
position = "{303, 140}";
}
);
layerId = "91AB5BCA-6A50-42DA-B2F7-8181BF189245";
paths = (
{
closed = 1;
nodes = (
"95 0 LINE",
"117 158 LINE",
"262 296 LINE",
"389 0 LINE",
"435 0 LINE",
"294 329 LINE",
"491 517 LINE",
"440 517 LINE",
"125 214 LINE",
"199 743 LINE",
"164 743 LINE",
"59 0 LINE"
);
}
);
width = 515;
}
);
leftKerningGroup = h;
leftMetricsKey = n;
rightKerningGroup = k;
unicode = 006B;
},
{
glyphname = kgreenlandic;
lastChange = "2019-04-15 22:22:15 +0000";
layers = (
{
background = {
paths = (
{
closed = 1;
nodes = (
"446 337 LINE SMOOTH",
"437 355 OFFCURVE",
"439 361 OFFCURVE",
"448 372 CURVE SMOOTH",
"577 501 LINE SMOOTH",
"590 515 OFFCURVE",
"586 530 OFFCURVE",
"563 530 CURVE SMOOTH",
"426 530 LINE SMOOTH",
"416 530 OFFCURVE",
"405 523 OFFCURVE",
"395 513 CURVE SMOOTH",
"245 344 LINE SMOOTH",
"237 335 OFFCURVE",
"233 340 OFFCURVE",
"233 346 CURVE SMOOTH",
"233 509 LINE SMOOTH",
"233 522 OFFCURVE",
"227 530 OFFCURVE",
"215 530 CURVE SMOOTH",
"52 530 LINE SMOOTH",
"41 530 OFFCURVE",
"33 522 OFFCURVE",
"33 507 CURVE SMOOTH",
"33 25 LINE SMOOTH",
"33 8 OFFCURVE",
"39 0 OFFCURVE",
"60 0 CURVE SMOOTH",
"201 0 LINE SMOOTH",
"224 0 OFFCURVE",
"233 8 OFFCURVE",
"233 29 CURVE SMOOTH",
"233 130 LINE SMOOTH",
"233 146 OFFCURVE",
"236 153 OFFCURVE",
"242 158 CURVE SMOOTH",
"290 203 LINE SMOOTH",
"300 213 OFFCURVE",
"305 211 OFFCURVE",
"311 198 CURVE SMOOTH",
"383 26 LINE SMOOTH",
"390 10 OFFCURVE",
"399 0 OFFCURVE",
"416 0 CURVE SMOOTH",
"587 0 LINE SMOOTH",
"605 0 OFFCURVE",
"612 17 OFFCURVE",
"606 28 CURVE SMOOTH"
);
}
);
};
layerId = "258ED206-D907-4350-8EBA-CBDDA1C16BF7";
paths = (
{
closed = 1;
nodes = (
"208 0 LINE",
"230 146 LINE",
"308 211 LINE",
"364 0 LINE",
"582 0 LINE",
"457 350 LINE",
"647 517 LINE",
"457 517 LINE",
"257 322 LINE",
"286 517 LINE",
"93 517 LINE",
"14 0 LINE"
);
}
);
width = 626;
},
{
background = {
paths = (
{
closed = 1;
nodes = (
"297 331 LINE SMOOTH",
"294 336 OFFCURVE",
"295 339 OFFCURVE",
"298 342 CURVE SMOOTH",
"467 515 LINE SMOOTH",
"476 524 OFFCURVE",
"475 530 OFFCURVE",
"465 530 CURVE SMOOTH",
"433 530 LINE SMOOTH",
"426 530 OFFCURVE",
"423 528 OFFCURVE",
"416 520 CURVE",
"132 229 LINE SMOOTH",
"124 221 OFFCURVE",
"122 222 OFFCURVE",
"122 234 CURVE SMOOTH",
"122 520 LINE SMOOTH",
"122 528 OFFCURVE",
"120 530 OFFCURVE",
"113 530 CURVE SMOOTH",
"91 530 LINE SMOOTH",
"84 530 OFFCURVE",
"82 528 OFFCURVE",
"82 520 CURVE SMOOTH",
"82 10 LINE SMOOTH",
"82 2 OFFCURVE",
"84 0 OFFCURVE",
"93 0 CURVE SMOOTH",
"110 0 LINE SMOOTH",
"120 0 OFFCURVE",
"122 2 OFFCURVE",
"122 12 CURVE SMOOTH",
"122 152 LINE SMOOTH",
"122 159 OFFCURVE",
"124 164 OFFCURVE",
"129 169 CURVE SMOOTH",
"257 299 LINE SMOOTH",
"262 304 OFFCURVE",
"263 302 OFFCURVE",
"265 299 CURVE SMOOTH",
"447 7 LINE SMOOTH",
"450 2 OFFCURVE",
"453 0 OFFCURVE",
"459 0 CURVE SMOOTH",
"490 0 LINE SMOOTH",
"499 0 OFFCURVE",
"500 4 OFFCURVE",
"495 12 CURVE SMOOTH"
);
}
);
};
layerId = "91AB5BCA-6A50-42DA-B2F7-8181BF189245";
paths = (
{
closed = 1;
nodes = (
"95 0 LINE",
"117 158 LINE",
"262 296 LINE",
"389 0 LINE",
"435 0 LINE",
"294 329 LINE",
"490 517 LINE",
"440 517 LINE",
"125 214 LINE",
"168 517 LINE",
"132 517 LINE",
"59 0 LINE"
);
}
);
width = 515;
}
);
leftKerningGroup = h;
leftMetricsKey = k;
rightKerningGroup = k;
rightMetricsKey = k;
unicode = 0138;
},
{
glyphname = l;
lastChange = "2019-04-15 22:11:46 +0000";
layers = (
{
anchors = (
{
name = bottom;
position = "{95, 0}";
},
{
name = top;
position = "{225, 765}";
},
{
name = topright;
position = "{466, 765}";
}
);
background = {
anchors = (
{
name = bottom;
position = "{91, 0}";
},
{
name = top;
position = "{147, 742}";
},
{
name = topright;
position = "{334, 530}";
}
);
paths = (
{
closed = 1;
nodes = (
"324 129 LINE",
"324 129 OFFCURVE",
"298 131 OFFCURVE",
"289 133 CURVE SMOOTH",
"250 142 OFFCURVE",
"243 163 OFFCURVE",
"243 190 CURVE SMOOTH",
"243 742 LINE",
"46 742 LINE",
"43 173 LINE",
"43 95 OFFCURVE",
"54 -1 OFFCURVE",
"249 2 CURVE SMOOTH",
"275 3 OFFCURVE",
"291 5 OFFCURVE",
"324 9 CURVE"
);
}
);
};
layerId = "258ED206-D907-4350-8EBA-CBDDA1C16BF7";
paths = (
{
closed = 1;
nodes = (
"231 -11 OFFCURVE",
"257 -4 OFFCURVE",
"281 5 CURVE",
"299 123 LINE",
"279 125 LINE",
"228 132 OFFCURVE",
"226 157 OFFCURVE",
"230 182 CURVE SMOOTH",
"315 743 LINE",
"125 743 LINE",
"36 156 LINE",
"25 80 OFFCURVE",
"17 -11 OFFCURVE",
"207 -11 CURVE SMOOTH"
);
}
);
width = 338;
},
{
anchors = (
{
name = bottom;
position = "{98, 1}";
},
{
name = top;
position = "{183, 762}";
},
{
name = topright;
position = "{308, 723}";
}
);
background = {
anchors = (
{
name = bottom;
position = "{128, 0}";
},
{
name = top;
position = "{128, 742}";
},
{
name = topright;
position = "{273, 742}";
}
);
paths = (
{
closed = 1;
nodes = (
"258 36 LINE",
"248 36 OFFCURVE",
"235 36 OFFCURVE",
"219 36 CURVE SMOOTH",
"155 36 OFFCURVE",
"148 87 OFFCURVE",
"148 130 CURVE",
"148 742 LINE",
"108 742 LINE",
"108 130 LINE",
"108 57 OFFCURVE",
"136 2 OFFCURVE",
"207 2 CURVE SMOOTH",
"231 2 OFFCURVE",
"245 3 OFFCURVE",
"258 6 CURVE"
);
}
);
};
layerId = "91AB5BCA-6A50-42DA-B2F7-8181BF189245";
paths = (
{
closed = 1;
nodes = (
"155 -4 OFFCURVE",
"168 -3 OFFCURVE",
"180 0 CURVE",
"184 29 LINE",
"155 29 LINE",
"129 29 OFFCURVE",
"105 54 OFFCURVE",
"114 121 CURVE",
"202 743 LINE",
"166 743 LINE",
"78 121 LINE",
"68 50 OFFCURVE",
"86 -4 OFFCURVE",
"149 -4 CURVE SMOOTH"
);
}
);
width = 263;
}
);
leftKerningGroup = h;
rightKerningGroup = l;
unicode = 006C;
},
{
glyphname = lslash;
lastChange = "2019-04-15 22:22:15 +0000";
layers = (
{
background = {
components = (
{
name = l;
transform = "{1, 0, 0, 1, 46, 0}";
}
);
paths = (
{
closed = 1;
nodes = (
"350 507 OFFCURVE",
"343 511 OFFCURVE",
"326 500 CURVE SMOOTH",
"45 324 LINE SMOOTH",
"33 316 OFFCURVE",
"26 305 OFFCURVE",
"26 290 CURVE SMOOTH",
"26 170 LINE SMOOTH",
"26 153 OFFCURVE",
"32 150 OFFCURVE",
"52 163 CURVE SMOOTH",
"330 345 LINE SMOOTH",
"343 354 OFFCURVE",
"350 366 OFFCURVE",
"350 378 CURVE SMOOTH",
"350 491 LINE SMOOTH"
);
}
);
};
components = (
{
name = l;
transform = "{1, 0, 0, 1, 84, 0}";
}
);
layerId = "258ED206-D907-4350-8EBA-CBDDA1C16BF7";
paths = (
{
closed = 1;
nodes = (
"360 349 LINE",
"360 502 LINE",
"44 304 LINE",
"44 142 LINE"
);
}
);
width = 406;
},
{
background = {
components = (
{
name = l;
transform = "{1, 0, 0, 1, 4, 0}";
}
);
paths = (
{
closed = 1;
nodes = (
"234 437 OFFCURVE",
"232 439 OFFCURVE",
"227 435 CURVE SMOOTH",
"2 225 LINE SMOOTH",
"-1 222 OFFCURVE",
"-3 219 OFFCURVE",
"-3 215 CURVE SMOOTH",
"-3 186 LINE SMOOTH",
"-3 181 OFFCURVE",
"-1 177 OFFCURVE",
"4 181 CURVE SMOOTH",
"228 392 LINE SMOOTH",
"232 396 OFFCURVE",
"234 399 OFFCURVE",
"234 403 CURVE SMOOTH",
"234 433 LINE SMOOTH"
);
}
);
};
components = (
{
name = l;
}
);
layerId = "91AB5BCA-6A50-42DA-B2F7-8181BF189245";
paths = (
{
closed = 1;
nodes = (
"227 388 LINE",
"227 431 LINE",
"-4 215 LINE",
"-4 170 LINE"
);
}
);
width = 201;
}
);
leftKerningGroup = h;
rightKerningGroup = l;
unicode = 0142;
},
{
glyphname = m;
lastChange = "2019-04-15 22:11:46 +0000";
layers = (
{
background = {
guideLines = (
{
angle = 90;
position = "{315, 331}";
showMeasurement = 1;
}
);
paths = (
{
closed = 1;
nodes = (
"199 0 LINE SMOOTH",
"223 0 OFFCURVE",
"232 8 OFFCURVE",
"232 29 CURVE SMOOTH",
"232 349 LINE",
"251 383 OFFCURVE",
"276 399 OFFCURVE",
"306 399 CURVE SMOOTH",
"338 399 OFFCURVE",
"358 381 OFFCURVE",
"358 351 CURVE SMOOTH",
"358 25 LINE SMOOTH",
"358 6 OFFCURVE",
"365 0 OFFCURVE",
"381 0 CURVE SMOOTH",
"527 0 LINE SMOOTH",
"548 0 OFFCURVE",
"557 10 OFFCURVE",
"557 30 CURVE SMOOTH",
"557 333 LINE SMOOTH",
"557 342 OFFCURVE",
"558 350 OFFCURVE",
"565 360 CURVE SMOOTH",
"580 381 OFFCURVE",
"606 399 OFFCURVE",
"631 399 CURVE SMOOTH",
"662 399 OFFCURVE",
"683 381 OFFCURVE",
"683 351 CURVE SMOOTH",
"683 25 LINE SMOOTH",
"683 6 OFFCURVE",
"689 0 OFFCURVE",
"706 0 CURVE SMOOTH",
"852 0 LINE SMOOTH",
"873 0 OFFCURVE",
"883 10 OFFCURVE",
"883 30 CURVE SMOOTH",
"883 373 LINE SMOOTH",
"883 480 OFFCURVE",
"819 540 OFFCURVE",
"729 540 CURVE SMOOTH",
"669 540 OFFCURVE",
"593 497 OFFCURVE",
"556 446 CURVE SMOOTH",
"551 440 OFFCURVE",
"546 440 OFFCURVE",
"544 445 CURVE SMOOTH",
"521 507 OFFCURVE",
"469 541 OFFCURVE",
"402 541 CURVE SMOOTH",
"341 541 OFFCURVE",
"285 507 OFFCURVE",
"242 461 CURVE SMOOTH",
"234 453 OFFCURVE",
"229 457 OFFCURVE",
"229 465 CURVE SMOOTH",
"229 510 LINE SMOOTH",
"229 522 OFFCURVE",
"223 530 OFFCURVE",
"211 530 CURVE SMOOTH",
"51 530 LINE SMOOTH",
"40 530 OFFCURVE",
"32 521 OFFCURVE",
"32 507 CURVE SMOOTH",
"32 25 LINE SMOOTH",
"32 7 OFFCURVE",
"39 0 OFFCURVE",
"58 0 CURVE SMOOTH"
);
}
);
};
guideLines = (
{
angle = 90;
position = "{615, 207}";
showMeasurement = 1;
}
);
layerId = "258ED206-D907-4350-8EBA-CBDDA1C16BF7";
paths = (
{
closed = 1;
nodes = (
"207 0 LINE",
"259 341 LINE",
"264 371 OFFCURVE",
"298 389 OFFCURVE",
"327 389 CURVE SMOOTH",
"356 389 OFFCURVE",
"385 371 OFFCURVE",
"380 341 CURVE SMOOTH",
"328 0 LINE",
"521 0 LINE",
"568 310 LINE SMOOTH",
"576 358 OFFCURVE",
"587 389 OFFCURVE",
"643 389 CURVE SMOOTH",
"672 389 OFFCURVE",
"700 371 OFFCURVE",
"695 341 CURVE SMOOTH",
"643 0 LINE",
"837 0 LINE",
"892 364 LINE SMOOTH",
"908 467 OFFCURVE",
"829 527 OFFCURVE",
"749 527 CURVE SMOOTH",
"694 527 OFFCURVE",
"625 499 OFFCURVE",
"582 455 CURVE",
"557 509 OFFCURVE",
"501 527 OFFCURVE",
"451 527 CURVE SMOOTH",
"371 527 OFFCURVE",
"313 496 OFFCURVE",
"273 455 CURVE",
"283 517 LINE",
"92 517 LINE",
"14 0 LINE"
);
}
);
width = 923;
},
{
background = {
guideLines = (
{
position = "{252, 454}";
}
);
paths = (
{
closed = 1;
nodes = (
"103 0 LINE SMOOTH",
"109 0 OFFCURVE",
"112 3 OFFCURVE",
"112 9 CURVE SMOOTH",
"112 410 LINE",
"188 471 OFFCURVE",
"233 502 OFFCURVE",
"300 502 CURVE SMOOTH",
"380 502 OFFCURVE",
"413 455 OFFCURVE",
"413 377 CURVE SMOOTH",
"413 9 LINE SMOOTH",
"413 3 OFFCURVE",
"417 0 OFFCURVE",
"422 0 CURVE SMOOTH",
"444 0 LINE SMOOTH",
"449 0 OFFCURVE",
"453 3 OFFCURVE",
"453 10 CURVE SMOOTH",
"453 393 LINE SMOOTH",
"453 407 OFFCURVE",
"458 413 OFFCURVE",
"470 423 CURVE SMOOTH",
"509 455 OFFCURVE",
"568 502 OFFCURVE",
"641 502 CURVE SMOOTH",
"721 502 OFFCURVE",
"754 455 OFFCURVE",
"754 377 CURVE SMOOTH",
"754 9 LINE SMOOTH",
"754 3 OFFCURVE",
"757 0 OFFCURVE",
"763 0 CURVE SMOOTH",
"785 0 LINE SMOOTH",
"791 0 OFFCURVE",
"794 3 OFFCURVE",
"794 10 CURVE SMOOTH",
"794 393 LINE SMOOTH",
"794 480 OFFCURVE",
"742 540 OFFCURVE",
"642 540 CURVE SMOOTH",
"573 540 OFFCURVE",
"530 511 OFFCURVE",
"458 457 CURVE SMOOTH",
"452 452 OFFCURVE",
"445 448 OFFCURVE",
"443 454 CURVE SMOOTH",
"430 494 OFFCURVE",
"385 540 OFFCURVE",
"301 540 CURVE SMOOTH",
"232 540 OFFCURVE",
"189 511 OFFCURVE",
"117 457 CURVE SMOOTH",
"111 452 OFFCURVE",
"109 453 OFFCURVE",
"109 460 CURVE SMOOTH",
"109 522 LINE SMOOTH",
"109 528 OFFCURVE",
"107 530 OFFCURVE",
"101 530 CURVE SMOOTH",
"80 530 LINE SMOOTH",
"74 530 OFFCURVE",
"72 527 OFFCURVE",
"72 521 CURVE SMOOTH",
"72 9 LINE SMOOTH",
"72 3 OFFCURVE",
"75 0 OFFCURVE",
"81 0 CURVE SMOOTH"
);
}
);
};
guideLines = (
{
position = "{289, 421}";
}
);
layerId = "91AB5BCA-6A50-42DA-B2F7-8181BF189245";
paths = (
{
closed = 1;
nodes = (
"94 0 LINE",
"145 360 LINE SMOOTH",
"158 453 OFFCURVE",
"237 489 OFFCURVE",
"297 489 CURVE SMOOTH",
"350 489 OFFCURVE",
"409 452 OFFCURVE",
"398 376 CURVE SMOOTH",
"346 0 LINE",
"381 0 LINE",
"432 360 LINE SMOOTH",
"446 462 OFFCURVE",
"529 489 OFFCURVE",
"584 489 CURVE SMOOTH",
"646 489 OFFCURVE",
"698 460 OFFCURVE",
"681 335 CURVE SMOOTH",
"634 0 LINE",
"669 0 LINE",
"716 335 LINE SMOOTH",
"740 501 OFFCURVE",
"653 527 OFFCURVE",
"589 527 CURVE SMOOTH",
"525 527 OFFCURVE",
"468 495 OFFCURVE",
"431 441 CURVE",
"418 497 OFFCURVE",
"358 527 OFFCURVE",
"303 527 CURVE SMOOTH",
"229 527 OFFCURVE",
"183 486 OFFCURVE",
"153 440 CURVE",
"164 517 LINE",
"131 517 LINE",
"59 0 LINE"
);
}
);
width = 795;
}
);
leftKerningGroup = n;
leftMetricsKey = n;
rightKerningGroup = n;
rightMetricsKey = n;
unicode = 006D;
},
{
glyphname = n;
lastChange = "2019-04-15 22:11:46 +0000";
layers = (
{
anchors = (
{
name = bottom;
position = "{269, 0}";
},
{
name = top;
position = "{347, 517}";
}
);
background = {
anchors = (
{
name = bottom;
position = "{296, 0}";
},
{
name = top;
position = "{296, 530}";
}
);
paths = (
{
closed = 1;
nodes = (
"200 0 LINE SMOOTH",
"224 0 OFFCURVE",
"233 8 OFFCURVE",
"233 29 CURVE SMOOTH",
"233 349 LINE",
"252 383 OFFCURVE",
"276 399 OFFCURVE",
"307 399 CURVE SMOOTH",
"339 399 OFFCURVE",
"360 381 OFFCURVE",
"360 351 CURVE SMOOTH",
"360 25 LINE SMOOTH",
"360 6 OFFCURVE",
"366 0 OFFCURVE",
"383 0 CURVE SMOOTH",
"530 0 LINE SMOOTH",
"551 0 OFFCURVE",
"560 10 OFFCURVE",
"560 30 CURVE SMOOTH",
"560 378 LINE SMOOTH",
"560 477 OFFCURVE",
"496 540 OFFCURVE",
"403 540 CURVE SMOOTH",
"341 540 OFFCURVE",
"286 507 OFFCURVE",
"244 461 CURVE SMOOTH",
"236 453 OFFCURVE",
"231 457 OFFCURVE",
"231 465 CURVE SMOOTH",
"231 510 LINE SMOOTH",
"231 522 OFFCURVE",
"225 530 OFFCURVE",
"213 530 CURVE SMOOTH",
"52 530 LINE SMOOTH",
"40 530 OFFCURVE",
"33 521 OFFCURVE",
"33 507 CURVE SMOOTH",
"33 25 LINE SMOOTH",
"33 7 OFFCURVE",
"40 0 OFFCURVE",
"59 0 CURVE SMOOTH"
);
}
);
};
layerId = "258ED206-D907-4350-8EBA-CBDDA1C16BF7";
paths = (
{
closed = 1;
nodes = (
"208 0 LINE",
"257 323 LINE",
"261 352 OFFCURVE",
"298 370 OFFCURVE",
"327 370 CURVE SMOOTH",
"355 370 OFFCURVE",
"384 352 OFFCURVE",
"379 323 CURVE SMOOTH",
"330 0 LINE",
"524 0 LINE",
"577 349 LINE SMOOTH",
"592 446 OFFCURVE",
"513 519 OFFCURVE",
"423 519 CURVE SMOOTH",
"342 519 OFFCURVE",
"312 488 OFFCURVE",
"275 455 CURVE",
"284 517 LINE",
"93 517 LINE",
"14 0 LINE"
);
}
);
width = 610;
},
{
anchors = (
{
name = bottom;
position = "{240, 0}";
},
{
name = top;
position = "{321, 517}";
}
);
background = {
anchors = (
{
name = bottom;
position = "{285, 0}";
},
{
name = top;
position = "{295, 530}";
}
);
paths = (
{
closed = 1;
nodes = (
"114 0 LINE SMOOTH",
"120 0 OFFCURVE",
"123 3 OFFCURVE",
"123 9 CURVE SMOOTH",
"123 410 LINE",
"203 471 OFFCURVE",
"250 502 OFFCURVE",
"321 502 CURVE SMOOTH",
"408 502 OFFCURVE",
"444 455 OFFCURVE",
"444 377 CURVE SMOOTH",
"444 9 LINE SMOOTH",
"444 3 OFFCURVE",
"447 0 OFFCURVE",
"453 0 CURVE SMOOTH",
"475 0 LINE SMOOTH",
"481 0 OFFCURVE",
"484 3 OFFCURVE",
"484 10 CURVE SMOOTH",
"484 393 LINE SMOOTH",
"484 480 OFFCURVE",
"429 540 OFFCURVE",
"322 540 CURVE SMOOTH",
"249 540 OFFCURVE",
"204 511 OFFCURVE",
"128 457 CURVE SMOOTH",
"122 452 OFFCURVE",
"120 453 OFFCURVE",
"120 460 CURVE SMOOTH",
"120 522 LINE SMOOTH",
"120 528 OFFCURVE",
"118 530 OFFCURVE",
"112 530 CURVE SMOOTH",
"91 530 LINE SMOOTH",
"85 530 OFFCURVE",
"83 527 OFFCURVE",
"83 521 CURVE SMOOTH",
"83 9 LINE SMOOTH",
"83 3 OFFCURVE",
"86 0 OFFCURVE",
"92 0 CURVE SMOOTH"
);
}
);
};
layerId = "91AB5BCA-6A50-42DA-B2F7-8181BF189245";
paths = (
{
closed = 1;
nodes = (
"94 0 LINE",
"145 360 LINE SMOOTH",
"157 448 OFFCURVE",
"236 489 OFFCURVE",
"321 489 CURVE SMOOTH",
"401 489 OFFCURVE",
"444 435 OFFCURVE",
"430 335 CURVE SMOOTH",
"382 0 LINE",
"418 0 LINE",
"465 335 LINE SMOOTH",
"484 467 OFFCURVE",
"421 527 OFFCURVE",
"326 527 CURVE SMOOTH",
"249 527 OFFCURVE",
"185 489 OFFCURVE",
"154 440 CURVE",
"164 517 LINE",
"131 517 LINE",
"59 0 LINE"
);
}
);
width = 544;
}
);
leftKerningGroup = n;
rightKerningGroup = n;
unicode = 006E;
},
